<svg xmlns="http://www.w3.org/2000/svg" viewBox="0 0 156.98 156.98"><defs><style>.cls-1{fill:#231815;}</style></defs><title>Asset 3</title><g id="Layer_2" data-name="Layer 2"><g id="圖層_1" data-name="圖層 1"><g id="Wi-Fi"><path class="cls-1" d="M80.62,98.85a9.22,9.22,0,1,0,9.22,9.22A9.22,9.22,0,0,0,80.62,98.85ZM130,66.62a64.39,64.39,0,0,0-98.77,0,4.61,4.61,0,1,0,7.05,5.93,55.18,55.18,0,0,1,84.66,0A4.61,4.61,0,0,0,130,66.62ZM80.62,62A46,46,0,0,0,45.35,78.46a4.61,4.61,0,1,0,7.06,5.93,36.77,36.77,0,0,1,56.43,0,4.61,4.61,0,0,0,7.06-5.93A46,46,0,0,0,80.62,62Zm0,18.44A27.58,27.58,0,0,0,59.46,90.3a4.61,4.61,0,1,0,7.05,5.93,18.38,18.38,0,0,1,28.22,0,4.61,4.61,0,0,0,7.06-5.93A27.61,27.61,0,0,0,80.62,80.42Z"/></g><path class="cls-1" d="M78.49,157A78.49,78.49,0,1,1,157,78.49,78.58,78.58,0,0,1,78.49,157Zm0-152.66a74.17,74.17,0,1,0,74.17,74.17A74.25,74.25,0,0,0,78.49,4.32Z"/></g></g></svg>