<svg xmlns="http://www.w3.org/2000/svg" viewBox="0 0 33.34 28.58"><defs><style>.cls-1{fill:#fff;}</style></defs><title>icon_white_wechat</title><g id="Layer_2" data-name="Layer 2"><g id="圖層_1" data-name="圖層 1"><path class="cls-1" d="M23.27,10.53c-5.53,0-10,3.85-10,8.6s4.52,8.63,10,8.63a12,12,0,0,0,2.85-.35,4.64,4.64,0,0,1,.63,0,3.64,3.64,0,0,1,1.75.39l1.35.81h0s.06-.11-.32-1a1.78,1.78,0,0,1,.52-2,8.12,8.12,0,0,0,3.27-6.37C33.34,14.38,28.83,10.53,23.27,10.53Zm-4.4,7.32A1.14,1.14,0,1,1,20,16.71,1.14,1.14,0,0,1,18.87,17.85Zm7.11,0a1.14,1.14,0,1,1,1.14-1.14A1.14,1.14,0,0,1,26,17.85Z"/><path class="cls-1" d="M23,9.44C22.52,4.17,17.57,0,11.49,0,5.15,0,0,4.57,0,10.2a9.25,9.25,0,0,0,1.17,4.5,10.78,10.78,0,0,0,3.16,3.47,1.56,1.56,0,0,1,.55,1.63c-.25,1.12-.67,2.6-.67,2.6l3-1.82a3.23,3.23,0,0,1,1.93-.41,3.29,3.29,0,0,0,.47.08h0a13.17,13.17,0,0,0,1.9.15c.26,0,.51,0,.76,0a8.44,8.44,0,0,1-.1-1.25C12.15,13.88,17,9.59,23,9.44ZM16.2,6.85a1.34,1.34,0,1,1,0,2.67,1.34,1.34,0,1,1,0-2.67ZM7.51,9.52A1.34,1.34,0,1,1,8.83,8.2,1.31,1.31,0,0,1,7.51,9.52Z"/></g></g></svg>