<svg xmlns="http://www.w3.org/2000/svg" viewBox="0 0 53.46 53.46"><defs><style>.cls-1{fill:#142952;}</style></defs><title>icon_phone</title><g id="Layer_2" data-name="Layer 2"><g id="圖層_1" data-name="圖層 1"><path class="cls-1" d="M11.17,19.65a1.63,1.63,0,0,0,1.59,1.2,1.73,1.73,0,0,0,.32,0l3.29-.63,2.53-.55a1.62,1.62,0,0,0,1.31-1.76l-.31-2.37c0-.3.63-.63,1.26-.72a35.18,35.18,0,0,1,11,0c1,.17,1.23.34,1.28.4a1.23,1.23,0,0,1,0,.78l-.22,1.57A1.9,1.9,0,0,0,33.53,19a2.36,2.36,0,0,0,1.5.73c.38.07.67.15,1,.22s.62.15,1,.23l2.94.56a2.24,2.24,0,0,0,1.55-.09,2,2,0,0,0,.91-1.49l0-.08c.05-.25.13-.5.2-.75A5.89,5.89,0,0,0,43,16.47a4.4,4.4,0,0,0-1.44-2.9C37.79,9.88,31.29,9.46,26.73,9.46c-10.4,0-14.37,3-15.86,5.5a3,3,0,0,0-.32,2.31Zm.63-4.13c1.35-2.27,5-5,14.93-5,4.37,0,10.59.4,14.06,3.81A3.28,3.28,0,0,1,41.9,16.5,5,5,0,0,1,41.6,18c-.08.27-.16.54-.23.82v.08c-.1.4-.17.68-.35.77a1.54,1.54,0,0,1-.85,0l-2.94-.56-1-.22c-.31-.08-.62-.16-1-.23-.26-.05-.69-.13-.83-.32a1,1,0,0,1,0-.68l.22-1.57a2.13,2.13,0,0,0-.23-1.56,3.06,3.06,0,0,0-2-.84,36.5,36.5,0,0,0-11.38,0c-1.18.18-2.32.85-2.18,1.93L19.13,18a.52.52,0,0,1-.45.56l-2.53.55-3.27.63a.57.57,0,0,1-.66-.38L11.6,17A2,2,0,0,1,11.8,15.52Z"/><path class="cls-1" d="M12.75,21.23a2,2,0,0,1-1.94-1.48l-.62-2.38a3.43,3.43,0,0,1,.35-2.6c1.55-2.59,5.61-5.69,16.19-5.69,4.63,0,11.23.44,15.08,4.22a4.69,4.69,0,0,1,1.55,3.14,6.4,6.4,0,0,1-.36,2c-.07.22-.14.46-.2.7A2.42,2.42,0,0,1,41.71,21a2.58,2.58,0,0,1-1.86.13L37,20.55l-1-.22-.07-.4-.08.36-.87-.2a2.7,2.7,0,0,1-1.7-.83,2.31,2.31,0,0,1-.33-1.84l.21-1.53a1,1,0,0,0,0-.51,5.41,5.41,0,0,0-1-.25,35,35,0,0,0-10.91,0,2,2,0,0,0-.94.36l.3,2.31A2,2,0,0,1,19,20l-2.51.55-3.3.63a2.58,2.58,0,0,1-.39,0Zm14-11.4c-10.23,0-14.1,2.9-15.54,5.33a2.58,2.58,0,0,0-.27,2l.62,2.39a1.25,1.25,0,0,0,1.21.92v0a1,1,0,0,0,.25,0l3.29-.63,2.52-.55a1.23,1.23,0,0,0,1-1.35l-.3-2.37c-.09-.64.9-1,1.58-1.13a35.88,35.88,0,0,1,11.14,0c1.12.19,1.4.39,1.51.53l.06.1a1.55,1.55,0,0,1,0,1l-.21,1.53a1.58,1.58,0,0,0,.19,1.23,2,2,0,0,0,1.21.55l.94.21.16,0c.28.07.57.14.93.21l2.94.57a1.88,1.88,0,0,0,1.33-.07A1.61,1.61,0,0,0,42,19.12l0-.13c.06-.25.14-.51.22-.77a5.58,5.58,0,0,0,.32-1.76,4,4,0,0,0-1.31-2.61C37.63,10.25,31.23,9.83,26.73,9.83Zm-14,10.31a.92.92,0,0,1-.88-.65l-.63-2.4a2.31,2.31,0,0,1,.23-1.76c1.41-2.36,5.19-5.16,15.26-5.16,4.44,0,10.75.4,14.32,3.91a3.63,3.63,0,0,1,1.22,2.39A5.39,5.39,0,0,1,42,18.15c-.07.24-.15.51-.21.77-.11.5-.21.92-.56,1.11a1.74,1.74,0,0,1-1.13,0l-2.9-.55-1-.23-1-.22a1.71,1.71,0,0,1-1.07-.46l-.05-.09a1.45,1.45,0,0,1,0-.92L34.22,16A1.79,1.79,0,0,0,34,14.73a2.92,2.92,0,0,0-1.72-.66,36,36,0,0,0-11.26,0c-.75.12-2,.57-1.87,1.51L19.5,18a.89.89,0,0,1-.77,1l-2.5.55L13,20.12A.65.65,0,0,1,12.75,20.14Zm14-9.22c-9.72,0-13.31,2.6-14.61,4.79A1.55,1.55,0,0,0,12,16.9l.62,2.38a.18.18,0,0,0,.16.11l3.33-.63,2.52-.55a.16.16,0,0,0,.16-.16l-.31-2.35c-.17-1.33,1.13-2.14,2.5-2.35a36.6,36.6,0,0,1,11.49,0,3.32,3.32,0,0,1,2.23,1A2.47,2.47,0,0,1,35,16.19l-.21,1.53a.67.67,0,0,0,0,.42,2.06,2.06,0,0,0,.57.16c.39.07.68.15,1,.22s.64.16,1,.23l2.94.56a1.19,1.19,0,0,0,.61,0,2.83,2.83,0,0,0,.15-.51c.08-.37.17-.65.25-.93a4.42,4.42,0,0,0,.28-1.42,2.89,2.89,0,0,0-1-1.86C37.15,11.3,31,10.92,26.73,10.92Z"/><path class="cls-1" d="M42.92,34.23s0,0,0,0a2,2,0,0,0-.2-.38l-6.9-9.36a2.19,2.19,0,0,0-1.75-.88H32.64l-.48-3.84a1.08,1.08,0,0,0-1.09-1.05H29.45a1.09,1.09,0,0,0-1.09,1.09v3.8H25.11v-3.8A1.09,1.09,0,0,0,24,18.68H22.39a1.1,1.1,0,0,0-1.09,1.05l-.47,3.84H19.42a2.19,2.19,0,0,0-1.75.88l-6.9,9.36a2,2,0,0,0-.2.38l0,0a1.72,1.72,0,0,0-.1.55V39.3A2.72,2.72,0,0,0,13.17,42H40.3A2.71,2.71,0,0,0,43,39.3V34.78A1.71,1.71,0,0,0,42.92,34.23ZM18.54,25.09a1.09,1.09,0,0,1,.88-.44h1.89a.53.53,0,0,0,.53-.47l.55-4.35v-.06H24v4.34a.54.54,0,0,0,.54.54H28.9a.55.55,0,0,0,.55-.54V19.77h1.62s0,0,0,.06l.54,4.35a.54.54,0,0,0,.54.47h1.89a1.07,1.07,0,0,1,.87.44l6.48,8.79H12.07ZM41.93,39.3a1.62,1.62,0,0,1-1.63,1.63H13.17a1.62,1.62,0,0,1-1.63-1.63V35H41.93Z"/><path class="cls-1" d="M40.3,42.39H13.17a3.08,3.08,0,0,1-3.09-3.08V34.78a2,2,0,0,1,.12-.68,2.42,2.42,0,0,1,.26-.51l6.91-9.36a2.55,2.55,0,0,1,2-1H20.5l.43-3.51a1.45,1.45,0,0,1,1.46-1.37H24a1.46,1.46,0,0,1,1.46,1.46v3.42H28V19.77a1.46,1.46,0,0,1,1.46-1.46h1.62a1.45,1.45,0,0,1,1.47,1.4L33,23.19h1.08a2.55,2.55,0,0,1,2.05,1L43,33.59a1.92,1.92,0,0,1,.25.47,2,2,0,0,1,.14.72V39.3A3.09,3.09,0,0,1,40.3,42.39ZM19.42,23.94a1.83,1.83,0,0,0-1.45.73L11.07,34a1.25,1.25,0,0,0-.15.28,1.14,1.14,0,0,0-.09.46V39.3a2.34,2.34,0,0,0,2.34,2.34H40.3a2.34,2.34,0,0,0,2.34-2.34V34.78a1.2,1.2,0,0,0-.08-.42,1.13,1.13,0,0,0-.17-.33L35.5,24.67a1.83,1.83,0,0,0-1.45-.73H32.31l-.52-4.17a.72.72,0,0,0-.72-.71H29.45a.71.71,0,0,0-.71.71v4.17h-4V19.77a.71.71,0,0,0-.71-.71H22.39a.71.71,0,0,0-.71.68l-.52,4.2ZM40.3,41.31H13.17a2,2,0,0,1-2-2V34.59H42.3V39.3A2,2,0,0,1,40.3,41.31Zm-28.39-6v4a1.25,1.25,0,0,0,1.26,1.26H40.3a1.25,1.25,0,0,0,1.25-1.26v-4Zm30.23-1.09H11.33l6.91-9.38a1.45,1.45,0,0,1,1.17-.59h1.9a.17.17,0,0,0,.16-.15L22,19.41l.37,0h2v4.72a.18.18,0,0,0,.17.17h4.31a.18.18,0,0,0,.2-.17V19.39h2.38v.38L32,24.13a.18.18,0,0,0,.17.15h1.89a1.49,1.49,0,0,1,1.18.59ZM12.81,33.5H40.65l-6-8.19a.69.69,0,0,0-.57-.28H32.16a.92.92,0,0,1-.91-.81l-.51-4.08h-.92v4a.92.92,0,0,1-.92.92H24.56a.93.93,0,0,1-.92-.92v-4h-.91l-.51,4.08a.93.93,0,0,1-.91.81H19.42a.72.72,0,0,0-.58.28Z"/><path class="cls-1" d="M26.73,25.74c-3.29,0-6,1.58-6,3.53s2.68,3.52,6,3.52,6-1.58,6-3.52S30,25.74,26.73,25.74Zm0,6c-2.7,0-4.88-1.09-4.88-2.44s2.18-2.44,4.88-2.44,4.89,1.09,4.89,2.44S29.43,31.71,26.73,31.71Z"/><path class="cls-1" d="M26.73,33.17c-3.56,0-6.34-1.72-6.34-3.9s2.78-3.91,6.34-3.91,6.35,1.72,6.35,3.91S30.29,33.17,26.73,33.17Zm0-7.06c-3,0-5.59,1.45-5.59,3.16s2.56,3.15,5.59,3.15,5.6-1.45,5.6-3.15S29.77,26.11,26.73,26.11Zm0,6c-2.94,0-5.26-1.23-5.26-2.81s2.32-2.82,5.26-2.82S32,27.69,32,29.27,29.68,32.08,26.73,32.08Zm0-4.88c-2.69,0-4.51,1.07-4.51,2.07s1.82,2.06,4.51,2.06,4.51-1.07,4.51-2.06S29.43,27.2,26.73,27.2Z"/><path class="cls-1" d="M26.73,1A25.73,25.73,0,1,1,1,26.73,25.73,25.73,0,0,1,26.73,1m0-1A26.73,26.73,0,1,0,53.46,26.73,26.76,26.76,0,0,0,26.73,0Z"/></g></g></svg>