<svg xmlns="http://www.w3.org/2000/svg" viewBox="0 0 900.31 260.26"><defs><style>.cls-1{fill:#365394;}.cls-2{fill:#4fb2c7;}.cls-3{fill:#dc5f45;}.cls-4{fill:#0f3460;}.cls-5{fill:#152a52;}.cls-6{fill:#fff;}.cls-7{fill:#d35344;}.cls-8{fill:#499ab2;}.cls-9{fill:#c8c7cd;}.cls-10{fill:#eaf6fd;}.cls-11{fill:#f1bf70;}.cls-12{fill:#f8b62d;}.cls-13{fill:#174377;}</style></defs><title>Asset 2</title><g id="Layer_2" data-name="Layer 2"><g id="圖層_1" data-name="圖層 1"><path class="cls-1" d="M488.28,186.19v3.59H477.34a23.85,23.85,0,0,1,3.17,4.37l-4.73,1.44a21,21,0,0,0-3-4.61l4.13-1.2h-9a34.11,34.11,0,0,1-4.25,3.77h.18v2.69h21.9v3h-21.9v2h17.65v2.63H441.08v-2.63h17.35v-2h-21.6v-3h21.6v-2.69h3.89a21.86,21.86,0,0,0-4.13-2.27c.78-.48,1.5-1,2.21-1.5H443.59a38,38,0,0,1-5.56,5.93,35.75,35.75,0,0,0-4.55-3.12,28,28,0,0,0,8.44-9.69l5.2,1.44c-.36.6-.66,1.19-1.08,1.85h14.48v3.47a22.71,22.71,0,0,0,6.23-7L472,184l-1.26,2.15ZM434.2,220h53.91v3.05h-7.36v2.69h6.52V229h-6.52v4.55c0,2.39-.48,3.29-2.22,4s-4.19.65-7.54.65a22.43,22.43,0,0,0-1.85-3.82l-3.23,2a26.3,26.3,0,0,0-5-5.26l3.41-2.16h-5.62v-3.23h16.69v-2.69H434.2Zm53.73-13.41c-.78,2.64-1.68,5.69-2.46,7.72l-4.6-1.07c.29-1.2.71-2.82,1-4.37h-47.2v-3h48.4l1-.18Zm-49.72,18.13h19V236h-4.72v-1.38h-9.7v1.62h-4.54Zm20-9.39v-2H443.77v-2.52h34.46v2.52H463.4v2h17.88v2.57h-41v-2.57Zm-15.44,12.56v3.59h9.7v-3.59Zm6.17-32.12a25.91,25.91,0,0,0-2.76-4.67l4.55-1.32a21,21,0,0,1,2.93,4.61Zm26.5,33.2H464.71a28.23,28.23,0,0,1,5,5l-.42.24a50.44,50.44,0,0,0,5.08.06c.78-.06,1-.24,1-.9Z"/><path class="cls-1" d="M509.76,184.76a110.24,110.24,0,0,1-4.55,11.9v41.47h-5.38V206.89a52.9,52.9,0,0,1-4.19,5.87,34.27,34.27,0,0,0-2.75-5.87c4.78-5.8,9.09-14.65,11.66-23.57Zm12.62,19.14a46.58,46.58,0,0,1-2.81,4.07h25.61v24.89c0,2.39-.42,3.53-1.92,4.31s-3.64.84-6.52.84a19.42,19.42,0,0,0-1.61-4.43c1.67.06,3.47.06,4.07.06s.71-.24.71-.78v-3.53h-8.19v7.54h-5v-7.54h-9a21.66,21.66,0,0,1-4,9.21,21.34,21.34,0,0,0-4.55-3.29c3.71-4.6,4.07-10.83,4.07-15.79v-5.09a39.26,39.26,0,0,1-4.43,3.17,29.32,29.32,0,0,0-3.17-4.48,34.18,34.18,0,0,0,10.71-9.16h-7.72v-5.14H519v-4.85h-8.73v-5.08H519v-5.27h5.33v5.27h8.79v-5.27h5.33v5.27h7.66v5.08h-7.66v4.85h9.15v5.14Zm4.31,21.36v-4.43h-8.14c0,1.38-.11,2.94-.29,4.43Zm-8.14-8.55h8.14v-4.25h-8.14Zm5.75-18h8.79v-4.85H524.3Zm15.61,13.7h-8.19v4.25h8.19Zm0,12.8v-4.43h-8.19v4.43Z"/><path class="cls-1" d="M604.89,193.73v28.6h-5.81V219.1H583.53v19h-5.81v-19H562.23v3.53h-5.57v-28.9h21.06V183.32h5.81v10.41Zm-27.17,19.92V199.18H562.23v14.47Zm21.36,0V199.18H583.53v14.47Z"/><path class="cls-1" d="M619.12,219c4.61-1.74,7.3-4.49,7.6-8.08a3.69,3.69,0,0,1-.84.06c-2.69,0-5-1.67-5-4.78s2.33-4.79,5.08-4.79c3.77,0,5.75,2.93,5.75,7.48,0,6.64-4.19,11.78-11,14Z"/><path class="cls-1" d="M693.91,197.44c-1.2,10.17-3.35,18.55-6.82,25.31A26.87,26.87,0,0,0,698.16,233a21.32,21.32,0,0,0-3.89,4.79,31.2,31.2,0,0,1-10.41-9.94,37.38,37.38,0,0,1-11.67,10.24,25.71,25.71,0,0,0-2.87-4.43,4.55,4.55,0,0,1-3.11,1.61,37.63,37.63,0,0,1-5.45.18,14.09,14.09,0,0,0-1.49-5,43.42,43.42,0,0,0,4.36.18,1.42,1.42,0,0,0,1.5-.84c.72-1.2.9-7,.9-23.69H651.79c-.6,1.25-1.26,2.39-1.92,3.53H663.1v18.6h-4.19V225.8H652v4.55h-4.13V212.82a24.8,24.8,0,0,1-2.33,2.87,32.92,32.92,0,0,0-2.82-5,31.75,31.75,0,0,0,7.24-13.4l4.85,1.32c-.3.95-.66,1.91-1,2.93h17.47v1.26c3.77-5,6-12.09,7.3-19.75l5.63.9a74.81,74.81,0,0,1-2,8.38h15.44v5.14Zm-41.76-4.37h-7.66v-4.66h7.66v-5h4.66v13.34h-4.66ZM652,214v7.3h6.94V214Zm13.7-16.15h-4.79V183.38h4.79v5h7.54v4.66h-7.54Zm15.2,24.77a74.54,74.54,0,0,1-5.21-16.1,18.73,18.73,0,0,1-2.09,2.7,29,29,0,0,0-2.34-3c-.12,17.47-.24,24-1.25,26.5A30,30,0,0,0,680.87,222.57Zm-.42-25.13c-.42,1-.78,1.92-1.2,2.75a69.19,69.19,0,0,0,4.67,16.52c2.21-5.39,3.53-11.79,4.36-19.27Z"/><path class="cls-1" d="M723.88,197.56H703.24v-4.43h20.64Zm-1.68,7.66H704.67v-4.31H722.2ZM704.73,209h17.53v4.31H704.73Zm17.41,25.84H709.58v2.52h-4.73V217.24h17.29Zm-12.56-13.16v8.68h7.78v-8.68ZM712.81,193a58.09,58.09,0,0,0-2.87-8.13l4.67-1.38a57.28,57.28,0,0,1,3.17,7.84Zm41.82,39.85c0,2.45-.54,3.77-2.27,4.49s-4.37.84-8.08.77a18.48,18.48,0,0,0-1.55-4.48c2.51.12,5,.12,5.68.06s1-.24,1-.9v-4H731.9a20.1,20.1,0,0,1-4.31,10,18.6,18.6,0,0,0-3.89-3.59c3.53-4.3,3.89-10.17,3.89-14.83V209.59h27Zm3.17-30.45v4.18H724.42v-4.18h13.64V199H726.63v-3.95h11.43V192H725.2v-4.07h12.86v-4.61h5.38v4.61h13.7V192h-13.7v3.05H756V199H743.44v3.35ZM749.43,225v-3.71H732.61c0,1.14-.06,2.46-.18,3.71Zm-16.82-11.19v3.65h16.82v-3.65Z"/><path class="cls-1" d="M775.81,226.22a41.89,41.89,0,0,1-8.86,12,28.85,28.85,0,0,0-4.42-3.29,29.44,29.44,0,0,0,8-10.17Zm16-2.39H762.71V219h5.56V195.65h-4.85V190.8h4.85v-6.88h5v6.88h9.34v-6.88h5.14v6.88h4.31v4.85h-4.31V219h4.07Zm-18.55-28.18v4.48h9.34v-4.48Zm0,13.82h9.34v-5h-9.34Zm0,9.51h9.34v-5.15h-9.34Zm10.12,5.62a58.14,58.14,0,0,1,6.46,8.74L785.38,236a62.47,62.47,0,0,0-6.22-9.09Zm32.3,7c0,2.94-.65,4.55-2.51,5.39s-4.67,1.07-9.09,1a19.08,19.08,0,0,0-1.62-5.27c2.81.12,5.8.06,6.58.06s1.26-.3,1.26-1.26V218.26h-11c-.66,7.12-2.09,14.72-5.5,20.16a17.87,17.87,0,0,0-4.43-3.17c4.73-7.83,5.14-19,5.14-27.58V186.13h21.18Zm-5.38-18.36V204.5H799.8v3.17c0,1.74,0,3.65-.12,5.57ZM799.8,191.16v8.43h10.53v-8.43Z"/><path class="cls-1" d="M841.08,198.4a74.4,74.4,0,0,1-4.85,7.3v32.48h-5.32V211.92a55.33,55.33,0,0,1-6.29,5.8,36.12,36.12,0,0,0-2.75-5.56,53.25,53.25,0,0,0,14.36-15.74Zm-.84-12.87A60.51,60.51,0,0,1,825.46,200a28.28,28.28,0,0,0-2.81-4.66c4.61-3,9.81-7.84,12.33-12Zm36.86,5.09v5.09H860.76v6.34H874.4v5H841.14v-5h13.94v-6.34H838.86v-5.09h16.22V183.5h5.68v7.12ZM869.2,213H877v5.08H869.2v14c0,2.93-.6,4.43-2.75,5.21s-5.39.89-10.11.89a21.56,21.56,0,0,0-1.8-5.2c3.35.12,6.76.12,7.72.06s1.31-.24,1.31-1.08V218.08H839.1V213h24.47v-4.31h5.63Zm-21.3,6.4a87.45,87.45,0,0,1,7.48,10l-4.85,2.75a80.23,80.23,0,0,0-7.24-10.29Z"/><path class="cls-1" d="M889.42,228.67a5.45,5.45,0,1,1,5.44,5.21A5.23,5.23,0,0,1,889.42,228.67Zm1.25-32.07-.17-7.89h8.79l-.18,7.89-1.79,22h-4.91Z"/><path class="cls-1" d="M433.28,123.89v-.11c0-11.14,8.58-19.88,20.16-19.88,7.81,0,12.84,3.28,16.22,8l-8,6.18c-2.19-2.73-4.7-4.48-8.36-4.48-5.35,0-9.12,4.53-9.12,10.1v.11c0,5.74,3.77,10.22,9.12,10.22,4,0,6.34-1.86,8.63-4.64l8,5.68c-3.61,5-8.47,8.63-16.94,8.63A19.42,19.42,0,0,1,433.28,123.89Z"/><path class="cls-1" d="M472.07,123.89v-.11c0-11,8.85-19.88,20.65-19.88s20.54,8.79,20.54,19.77v.11c0,11-8.85,19.89-20.65,19.89S472.07,134.87,472.07,123.89Zm30.37,0v-.11c0-5.51-4-10.32-9.83-10.32s-9.67,4.7-9.67,10.21v.11c0,5.52,4,10.33,9.78,10.33S502.44,129.41,502.44,123.89Z"/><path class="cls-1" d="M518.77,104.66H530l9.12,14.81,9.13-14.81h11.2V142.9H548.87v-22l-9.78,15h-.21l-9.73-14.86V142.9H518.77Z"/><path class="cls-1" d="M566.41,104.66h10.65V142.9H566.41Z"/><path class="cls-1" d="M584.05,104.66h9.89l15.73,20.22V104.66h10.49V142.9h-9.29l-16.33-21v21H584.05Z"/><path class="cls-1" d="M625.62,123.89v-.11c0-11.14,8.74-19.88,20.6-19.88a22.27,22.27,0,0,1,15.51,5.57L655.5,117a13.5,13.5,0,0,0-9.23-3.6c-5.52,0-9.78,4.64-9.78,10.49V124c0,6.17,4.32,10.59,10.38,10.59A10.78,10.78,0,0,0,653,133v-4.64h-7.54v-7.76H663v17.21a25.86,25.86,0,0,1-16.6,5.9C634.53,143.67,625.62,135.47,625.62,123.89Z"/><path class="cls-1" d="M681.18,137.22l5.9-7.05a19.66,19.66,0,0,0,12.4,4.59c2.84,0,4.37-1,4.37-2.62V132c0-1.58-1.26-2.46-6.45-3.66-8.14-1.86-14.42-4.15-14.42-12v-.11c0-7.1,5.63-12.23,14.81-12.23,6.5,0,11.58,1.75,15.73,5.08l-5.3,7.48a19.18,19.18,0,0,0-10.71-3.77c-2.56,0-3.82,1.1-3.82,2.46v.11c0,1.75,1.31,2.51,6.61,3.72,8.79,1.91,14.26,4.75,14.26,11.9v.11c0,7.81-6.18,12.46-15.46,12.46A26.69,26.69,0,0,1,681.18,137.22Z"/><path class="cls-1" d="M718.38,123.89v-.11c0-11,8.85-19.88,20.65-19.88s20.54,8.79,20.54,19.77v.11c0,11-8.85,19.89-20.65,19.89S718.38,134.87,718.38,123.89Zm30.37,0v-.11c0-5.51-4-10.32-9.83-10.32s-9.67,4.7-9.67,10.21v.11c0,5.52,4,10.33,9.78,10.33S748.75,129.41,748.75,123.89Z"/><path class="cls-1" d="M763.77,123.89v-.11c0-11,8.85-19.88,20.65-19.88S805,112.69,805,123.67v.11c0,11-8.85,19.89-20.65,19.89S763.77,134.87,763.77,123.89Zm30.38,0v-.11c0-5.51-4-10.32-9.84-10.32s-9.67,4.7-9.67,10.21v.11c0,5.52,4,10.33,9.78,10.33S794.15,129.41,794.15,123.89Z"/><path class="cls-1" d="M810.48,104.66h9.89l15.73,20.22V104.66h10.49V142.9H837.3l-16.33-21v21H810.48Z"/><path class="cls-1" d="M852.32,132.25h10.82V142.9H852.32Z"/><path class="cls-1" d="M867.84,132.25h10.81V142.9H867.84Z"/><path class="cls-1" d="M883.35,132.25h10.82V142.9H883.35Z"/><path class="cls-2" d="M313.5,75.23A11.8,11.8,0,0,1,301.69,87H191.54a11.81,11.81,0,1,1,0-23.61H301.69A11.8,11.8,0,0,1,313.5,75.23Z"/><path class="cls-2" d="M278.25,107.19a11.77,11.77,0,0,0,8.35,3.46H247.79a11.81,11.81,0,1,0,0-23.62H286.6a11.81,11.81,0,0,0-8.35,20.16Z"/><path class="cls-2" d="M369.76,122.46A11.81,11.81,0,0,1,358,134.26H247.79a11.81,11.81,0,0,1,0-23.61H358A11.81,11.81,0,0,1,369.76,122.46Z"/><path class="cls-1" d="M144.17,129.85a10.64,10.64,0,0,1-10.64,10.64H10.64a10.64,10.64,0,0,1,0-21.28H133.53A10.64,10.64,0,0,1,144.17,129.85Z"/><path class="cls-1" d="M112.4,158.66a10.63,10.63,0,0,0,7.52,3.12H85a10.65,10.65,0,1,0,0-21.29h35a10.64,10.64,0,0,0-7.52,18.17Z"/><path class="cls-1" d="M322.59,172.42A10.64,10.64,0,0,1,312,183.06H85a10.64,10.64,0,1,1,0-21.28H312A10.64,10.64,0,0,1,322.59,172.42Z"/><path class="cls-3" d="M250.41,168.12c4,22.32.86,49.8-9.27,81.53l-115.63-6.59.87-29.57,105.08-42.3Z"/><path class="cls-4" d="M241.85,250.69,124.48,244l.92-31.2,105.9-42.6L251.22,167l.17,1c4,22.5.9,50.1-9.3,82Zm-115.31-8.57,113.88,6.48c9.77-30.82,12.85-57.51,9.17-79.34l-17.86,2.89-104.37,42Z"/><path class="cls-2" d="M249.82,174.23C247.7,147.38,245,128,245,128l-21.56-.56-96.14,61.83-1.8,46.81,106.24-56.62Z"/><path class="cls-5" d="M124.44,237.78l1.9-49.07,96.83-62.27,22.72.59.11.84c0,.19,2.72,19.71,4.81,46.28l.07.81-18.76,5.43Zm3.85-47.95-1.72,44.55,104.9-55.88,17.28-5c-1.83-23-4.09-40.55-4.61-44.51l-20.41-.53Z"/><polygon class="cls-6" points="270.29 141.25 249.97 128.3 253.4 121.76 270.73 133.82 270.29 141.25"/><path class="cls-5" d="M270.29,142.25a1,1,0,0,1-.54-.16l-20.32-12.94a1,1,0,0,1-.35-1.31l3.44-6.55a1,1,0,0,1,1.45-.35L271.3,133a1,1,0,0,1,.43.88l-.45,7.43a1,1,0,0,1-.54.83A1,1,0,0,1,270.29,142.25Zm-19-14.3,18.11,11.54.31-5.17-15.94-11.09Z"/><polygon class="cls-2" points="263.54 173.03 273.99 179.47 268.82 139.84 257 131.69 263.54 173.03"/><path class="cls-5" d="M274,180.47a1,1,0,0,1-.52-.15L263,173.88a1,1,0,0,1-.46-.7L256,131.85a1,1,0,0,1,.46-1,1,1,0,0,1,1.1,0L269.39,139a1,1,0,0,1,.42.69L275,179.34a1,1,0,0,1-.44,1A1,1,0,0,1,274,180.47Zm-9.53-8.05,8.27,5.09-4.85-37.09-9.53-6.58Z"/><path class="cls-5" d="M166.48,175.59l3-2.4a.73.73,0,0,1,1.18.58l.21,5a.81.81,0,0,1-.32.68l-3,2.14a.73.73,0,0,1-1.14-.61l-.19-4.73A.84.84,0,0,1,166.48,175.59Z"/><path class="cls-5" d="M177.32,168.11l3-2.4a.73.73,0,0,1,1.18.58l.21,5a.8.8,0,0,1-.32.68l-3,2.14a.72.72,0,0,1-1.14-.61l-.19-4.72A.79.79,0,0,1,177.32,168.11Z"/><path class="cls-5" d="M199.53,156.14l2.95-2.4a.73.73,0,0,1,1.18.58l.21,5a.78.78,0,0,1-.32.67l-3,2.15a.73.73,0,0,1-1.14-.62l-.19-4.72A.8.8,0,0,1,199.53,156.14Z"/><polygon class="cls-5" points="226.65 248.7 224.66 248.53 230.74 179.49 223.66 131.48 225.64 131.19 232.75 179.43 226.65 248.7"/><path class="cls-7" d="M125.51,236.08l73.74-37.74s-14.09,10-17.56,21.09C176.19,237,189,246.17,189,246.17l-63.52-3.11Z"/><path class="cls-8" d="M193.41,182.88s5.73-4.61,4.75-11.72c-2.23-16.07-2.87-17.54,7.59-26l-15.51,7.95Z"/><path class="cls-6" d="M161.92,198.83a8.87,8.87,0,0,1-4.19-1.38,7.24,7.24,0,0,1-3.57-5.93L153.71,180a1.15,1.15,0,0,0-1.77-.89L125.51,196l.49-8.3,26.07-16.79a5.62,5.62,0,0,1,5.74-.1,5.23,5.23,0,0,1,2.74,4.69l.63,16a1.68,1.68,0,0,0,.73.52,1.79,1.79,0,0,0,1.33-.1l18.88-10.56c5.21-2.84,5.93-4.24,6.07-5.78l-2.7-21,0-.29a11.16,11.16,0,0,1,5.07-8.72l31.76-21,22.45-.42L245,131l-20.36.37L194.6,151.16a4.56,4.56,0,0,0-2.06,3.33l2.7,21,0,.3c-.3,5.37-3.87,8.36-9.54,11.45L166.5,197.93A9.26,9.26,0,0,1,161.92,198.83Z"/><path class="cls-5" d="M162.5,199.84c-.22,0-.43,0-.65,0h0a9.94,9.94,0,0,1-4.66-1.53,8.21,8.21,0,0,1-4-6.78L152.71,180l-.77-.93.54.85-28.09,18L125,187.1,151.53,170a6.65,6.65,0,0,1,6.77-.14,6.27,6.27,0,0,1,3.25,5.59l.62,15.55.08,0a.69.69,0,0,0,.58-.06l18.81-10.53c5.15-2.81,5.46-4,5.55-4.88l-2.7-21,0-.38a12.13,12.13,0,0,1,5.52-9.5l32-21.12,23.72-.44.29,8.75-21.08.39L195.16,152a3.56,3.56,0,0,0-1.61,2.49l2.69,20.94,0,.39c-.32,5.83-4.09,9-10.06,12.28L167,198.81A10.33,10.33,0,0,1,162.5,199.84Zm-.52-2a8.56,8.56,0,0,0,4.09-.8l19.12-10.69c5.52-3,8.76-5.71,9-10.64v-.2l-2.7-21,0-.12a5.62,5.62,0,0,1,2.5-4.05l30.3-20L244,130l-.16-4.74-21.17.39-31.52,20.8a10.12,10.12,0,0,0-4.62,7.93v.21l2.7,21v.11c-.19,2-1.29,3.66-6.59,6.56l-18.88,10.55a2.79,2.79,0,0,1-2.15.17,2.57,2.57,0,0,1-1.19-.87l-.18-.25-.64-16.33a4.33,4.33,0,0,0-2.24-3.86,4.63,4.63,0,0,0-4.73.08L127,188.24l-.35,5.83,24.78-15.84a2.16,2.16,0,0,1,2.17-.08,2.06,2.06,0,0,1,1.14,1.77l.45,11.56a6.32,6.32,0,0,0,3.11,5.13,7.89,7.89,0,0,0,3.71,1.22Z"/><path class="cls-9" d="M263,110.18l4.84,1.68s3.95,11.41-8.68,16.24c0,0,10,55.42,1,85.39-7.06,23.56-12.88,25.55-20.08,30.75-2.92,2.12-12.27,4.51-12.27,4.51s25.27-21.36,26.59-40.45.25-76.39-1.45-84.09Z"/><path class="cls-5" d="M227.84,249.75a1,1,0,0,1-.89-.54,1,1,0,0,1,.24-1.22c.25-.21,25-21.32,26.25-39.75,1.29-18.72.32-75.9-1.44-83.82a1,1,0,0,1,.17-.79l10-14a1,1,0,0,1,1.14-.36l4.84,1.67a1,1,0,0,1,.62.62c0,.12,3.95,11.91-8.51,17.2,1.18,7,9.2,57.16.85,85-6.47,21.59-12,25.41-18.38,29.82-.68.48-1.37.95-2.07,1.46-3,2.2-12.22,4.57-12.61,4.67ZM254,124.44c1.72,9.49,2.67,65.44,1.39,83.93-1.06,15.32-16.78,31.7-23.72,38.24,2.81-.87,6.3-2.08,7.82-3.18.71-.52,1.41-1,2.1-1.48,6.09-4.21,11.34-7.84,17.6-28.75,8.81-29.39-.94-84.37-1-84.92a1,1,0,0,1,.62-1.11c10.32-4,8.78-12.45,8.23-14.53l-3.65-1.27Z"/><path class="cls-6" d="M247.6,115.3,263,110.18l.43,3a8.91,8.91,0,0,1-6.36,10l-4.11,1s8.29,46.4,1.64,83.1c-4.93,27.27-29,43-29,43s21.12-26.86,23.76-61.4c2-25.65-3.33-54.9-5.87-66A6.48,6.48,0,0,1,247.6,115.3Z"/><path class="cls-5" d="M225.65,251.34a1,1,0,0,1-.73-.33,1,1,0,0,1-.06-1.29c.21-.27,21-27,23.56-60.86,2.23-29.2-5-62-5.86-65.69a7.5,7.5,0,0,1,4.72-8.81l15.43-5.13a1,1,0,0,1,.84.1,1,1,0,0,1,.46.71l.43,3a9.86,9.86,0,0,1-7.11,11.09l-3.21.81c1.11,6.73,7.57,48.92,1.49,82.54-5,27.37-29.17,43.52-29.41,43.68A.94.94,0,0,1,225.65,251.34Zm22.26-135.09a5.5,5.5,0,0,0-3.4,6.47c.84,3.68,8.16,36.8,5.9,66.29-1.94,25.37-13.91,46.83-20.17,56.48,7.26-6.26,20-19.6,23.4-38.36,6.54-36.09-1.56-82.28-1.64-82.75a1,1,0,0,1,.74-1.14l4.1-1a8,8,0,0,0,5.62-8.87l-.26-1.82Z"/><path class="cls-6" d="M176.18,58.42l-8.44,4.93s46.77,3.2,58,54.66A86.89,86.89,0,0,1,240,118S236.36,64.84,176.18,58.42Z"/><path class="cls-5" d="M225.77,119.08a1.07,1.07,0,0,1-1-.84c-10.95-50-56.6-53.79-57.06-53.82a1.07,1.07,0,0,1-.47-2l8.44-4.94a1.15,1.15,0,0,1,.65-.14c60.38,6.45,64.74,60,64.77,60.58a1.06,1.06,0,0,1-1.18,1.14,87.26,87.26,0,0,0-14,0ZM171,62.71c10.73,1.85,45.77,11.11,55.65,54.16a87.24,87.24,0,0,1,12.18-.05c-1.06-8-9.28-51.44-62.37-57.3Z"/><path class="cls-6" d="M154.67,71.82l8.55-5.26s51.45,8,54.16,54.83l-18.28,9.73S206.44,91,154.67,71.82Z"/><path class="cls-5" d="M199.11,132.19a1.13,1.13,0,0,1-.64-.2,1.09,1.09,0,0,1-.42-1.06c.29-1.6,6.52-39.49-43.75-58.11a1.07,1.07,0,0,1-.69-.9,1.06,1.06,0,0,1,.5-1l8.55-5.27a1.07,1.07,0,0,1,.72-.14c.53.08,52.34,8.66,55.07,55.83a1.08,1.08,0,0,1-.56,1l-18.28,9.73A1.11,1.11,0,0,1,199.11,132.19Zm-42-60.6c43.21,17,43.92,49.16,43.31,57.64l15.88-8.46c-2.94-42.75-48.2-52.23-52.83-53.09Z"/><path class="cls-6" d="M150.9,74.37l-12.06,7.39s42,30.68,30,68.3l24.08-15.95S204.44,99.67,150.9,74.37Z"/><path class="cls-5" d="M168.81,151.13a1.1,1.1,0,0,1-.65-.21,1.07,1.07,0,0,1-.37-1.18c11.69-36.44-29.17-66.82-29.59-67.12a1.07,1.07,0,0,1-.43-.91,1,1,0,0,1,.51-.87l12.06-7.38a1.07,1.07,0,0,1,1-.06c53.78,25.41,42.68,60.69,42.56,61a1.11,1.11,0,0,1-.43.55L169.4,151A1.15,1.15,0,0,1,168.81,151.13Zm-28.1-69.27c6.75,5.41,38.27,32.77,29.92,65.71L192,133.43c1-3.57,7.59-34.63-41-57.85Z"/><path class="cls-6" d="M124.17,90.4l11.62-6.46s36,24.12,25.75,72.32l-24.08,15.5S160.44,118,124.17,90.4Z"/><path class="cls-5" d="M137.46,172.82a1.06,1.06,0,0,1-1-1.48c.22-.54,22.22-53.33-13-80.09a1.08,1.08,0,0,1,.13-1.79L135.27,83a1.06,1.06,0,0,1,1.11,0c.37.25,36.5,25.09,26.21,73.43a1.07,1.07,0,0,1-.47.68L138,172.66A1.1,1.1,0,0,1,137.46,172.82ZM126.1,90.55c29.86,24.15,17.63,66.8,13.5,78.55l21-13.5c9-43.49-20.53-67.19-24.87-70.4Z"/><path class="cls-10" d="M140.9,82.15s38.73,18,40.79,58.16l-11.1,7.33S182.26,116.4,140.9,82.15Z"/><path class="cls-10" d="M126.08,90.58s32.8,22,13.63,78.43l10.19-6.57S161.07,107.36,126.08,90.58Z"/><path class="cls-10" d="M157,71.56s46.6,15.89,43.47,58L209,124.8S206.31,77.49,157,71.56Z"/><path class="cls-10" d="M170.88,62.72s20.24-4,46.86,21.93c0,0,14,16.39,15.84,32l-7,.27s-3.56-18.78-17-33.32C194.32,67,179.4,64.35,170.88,62.72Z"/><path class="cls-2" d="M152,66.59,137.2,53.92S125.27,50.42,115,68.09c-8.75,15-22.57,20.68-37.38,13.39,0,0,23.15,28.85,44.08,2.58C135.33,66.9,152,66.59,152,66.59Z"/><path class="cls-5" d="M102.14,96.1c-14,0-24.88-13.43-25.34-14L74,78.59l4,2c13.87,6.82,27.36,2,36.08-13C124.67,49.45,137,52.81,137.49,53l.2.06,16.9,14.51-2.61,0c-.16,0-16.35.55-29.54,17.11-6,7.56-12.84,11.4-20.26,11.41ZM81.51,84.17c4.12,3.93,11.85,9.93,20.63,9.93h0c6.77,0,13.06-3.6,18.68-10.66,10.88-13.65,23.47-16.87,28.66-17.62l-12.8-11c-1.56-.35-11.74-1.95-20.9,13.76C107.43,83,94.84,88.6,81.51,84.17Z"/><path class="cls-3" d="M263.93,173l10.46,6.44s3.29,64.91-48,70.87C226.34,250.34,264.6,239.34,263.93,173Z"/><path class="cls-4" d="M226.45,251.33l-.39-2c.37-.11,37.53-11.65,36.87-76.34v-1.81l12.44,7.66,0,.53C275.42,180.07,278.13,245.33,226.45,251.33Zm38.49-76.51c0,47.67-20.6,66.55-31.59,73.23,40.29-10.16,40.19-62.22,40-68Z"/><path class="cls-11" d="M156.89,15.2l-2.57-3a.82.82,0,0,0-.72-.29l-3.93.4a.86.86,0,0,1-.81-1.29L151,7.65a.83.83,0,0,0,.05-.78l-1.59-3.62a.84.84,0,0,1,1-1.16l3.84.94a.83.83,0,0,0,.76-.18l3-2.64a.84.84,0,0,1,1.4.57l.29,4a.85.85,0,0,0,.42.65l3.42,2a.84.84,0,0,1-.11,1.5l-3.66,1.5a.84.84,0,0,0-.5.6l-.84,3.86A.83.83,0,0,1,156.89,15.2Z"/><path class="cls-11" d="M77.86,167.51l-3.07-3.61a1,1,0,0,0-.86-.35l-4.72.48a1,1,0,0,1-1-1.54l2.49-4a1,1,0,0,0,.07-.94l-1.9-4.34a1,1,0,0,1,1.16-1.39l4.6,1.13a1,1,0,0,0,.91-.22l3.54-3.16a1,1,0,0,1,1.68.68l.35,4.72a1,1,0,0,0,.5.8l4.1,2.39a1,1,0,0,1-.13,1.8l-4.39,1.8a1,1,0,0,0-.61.72l-1,4.64A1,1,0,0,1,77.86,167.51Z"/><path class="cls-11" d="M281.25,75.3l-1.87-2.21a.61.61,0,0,0-.53-.21l-2.88.29a.62.62,0,0,1-.58-.94l1.52-2.46a.61.61,0,0,0,0-.57l-1.16-2.65a.6.6,0,0,1,.7-.83l2.81.68a.64.64,0,0,0,.56-.14L282,64.33a.61.61,0,0,1,1,.41l.21,2.89a.63.63,0,0,0,.31.49l2.49,1.46a.61.61,0,0,1-.07,1.09l-2.68,1.1a.6.6,0,0,0-.37.44L282.32,75A.62.62,0,0,1,281.25,75.3Z"/><path class="cls-11" d="M302,150.48l-3.06-3.62a1,1,0,0,0-.87-.35l-4.72.48a1,1,0,0,1-1-1.54l2.5-4a1,1,0,0,0,.06-.93L293,136.16a1,1,0,0,1,1.16-1.39l4.61,1.12a1,1,0,0,0,.9-.23l3.54-3.14a1,1,0,0,1,1.68.66l.36,4.74a1,1,0,0,0,.49.79l4.09,2.38a1,1,0,0,1-.12,1.81l-4.39,1.8a1,1,0,0,0-.6.72l-1,4.63A1,1,0,0,1,302,150.48Z"/><path class="cls-11" d="M198.1,22.52c-.56,1.89-1.57,4.08-3.41,5.17a.79.79,0,0,0,0,1.42c1.84,1.1,2.85,3.27,3.41,5.17a.68.68,0,0,0,1.25,0c.55-1.9,1.57-4.07,3.41-5.17a.8.8,0,0,0,0-1.42c-1.84-1.09-2.86-3.28-3.41-5.17A.68.68,0,0,0,198.1,22.52Z"/><path class="cls-11" d="M67.38,78.05c-.63,2.17-1.79,4.67-3.91,5.92a.9.9,0,0,0,0,1.62c2.12,1.26,3.28,3.76,3.91,5.93a.79.79,0,0,0,1.44,0c.63-2.17,1.79-4.67,3.91-5.93a.9.9,0,0,0,0-1.62c-2.12-1.25-3.28-3.75-3.91-5.92A.78.78,0,0,0,67.38,78.05Z"/><path class="cls-11" d="M47.55,109.8C47,111.69,46,113.87,44.14,115a.79.79,0,0,0,0,1.41c1.85,1.09,2.86,3.27,3.41,5.16a.68.68,0,0,0,1.25,0c.55-1.89,1.57-4.07,3.41-5.16a.79.79,0,0,0,0-1.41c-1.84-1.1-2.86-3.28-3.41-5.17A.68.68,0,0,0,47.55,109.8Z"/><path class="cls-12" d="M243.25,30.94a15.46,15.46,0,0,0-12.39,6.19,10.36,10.36,0,1,1,4.52,19.67,10.21,10.21,0,0,1-4.52-1,15.51,15.51,0,1,0,12.39-24.82Z"/><path class="cls-13" d="M369.33,226c0-14.08-14.15-25.49-31.6-25.49-12.35,0-23,5.71-28.24,14a35.24,35.24,0,0,0-21.27-6.8,36.45,36.45,0,0,0-16.71,3.93c-5.33-5.3-13.47-8.69-22.59-8.69-13.44,0-24.76,7.37-28.08,17.37a35.07,35.07,0,0,0-31,.57c-1.85-11.52-13.23-20.81-28-20.4-12.18.34-19.06,6.27-24,14.52-2.87-2.15-7.32-5.74-14.48-5.38-7.94.39-11.65,3.13-17.29,8.25C101.92,206.26,88.15,196,72.35,196,53.22,196,37.71,208.55,37.71,224v36.29H369.33Z"/><path class="cls-13" d="M385.22,241.26c0-10.5-7.11-19-15.89-19H37.71c-8.77,0-15.88,8.51-15.88,19h0c0,10.49,7.11,19,15.88,19H369.33c8.78,0,15.89-8.51,15.89-19Z"/></g></g></svg>