<svg xmlns="http://www.w3.org/2000/svg" viewBox="0 0 314.96 303.06"><defs><style>.cls-1{fill:#f6b42c;}.cls-2{fill:#164377;}</style></defs><title>Asset 18</title><g id="Layer_2" data-name="Layer 2"><g id="圖層_1" data-name="圖層 1"><path class="cls-1" d="M168.6,0a146.37,146.37,0,0,0-119,231.56L0,303.06,95.12,273A146.36,146.36,0,1,0,168.6,0Z"/><path class="cls-2" d="M88.65,166a21.38,21.38,0,0,1-7.82-1.41,19.13,19.13,0,0,1-6.43-4.14,18.83,18.83,0,0,1-4.42-7,27.15,27.15,0,0,1-1.61-9.6A26.21,26.21,0,0,1,70,134.28a19.58,19.58,0,0,1,11.1-11.52A20.37,20.37,0,0,1,89,121.23a17.69,17.69,0,0,1,10.53,3.45,2.84,2.84,0,0,1,1.25,2.49,3.59,3.59,0,0,1-.8,2.27l-1.24,1.42a3.18,3.18,0,0,1-2.21,1.19h-.4a3.84,3.84,0,0,1-2.15-.63,9.27,9.27,0,0,0-4.81-1.36,8.92,8.92,0,0,0-7.23,3.66Q79,137.37,79,143.49q0,6.39,2.69,10A8.68,8.68,0,0,0,89,157.08a10.13,10.13,0,0,0,5.72-1.81,3.76,3.76,0,0,1,2.21-.68h.23a3.19,3.19,0,0,1,2.21,1.08l1.19,1.41a3.63,3.63,0,0,1,.85,2.38,3.1,3.1,0,0,1-1.14,2.49A17.86,17.86,0,0,1,88.65,166Z"/><path class="cls-2" d="M115.28,165.18a3.38,3.38,0,0,1-3.34-3.34V125.36a3.38,3.38,0,0,1,3.34-3.34H119a3.19,3.19,0,0,1,2.38,1,3.27,3.27,0,0,1,1,2.35v30.7c0,.27.15.4.45.4h13a3.17,3.17,0,0,1,2.37,1,3.23,3.23,0,0,1,1,2.35v2a3.23,3.23,0,0,1-1,2.35,3.17,3.17,0,0,1-2.37,1Z"/><path class="cls-2" d="M152.79,165.18a3.38,3.38,0,0,1-3.35-3.34V125.36a3.38,3.38,0,0,1,3.35-3.34h3.68a3.21,3.21,0,0,1,2.38,1,3.27,3.27,0,0,1,1,2.35v36.48a3.26,3.26,0,0,1-1,2.35,3.21,3.21,0,0,1-2.38,1Z"/><path class="cls-2" d="M190.92,166a21.38,21.38,0,0,1-7.82-1.41,19.13,19.13,0,0,1-6.43-4.14,18.83,18.83,0,0,1-4.42-7,27.15,27.15,0,0,1-1.61-9.6,26.42,26.42,0,0,1,1.67-9.55,19.58,19.58,0,0,1,11.1-11.52,20.37,20.37,0,0,1,7.85-1.53,17.69,17.69,0,0,1,10.53,3.45,2.84,2.84,0,0,1,1.25,2.49,3.59,3.59,0,0,1-.8,2.27L201,130.86a3.18,3.18,0,0,1-2.21,1.19h-.4a3.84,3.84,0,0,1-2.15-.63,9.27,9.27,0,0,0-4.81-1.36,8.92,8.92,0,0,0-7.23,3.66q-2.91,3.65-2.91,9.77,0,6.39,2.69,10a8.68,8.68,0,0,0,7.33,3.59,10.13,10.13,0,0,0,5.72-1.81,3.76,3.76,0,0,1,2.21-.68h.23a3.17,3.17,0,0,1,2.21,1.08l1.19,1.41a3.63,3.63,0,0,1,.85,2.38,3.1,3.1,0,0,1-1.14,2.49A17.86,17.86,0,0,1,190.92,166Z"/><path class="cls-2" d="M217.55,165.18a3.38,3.38,0,0,1-3.34-3.34V125.36a3.38,3.38,0,0,1,3.34-3.34h3.68a3.19,3.19,0,0,1,2.38,1,3.27,3.27,0,0,1,1,2.35V139s0,.06.09.06a.2.2,0,0,0,.14-.06l10.25-14.27a6.12,6.12,0,0,1,5.27-2.72H245a1.64,1.64,0,0,1,1.53.91,2,2,0,0,1,.17.79,1.61,1.61,0,0,1-.34,1L235.56,139a.65.65,0,0,0,0,.73l13.54,22.6a2.07,2.07,0,0,1,.28,1,1.69,1.69,0,0,1-.28.91,1.73,1.73,0,0,1-1.65,1h-4.64a5.72,5.72,0,0,1-5-2.89l-8.27-14.44c0-.08-.11-.11-.23-.11s-.19,0-.22.11l-4.2,5.66a1.26,1.26,0,0,0-.28.8v7.53a3.26,3.26,0,0,1-1,2.35,3.19,3.19,0,0,1-2.38,1Z"/><path class="cls-2" d="M287,164.08a7.63,7.63,0,0,1-9.8,0,5.91,5.91,0,0,1-2-4.56,6,6,0,0,1,2-4.56,7.44,7.44,0,0,1,9.8,0,6,6,0,0,1,2,4.56A5.91,5.91,0,0,1,287,164.08Zm-5.13-14.31a3.79,3.79,0,0,1-3.79-3.34l-1.93-15-.22-6.28a3.1,3.1,0,0,1,.87-2.35,3.06,3.06,0,0,1,2.3-1h6.06a3,3,0,0,1,2.29,1,3.28,3.28,0,0,1,.94,2.35l-.29,6.28-1.92,15a3.69,3.69,0,0,1-1.25,2.38,3.64,3.64,0,0,1-2.49,1Z"/></g></g></svg>