<svg id="Layer_1" data-name="Layer 1" xmlns="http://www.w3.org/2000/svg" viewBox="0 0 78.91 121.24"><defs><style>.cls-1{fill:none;stroke:#f6b42c;stroke-miterlimit:10;stroke-width:4.59px;}.cls-2{fill:#f6b42c;}.cls-3{fill:#fff;}</style></defs><title>Artboard 1line</title><path class="cls-1" d="M58.18,72.85,41.41,64.09a4,4,0,0,0-3.74,0L21,73a4,4,0,0,1-5.84-4.22L18.3,50.13a4,4,0,0,0-1.16-3.55L3.52,33.36A4,4,0,0,1,5.73,26.5l18.71-2.77a4,4,0,0,0,3-2.2l8.32-17A4,4,0,0,1,41.1,2.66,4,4,0,0,1,43,4.53L51.4,21.46a4,4,0,0,0,3,2.19l18.73,2.67a4,4,0,0,1,2.24,6.85L61.89,46.41A4,4,0,0,0,60.75,50L64,68.6a4,4,0,0,1-5.82,4.25Z"/><path class="cls-2" d="M33.31,38.74c0,2.84-1.16,5.14-2.58,5.14s-2.59-2.3-2.59-5.14,1.16-5.14,2.59-5.14S33.31,35.9,33.31,38.74Z"/><path class="cls-2" d="M52.08,38.74c0,2.84-1.15,5.14-2.58,5.14s-2.59-2.3-2.59-5.14,1.16-5.14,2.59-5.14S52.08,35.9,52.08,38.74Z"/><path class="cls-3" d="M21.62,116.43a.73.73,0,0,1-.21.52.75.75,0,0,1-.53.22H17.52a.11.11,0,0,0-.12.1h0a3.86,3.86,0,0,1-1,1.85v.1a10.76,10.76,0,0,0,2.45.56c.93.11,2,.18,3.35.21a.34.34,0,0,1,.31.19.35.35,0,0,1,0,.2.49.49,0,0,1,0,.17,1,1,0,0,1-.34.44.75.75,0,0,1-.45.16h0a31.39,31.39,0,0,1-3.63-.34,9.85,9.85,0,0,1-2.66-.8.22.22,0,0,0-.16,0,10.23,10.23,0,0,1-2.87,1.11h-.19a1,1,0,0,1-.34-.06,1.15,1.15,0,0,1-.43-.36.4.4,0,0,1-.05-.38.41.41,0,0,1,.29-.25,10.67,10.67,0,0,0,2.46-.78h0a5.89,5.89,0,0,1-1.09-1.14.38.38,0,0,1-.09-.25v-.12a.46.46,0,0,1,.27-.29.61.61,0,0,1,.27,0h.2a.93.93,0,0,1,.39.26,5.13,5.13,0,0,0,1,.92.12.12,0,0,0,.16,0,3.06,3.06,0,0,0,.8-1.31h0a0,0,0,0,0-.05,0H13.2a.75.75,0,0,1-.53-.22.73.73,0,0,1-.21-.52V113a.74.74,0,0,1,.21-.53.7.7,0,0,1,.53-.21h3.06s.08,0,.08-.1v-.73c0-.06,0-.1-.08-.1H11.87a.51.51,0,0,1-.54-.48v-.06a.54.54,0,0,1,.15-.38.55.55,0,0,1,.39-.16h10a.55.55,0,0,1,.54.54.55.55,0,0,1-.16.39.54.54,0,0,1-.38.15h-4.2a.09.09,0,0,0-.1.08V112c0,.07,0,.1.1.1h3.19a.72.72,0,0,1,.74.7v0Zm-8-3.34a.08.08,0,0,0-.09.07v.92c0,.07,0,.1.09.1h2.59s.08,0,.08-.1v-.9c0-.06,0-.09-.08-.09Zm-.09,3a.08.08,0,0,0,.07.09h2.57a.1.1,0,0,0,.11-.09h0v-.9c0-.07,0-.1-.08-.1H13.67c-.06,0-.09,0-.09.1Zm6.77.09c.06,0,.1,0,.1-.09v-.9a.09.09,0,0,0-.08-.1H17.69c-.07,0-.1,0-.1.1v.9c0,.12,0,.09.09.09Zm.1-3c0-.06,0-.09-.1-.09H17.69c-.07,0-.1,0-.1.09v.9c0,.07,0,.1.1.1h2.66a.09.09,0,0,0,.1-.08v0Z"/><path class="cls-3" d="M33.85,110.47a.44.44,0,0,1,.32,0l.23.14a.43.43,0,0,1,.21.28.4.4,0,0,1,0,.34A8.33,8.33,0,0,1,33.08,113a11.69,11.69,0,0,1-2,1.42,16.13,16.13,0,0,1-2.2,1,19.65,19.65,0,0,1-2.37.73h-.16a.68.68,0,0,1-.31-.08.82.82,0,0,1-.34-.35.36.36,0,0,1-.06-.2.22.22,0,0,1,0-.16.4.4,0,0,1,.27-.24,15.63,15.63,0,0,0,3.93-1.35c.06,0,.06-.06,0-.1A10.34,10.34,0,0,0,28,112.46a.25.25,0,0,0-.17,0c-.32.18-.66.34-1,.49a.82.82,0,0,1-.49,0,.92.92,0,0,1-.42-.28.36.36,0,0,1-.09-.34.34.34,0,0,1,.22-.27,10.8,10.8,0,0,0,3.74-2.27,1.21,1.21,0,0,1,.85-.39.61.61,0,0,1,.27,0,.37.37,0,0,1,.29.26.29.29,0,0,1,0,.13.36.36,0,0,1-.11.25,1.89,1.89,0,0,0-.2.2h2.89ZM35.6,115a.43.43,0,0,1,.35,0l.24.13a.47.47,0,0,1,.23.27.43.43,0,0,1,0,.16.67.67,0,0,1,0,.2,8.15,8.15,0,0,1-1.52,2.12,8,8,0,0,1-2.1,1.56,14.68,14.68,0,0,1-2.47,1,19.46,19.46,0,0,1-2.81.67H27.4A.65.65,0,0,1,27,121a.81.81,0,0,1-.33-.38.41.41,0,0,1-.05-.19.46.46,0,0,1,.05-.2A.36.36,0,0,1,27,120a15.16,15.16,0,0,0,4.66-1.32c.06,0,.06,0,0-.1a12.69,12.69,0,0,0-2.06-1.44.19.19,0,0,0-.18,0c-.44.21-.89.4-1.35.58a.7.7,0,0,1-.25,0,.89.89,0,0,1-.23,0,.9.9,0,0,1-.4-.29.39.39,0,0,1-.07-.36.37.37,0,0,1,.24-.27,11.64,11.64,0,0,0,4.51-2.62,1.21,1.21,0,0,1,.84-.37H33a.41.41,0,0,1,.3.28v.12a.33.33,0,0,1-.11.25l-.34.34H35.6ZM33,111.55H29.57a5.5,5.5,0,0,1-.5.34.06.06,0,0,0,0,.06h0A12,12,0,0,1,31,113.16a.11.11,0,0,0,.15,0A8.12,8.12,0,0,0,33,111.55Zm1.87,4.55H31.45c-.25.18-.5.34-.75.49a.06.06,0,0,0,0,.06h0a13.17,13.17,0,0,1,2.06,1.41.11.11,0,0,0,.15,0,7,7,0,0,0,1.94-2Z"/><path class="cls-3" d="M42.46,112.19h.11a.4.4,0,0,1,.23.08.37.37,0,0,1,.17.29.54.54,0,0,1-.08.37.49.49,0,0,1-.31.24c-.35.12-1.1.35-2.25.7h-.19a.67.67,0,0,1-.28-.06.66.66,0,0,1-.33-.33.61.61,0,0,1,0-.19.37.37,0,0,1,0-.21.4.4,0,0,1,.31-.24C40.4,112.73,41.27,112.5,42.46,112.19Zm.12,7.27a1.43,1.43,0,0,1,.58-.12,1.12,1.12,0,0,1,.51.11.33.33,0,0,1,.18.26.26.26,0,0,1-.15.28,18.53,18.53,0,0,1-2.81,1.13h-.55a1,1,0,0,1-.49-.29.29.29,0,0,1-.1-.23v-.1a.29.29,0,0,1,.25-.22A15.48,15.48,0,0,0,42.58,119.46Zm.05-9a.46.46,0,0,1,.27.29v.14a.4.4,0,0,1-.07.24.54.54,0,0,1-.33.26h-.16a.43.43,0,0,1-.25-.07c-.53-.23-1.11-.45-1.75-.66a.39.39,0,0,1-.24-.23.36.36,0,0,1,0-.32.67.67,0,0,1,.33-.27.81.81,0,0,1,.22,0,.54.54,0,0,1,.18,0q.91.25,1.8.6Zm3.53.87a.06.06,0,0,0,0-.06H45.09a.22.22,0,0,0-.15.08,6.25,6.25,0,0,1-.61.65.63.63,0,0,1-.41.15.76.76,0,0,1-.43-.14.36.36,0,0,1-.18-.28.39.39,0,0,1,.13-.3A5.14,5.14,0,0,0,44.68,110a.81.81,0,0,1,.34-.32.63.63,0,0,1,.33-.09h.12a.36.36,0,0,1,.29.21.38.38,0,0,1,0,.36.86.86,0,0,0-.1.16.06.06,0,0,0,0,.06h4a.62.62,0,0,1,.33,0l.24.06a.29.29,0,0,1,.21.18.34.34,0,0,1,0,.28,7.51,7.51,0,0,1-.73,1.13.61.61,0,0,1-.36.23h-.43a.32.32,0,0,1-.21-.23.34.34,0,0,1,0-.31c.08-.11.18-.25.28-.41h-1.5a.06.06,0,0,0-.06,0v.06a2.16,2.16,0,0,0,.44.78,2.74,2.74,0,0,0,.93.65,6.61,6.61,0,0,0,1.64.49.33.33,0,0,1,.26.21v.14a.46.46,0,0,1-.05.2,1,1,0,0,1-.36.34.71.71,0,0,1-.32.07h-.15l-.34-.09s-.08,0-.08.08v4.26a.73.73,0,0,1-.22.52.71.71,0,0,1-.52.22h-6.9a.75.75,0,0,1-.74-.74v-3.69a.71.71,0,0,1,.22-.52.73.73,0,0,1,.52-.22h1.75V114a.48.48,0,0,1-.07-.26.61.61,0,0,1,0-.19.41.41,0,0,1,.32-.29,4.06,4.06,0,0,0,1.6-.68,2.19,2.19,0,0,0,.8-1.24Zm2,4.17c.07,0,.1,0,.1-.08v-.54c0-.06,0-.09-.1-.09H42.28a.08.08,0,0,0-.09.07v.56c0,.06,0,.08.09.08Zm0,1.46c.07,0,.1,0,.1-.1v-.54c0-.07,0-.1-.1-.1H42.28c-.06,0-.09,0-.09.1v.54c0,.07,0,.1.09.1Zm0,1.48c.07,0,.1,0,.1-.1v-.55c0-.07,0-.1-.1-.1H42.28c-.06,0-.09,0-.09.1v.55c0,.07,0,.1.09.1Zm-4-4.43h5A3.88,3.88,0,0,1,47,112.44H46.9A4.33,4.33,0,0,1,44.08,114Zm2.52,6a.27.27,0,0,1-.19-.28.24.24,0,0,1,.14-.23,1.09,1.09,0,0,1,.61-.18,1.23,1.23,0,0,1,.42.07c1,.34,1.85.68,2.62,1a.3.3,0,0,1,.19.29.28.28,0,0,1-.21.29h0a1.58,1.58,0,0,1-.61.12,1.71,1.71,0,0,1-.74-.17c-.75-.28-1.49-.59-2.31-.92Z"/><path class="cls-3" d="M57.67,111.58a.47.47,0,0,1,.33.14.47.47,0,0,1,0,.67.41.41,0,0,1-.33.15H53.83a.43.43,0,0,1-.34-.15.48.48,0,0,1-.14-.34.47.47,0,0,1,.14-.33.48.48,0,0,1,.34-.14Zm.78-.57-.17-.17v-.23a.56.56,0,0,1,.17-.4.58.58,0,0,1,.41-.17h4.29a.69.69,0,0,1,.51.21.73.73,0,0,1,.21.52v3.39c0,1.08,0,2,.07,2.89a13.45,13.45,0,0,0,.22,2q.16.78.42.84c.25.06.07-.11.1-.36a7.47,7.47,0,0,0,.09-.94.17.17,0,0,1,.15-.17.16.16,0,0,1,.2.07,1.49,1.49,0,0,1,.33.88v.15A2.85,2.85,0,0,1,65,121a.71.71,0,0,1-.49.21,1,1,0,0,1-.38-.07,1.05,1.05,0,0,1-.46-.35,2.58,2.58,0,0,1-.35-.68,5.61,5.61,0,0,1-.24-1c-.07-.37-.12-.78-.17-1.22s-.07-.92-.1-1.43,0-1,0-1.61v-3.65c0-.06,0-.1-.09-.1H61a.09.09,0,0,0-.1.08v3a.09.09,0,0,0,.08.1h.8a.54.54,0,0,1,.4.17.52.52,0,0,1,.17.39.54.54,0,0,1-.17.4.5.5,0,0,1-.4.16H60.9c-.06,0-.09,0-.1.1a8.73,8.73,0,0,1-1.8,5.22.63.63,0,0,1-.48.21h0a.86.86,0,0,1-.53-.21,1.43,1.43,0,0,0-.23-.2H54.94a.5.5,0,0,1-.14.35.48.48,0,0,1-.34.14h0a.51.51,0,0,1-.51-.51h0v-3.06a.67.67,0,0,1,.22-.53.73.73,0,0,1,.52-.21H57a.73.73,0,0,1,.52.21.75.75,0,0,1,.22.53v2.72h0a7.54,7.54,0,0,0,1.88-4.7c0-.07,0-.1-.09-.1h-.88a.47.47,0,0,1-.38-.16.54.54,0,0,1-.17-.4.52.52,0,0,1,.17-.39.5.5,0,0,1,.38-.17h.93c.07,0,.1,0,.1-.1v-3a.09.09,0,0,0-.08-.1h-.78a.52.52,0,0,1-.37,0Zm-1.21,2.32a.47.47,0,0,1,.33.14.42.42,0,0,1,.13.32.46.46,0,0,1-.13.33.47.47,0,0,1-.33.14H54.4a.43.43,0,0,1-.32-.14.47.47,0,0,1-.14-.33.48.48,0,0,1,.46-.46ZM54.4,116a.42.42,0,0,1-.32-.13.48.48,0,0,1-.14-.34.47.47,0,0,1,.14-.33.43.43,0,0,1,.32-.14h2.84a.47.47,0,0,1,.33.14.46.46,0,0,1,.13.33.47.47,0,0,1-.13.34.51.51,0,0,1-.33.13Zm2.81-6.08a.48.48,0,0,1,.47.47.5.5,0,0,1-.14.33.46.46,0,0,1-.33.13H54.47a.47.47,0,0,1-.48-.44.46.46,0,0,1,.14-.35.48.48,0,0,1,.34-.14Zm-.61,9.7c.06,0,.09,0,.09-.1v-1.66c0-.07,0-.1-.09-.1H55s-.08,0-.08.1v1.66c0,.06,0,.1.08.1Z"/></svg>