<svg xmlns="http://www.w3.org/2000/svg" viewBox="0 0 730.53 692.12"><defs><style>.cls-1,.cls-5{fill:#ea6143;stroke:#153365;}.cls-1,.cls-10,.cls-2,.cls-5,.cls-7{stroke-miterlimit:10;}.cls-1{stroke-width:1.33px;}.cls-2,.cls-4{fill:#41bcd7;}.cls-10,.cls-11,.cls-2,.cls-3,.cls-4,.cls-7{stroke:#0d2957;}.cls-10,.cls-11,.cls-2,.cls-3,.cls-4,.cls-5,.cls-7{stroke-width:2.86px;}.cls-10,.cls-3{fill:#fff;}.cls-11,.cls-3,.cls-4{stroke-linejoin:round;}.cls-4{stroke-linecap:round;}.cls-6{fill:#0d2957;}.cls-7{fill:none;}.cls-8{fill:#ca5245;}.cls-9{fill:#48a1bb;}.cls-11{fill:#c8c9ca;}.cls-12{fill:#eeeeef;}</style></defs><title>Asset 7line</title><g id="Layer_2" data-name="Layer 2"><g id="Layer_3" data-name="Layer 3"><path class="cls-1" d="M639.48,391.84c18.13,79.3,11.65,178.29-19.23,293.71l-382.5-7.22.51-106.26,333.86-166Z"/><path class="cls-2" d="M638.4,413.83C626.22,318,613.27,249,613.27,249l-77.36,1.69L202,488.75l1.55,168,371-221.1Z"/><polygon class="cls-3" points="706.11 292.15 631.06 249.25 642.25 225.2 706.41 265.47 706.11 292.15"/><polygon class="cls-4" points="687.37 407.17 725.93 428.45 700.59 287.37 656.85 260.18 687.37 407.17"/><path class="cls-5" d="M687.37,407.17l38.56,21.28s30.79,153.25-99.67,229.7C626.26,658.15,706.4,619.64,687.37,407.17Z"/><path class="cls-6" d="M340,433l10.16-9.13a2.61,2.61,0,0,1,4.32,1.88l1.59,17.84a2.79,2.79,0,0,1-1,2.48l-10.28,8.18a2.61,2.61,0,0,1-4.19-2l-1.49-16.89A2.84,2.84,0,0,1,340,433Z"/><path class="cls-6" d="M377.6,404.34l10.16-9.12a2.61,2.61,0,0,1,4.32,1.87l1.59,17.85a2.86,2.86,0,0,1-1,2.48l-10.28,8.18a2.62,2.62,0,0,1-4.2-2l-1.48-16.9A2.86,2.86,0,0,1,377.6,404.34Z"/><path class="cls-6" d="M455.14,357.65l10.15-9.13a2.61,2.61,0,0,1,4.32,1.89l1.6,17.83a2.88,2.88,0,0,1-1,2.49l-10.28,8.18a2.62,2.62,0,0,1-4.19-2L454.23,360A2.78,2.78,0,0,1,455.14,357.65Z"/><polyline class="cls-7" points="540.89 264.44 574.55 435.68 564.33 600.52"/><path class="cls-8" d="M372.54,564.67l88.81-55.76s-36,30.48-43.72,71.55c-8.79,46.53-2.74,79.4,6.44,101.39-36.8,0-186.32-3.52-186.32-3.52l.14-29.1Z"/><path class="cls-9" d="M437.77,454.48s19.75-17.47,15-42.78c-10.74-57.2-13.29-62.34,22.73-94.65L421.3,348.2Z"/><path class="cls-10" d="M327.66,517a31.82,31.82,0,0,1-15.23-4.22c-8.23-4.73-13.57-12.75-13.8-20.62L295,450.84a4.13,4.13,0,0,0-6.5-2.86l-91.81,65.08.34-29.84,90.53-64.61a20.2,20.2,0,0,1,20.56-1.37,18.86,18.86,0,0,1,10.63,16.34l5,57.33a5.85,5.85,0,0,0,2.7,1.74,6.25,6.25,0,0,0,4.72-.57L397.08,451c18.15-11.06,20.51-16.21,20.76-21.72l-13.28-74.75v-1.07a39.89,39.89,0,0,1,16.68-32.09l110.21-80.54,80.35-5.34,2,24.13-72.88,4.84-104.27,76.2a16.46,16.46,0,0,0-6.83,12.26l13.26,74.7v1.08c-.15,19.28-12.44,30.63-32.22,42.67l-66.9,41.71A33.1,33.1,0,0,1,327.66,517Z"/><path class="cls-11" d="M674.75,182.06l17.63,5.19S708.49,227.47,664,247c0,0,45.31,196.85,18.27,305.77-21.25,85.66-41.78,93.78-66.66,113.63-10.14,8.1-43.22,18.28-43.22,18.28s86.91-80.88,88.37-149.49-12.21-273.78-19.64-301.08Z"/><path class="cls-3" d="M620.35,203.08l54.4-21,2,10.73c3.08,16.28-6.07,32.29-21.08,36.85l-14.54,4.42s37.66,164.85,20.15,297.49c-13,98.56-96.44,159.15-96.44,159.15s71-99.88,74.61-224.1c2.65-92.25-21.36-196.12-32.37-235.47C603.85,219.49,609.63,207.21,620.35,203.08Z"/><path class="cls-3" d="M354.7,11.48,325.3,30.61S493.43,34,542.61,216.5c0,0,28-3.81,51-2.44C593.59,214.06,571.45,24.19,354.7,11.48Z"/><path class="cls-3" d="M279.93,63.19l29.72-20.32S495.39,62.64,513.13,230.08l-63.83,38S468.7,123,279.93,63.19Z"/><path class="cls-3" d="M266.84,73l-42,28.52S380.77,204.27,344,341.13l83.58-61.31S463,154.44,266.84,73Z"/><path class="cls-3" d="M173.83,135l40.51-25.14S347.51,190.12,319,364.59l-83.63,59.65S308.5,227.62,173.83,135Z"/><path class="cls-12" d="M232.36,102.55S374.19,160.36,388.46,304L350,332.14S386.44,218.2,232.36,102.55Z"/><path class="cls-12" d="M180.68,135.3S302,208.4,243,414l35.38-25.28S308.93,189.43,180.68,135.3Z"/><path class="cls-12" d="M288.21,61.88s169.72,48.93,165.73,200.43l29.79-18.61S465.92,74.64,288.21,61.88Z"/><path class="cls-12" d="M336.43,27.81S408.28,10,508.09,98.37c0,0,52.92,56.32,62.26,111.77l-24.91,2.18S529.5,145.65,478.81,95.83C421.17,39.16,367.24,32.18,336.43,27.81Z"/><path class="cls-2" d="M269.3,44.91l-55-42.86S170.88-8.45,137,56.65C108.22,111.93,59.66,134.6,5.33,111c0,0,87.92,99.4,158.39,1.71C209.77,48.89,269.3,44.91,269.3,44.91Z"/></g></g></svg>