<svg xmlns="http://www.w3.org/2000/svg" viewBox="0 0 29.03 27.78"><defs><style>.cls-1{fill:#f6b42c;}</style></defs><title>icon_star</title><g id="Layer_2" data-name="Layer 2"><g id="圖層_1" data-name="圖層 1"><path class="cls-1" d="M21.83,27.56l-6.55-3.42a1.57,1.57,0,0,0-1.46,0L7.29,27.6A1.57,1.57,0,0,1,5,26l1.23-7.29a1.59,1.59,0,0,0-.46-1.38L.48,12.13a1.56,1.56,0,0,1,.86-2.67L8.65,8.37a1.55,1.55,0,0,0,1.18-.86L13.08.88a1.57,1.57,0,0,1,2.81,0l3.29,6.62a1.56,1.56,0,0,0,1.18.85l7.32,1.05a1.57,1.57,0,0,1,.88,2.67l-5.28,5.17a1.56,1.56,0,0,0-.45,1.39L24.1,25.9A1.57,1.57,0,0,1,21.83,27.56Z"/></g></g></svg>