<svg xmlns="http://www.w3.org/2000/svg" viewBox="0 0 47.16 47.14"><defs><style>.cls-1{fill:#fff;}.cls-2{fill:#395195;}</style></defs><title>icon_facebook</title><g id="Layer_2" data-name="Layer 2"><g id="圖層_1" data-name="圖層 1"><path class="cls-1" d="M23.57,0A23.57,23.57,0,1,0,47.16,23.57,23.57,23.57,0,0,0,23.57,0"/><path class="cls-2" d="M23.57,0A23.57,23.57,0,1,0,47.16,23.57,23.57,23.57,0,0,0,23.57,0m6.8,12.7a12.78,12.78,0,0,0-2.73-.33,2.42,2.42,0,0,0-1.85.61,3.42,3.42,0,0,0-.55,2.32v1.57h4.44v4.69H25.24V39.34h-6V21.56H16V16.87h3.3V15.19A11.14,11.14,0,0,1,19.88,11a4.66,4.66,0,0,1,2.23-2.27,8.32,8.32,0,0,1,4.09-.88,16.5,16.5,0,0,1,5,.75Z"/></g></g></svg>