<svg xmlns="http://www.w3.org/2000/svg" viewBox="0 0 47.14 47.14"><defs><style>.cls-1{fill:#fff;}.cls-2{fill:#5db430;}</style></defs><title>icon_line</title><g id="Layer_2" data-name="Layer 2"><g id="圖層_1" data-name="圖層 1"><path class="cls-1" d="M23.57,0A23.57,23.57,0,1,0,47.14,23.57,23.59,23.59,0,0,0,23.57,0"/><path class="cls-2" d="M23.57,0A23.57,23.57,0,1,0,47.14,23.57,23.59,23.59,0,0,0,23.57,0m-9.8,29.44a.53.53,0,0,1-.59.58H5.6A.53.53,0,0,1,5,29.44V17.71c0-.4.17-.58.58-.58H7.5a.52.52,0,0,1,.55.5v9.23c0,.25,0,.23.23.23h4.81c.5,0,.68.17.68.66Zm4.6-5.85v5.86a.5.5,0,0,1-.57.57H16a.56.56,0,0,1-.62-.62c0-3.89,0-7.77,0-11.64a.58.58,0,0,1,.64-.64c.6,0,1.2,0,1.81,0,.39,0,.57.18.57.58v5.88Zm13.19,5.84A.55.55,0,0,1,31,30H29a.49.49,0,0,1-.43-.27l-1.92-2.59-3.36-4.52s-.05-.08-.1-.14v6.91c0,.43-.2.61-.61.61H20.77a.51.51,0,0,1-.57-.57V17.78c0-.44.21-.65.66-.65s1.15,0,1.72,0a.69.69,0,0,1,.6.3c1,1.35,2,2.68,3,4,.75,1,1.5,2,2.26,3a1.36,1.36,0,0,0,.12.18V17.73a.6.6,0,0,1,.18-.47.45.45,0,0,1,.34-.13H31a.54.54,0,0,1,.56.58V29.43m10.55.06a.49.49,0,0,1-.53.53H33.93a.51.51,0,0,1-.54-.57V23.57h0V17.75c0-.44.18-.62.63-.62h7.52c.4,0,.57.18.57.58v1.75c0,.42-.17.59-.6.59H36.59c-.16,0-.19.05-.19.21q0,.81,0,1.65c0,.15,0,.19.21.19h4.81a.72.72,0,0,1,.32,0,.51.51,0,0,1,.37.51c0,.58,0,1.15,0,1.73a.59.59,0,0,1-.67.66c-1.62,0-3.23,0-4.85,0-.17,0-.21,0-.21.2,0,.57,0,1.13,0,1.69,0,.14,0,.17.17.17H41.4a.72.72,0,0,1,.41.07.49.49,0,0,1,.3.48v1.85"/></g></g></svg>