<svg xmlns="http://www.w3.org/2000/svg" viewBox="0 0 183.81 130.88"><defs><style>.cls-1{fill:#e96143;}</style></defs><title>icon_airplane_active</title><g id="Layer_2" data-name="Layer 2"><g id="圖層_1" data-name="圖層 1"><path class="cls-1" d="M48.53,48.75,34.68,45.21a3,3,0,0,0-2.75.65l-10.77,9.4a3,3,0,0,1-5-2.09L15.22,38.9a3,3,0,0,0-1.47-2.41L1.48,29.15a3,3,0,0,1,.44-5.43l13.29-5.27A3.05,3.05,0,0,0,17,16.3L20.23,2.36a3,3,0,0,1,5.3-1.26l9.12,11a3.07,3.07,0,0,0,2.61,1.09L51.5,11.92a3,3,0,0,1,2.84,4.65L46.69,28.65a3,3,0,0,0-.23,2.81l5.62,13.15A3,3,0,0,1,48.53,48.75Z"/><path class="cls-1" d="M111.53,123.61l-13.85-3.54a3,3,0,0,0-2.75.65l-10.77,9.4a3,3,0,0,1-5-2.09l-.91-14.27a3.06,3.06,0,0,0-1.47-2.41L64.48,104a3,3,0,0,1,.43-5.43L78.2,93.31A3,3,0,0,0,80,91.16l3.19-13.94A3,3,0,0,1,88.53,76l9.12,11a3.06,3.06,0,0,0,2.61,1.09l14.24-1.28a3,3,0,0,1,2.84,4.65l-7.65,12.08a3,3,0,0,0-.23,2.81l5.62,13.15A3,3,0,0,1,111.53,123.61Z"/><path class="cls-1" d="M177.53,60.41l-13.85-3.54a3,3,0,0,0-2.75.65l-10.78,9.41a3,3,0,0,1-5-2.09l-.91-14.27a3.07,3.07,0,0,0-1.48-2.42l-12.27-7.34a3,3,0,0,1,.44-5.42l13.29-5.28A3.05,3.05,0,0,0,146,28L149.23,14a3,3,0,0,1,5.29-1.27l9.13,11a3,3,0,0,0,2.61,1.09l14.24-1.28a3,3,0,0,1,2.83,4.65l-7.65,12.08a3,3,0,0,0-.22,2.82l5.61,13.15A3,3,0,0,1,177.53,60.41Z"/></g></g></svg>