<svg xmlns="http://www.w3.org/2000/svg" viewBox="0 0 47.14 47.13"><defs><style>.cls-1{fill:#fff;}.cls-2{fill:#40a637;}</style></defs><title>icon_wechat</title><g id="Layer_2" data-name="Layer 2"><g id="圖層_1" data-name="圖層 1"><path class="cls-1" d="M23.57,0A23.57,23.57,0,1,0,47.14,23.56,23.56,23.56,0,0,0,23.57,0"/><path class="cls-2" d="M25.49,24.67a1,1,0,0,0-1,1,1,1,0,0,0,1,1,1,1,0,0,0,1-1,1,1,0,0,0-1-1"/><path class="cls-2" d="M15.59,17.08a1.16,1.16,0,1,0,0,2.32,1.16,1.16,0,1,0,0-2.32"/><path class="cls-2" d="M31.67,24.67a1,1,0,0,0-1,1,1,1,0,1,0,1-1"/><path class="cls-2" d="M23.57,0A23.57,23.57,0,1,0,47.14,23.56,23.56,23.56,0,0,0,23.57,0M19.06,28.88a11.24,11.24,0,0,1-1.65-.12h0L17,28.68a2.83,2.83,0,0,0-1.69.35l-2.57,1.58s.37-1.28.58-2.25a1.36,1.36,0,0,0-.48-1.42h0A8.55,8.55,0,0,1,9.06,20c0-4.9,4.47-8.88,10-8.88,5.29,0,9.61,3.62,10,8.22-5.22.12-9.43,3.87-9.43,8.43a6.3,6.3,0,0,0,.09,1.08c-.22,0-.43,0-.66,0m16.18,4.43h0a1.56,1.56,0,0,0-.46,1.79c.34.8.32.9.28.9l0,0-1.17-.7A3.28,3.28,0,0,0,32.34,35l-.55,0h0a10,10,0,0,1-2.47.3c-4.83,0-8.75-3.35-8.75-7.51s3.92-7.49,8.75-7.49,8.76,3.35,8.76,7.49a7.08,7.08,0,0,1-2.84,5.54"/><path class="cls-2" d="M23.16,19.4A1.16,1.16,0,1,0,22,18.25a1.16,1.16,0,0,0,1.17,1.15"/></g></g></svg>