<svg xmlns="http://www.w3.org/2000/svg" viewBox="0 0 29.47 27.88"><defs><style>.cls-1{fill:#fff;}</style></defs><title>icon_white_line</title><g id="Layer_2" data-name="Layer 2"><g id="圖層_1" data-name="圖層 1"><path class="cls-1" d="M29.45,11.17C29.09,5,22.64,0,14.73,0,6.6,0,0,5.25,0,11.72c0,6,5.57,10.86,12.79,11.61a.81.81,0,0,1,.71.89L13.19,27a.81.81,0,0,0,1.15.81c6.1-2.95,9.75-6,11.93-8.6.39-.48,1.69-2.29,1.95-2.76a10.11,10.11,0,0,0,1.13-3.23,7.86,7.86,0,0,0,.11-.89A10.35,10.35,0,0,0,29.45,11.17ZM8.89,15.6h-3a.76.76,0,0,1-.76-.76V9.15a.76.76,0,0,1,1.51,0v4.94H8.89a.76.76,0,1,1,0,1.51Zm3-.59a.59.59,0,0,1-.59.59H11a.59.59,0,0,1-.59-.59V9A.58.58,0,0,1,11,8.4h.33a.58.58,0,0,1,.59.59Zm7-.2a.79.79,0,0,1-.76.79.72.72,0,0,1-.51-.21c-.05,0-3.1-4-3.1-4v3.45a.76.76,0,1,1-1.51,0V9.19a.78.78,0,0,1,.72-.79.74.74,0,0,1,.59.25l3.06,4V9.15a.76.76,0,0,1,1.51,0Zm4.9-3.56a.75.75,0,0,1,0,1.5H21.52v1.34h2.26a.76.76,0,0,1,0,1.51h-3a.75.75,0,0,1-.75-.76V9.15a.75.75,0,0,1,.75-.75h3a.76.76,0,0,1,0,1.51H21.52v1.34Z"/></g></g></svg>