<svg xmlns="http://www.w3.org/2000/svg" viewBox="0 0 53.46 53.46"><defs><style>.cls-1{fill:#142952;}</style></defs><title>icon-address</title><g id="Layer_2" data-name="Layer 2"><g id="圖層_1" data-name="圖層 1"><path class="cls-1" d="M42,12.62H11.49a1.7,1.7,0,0,0-1.7,1.69V39.15a1.7,1.7,0,0,0,1.7,1.7H42a1.7,1.7,0,0,0,1.7-1.7V14.31A1.7,1.7,0,0,0,42,12.62Zm.57,1.69V24.47H42a.56.56,0,0,1-.56-.56V13.75H42A.56.56,0,0,1,42.54,14.31ZM40.28,31.25v8.47H36.89V36.89A1.69,1.69,0,0,0,35.2,35.2H20.52a1.69,1.69,0,0,0-1.69,1.69v2.83H15.44V31.81a1.69,1.69,0,0,0-1.69-1.69H10.92V26.17h2.83a1.7,1.7,0,0,0,1.69-1.7V13.75h3.39v15.8a1.7,1.7,0,0,0,1.69,1.7h7.72l.33.37a.56.56,0,0,0,.84,0l.33-.37H35.2a1.7,1.7,0,0,0,1.69-1.7V13.75h3.39V23.91A1.69,1.69,0,0,0,42,25.6h.57v3.95H42A1.7,1.7,0,0,0,40.28,31.25Zm-4.52,8.47H20V36.89a.56.56,0,0,1,.56-.56H35.2a.56.56,0,0,1,.56.56ZM29,30.38c-1.19-1.43-4.52-5.69-4.52-8.73a4.52,4.52,0,0,1,9,0C33.51,24.69,30.18,29,29,30.38Zm5.64-8.73a5.65,5.65,0,0,0-11.29,0c0,2.88,2.44,6.47,4,8.47H20.52a.56.56,0,0,1-.56-.57V13.75h15.8v15.8a.56.56,0,0,1-.56.57H30.65C32.2,28.12,34.63,24.53,34.63,21.65Zm-23.14-7.9h2.82V24.47a.56.56,0,0,1-.56.57H10.92V14.31A.57.57,0,0,1,11.49,13.75Zm-.57,25.4v-7.9h2.83a.56.56,0,0,1,.56.56v7.91H11.49A.58.58,0,0,1,10.92,39.15ZM42,39.72h-.56V31.25a.57.57,0,0,1,.56-.57h.57v8.47A.57.57,0,0,1,42,39.72Z"/><path class="cls-1" d="M42,41.1H11.49a2,2,0,0,1-2-2V14.31a2,2,0,0,1,2-1.94H42a2,2,0,0,1,2,1.94V39.15A2,2,0,0,1,42,41.1ZM11.49,12.87A1.45,1.45,0,0,0,10,14.31V39.15a1.45,1.45,0,0,0,1.45,1.45H42a1.45,1.45,0,0,0,1.45-1.45V14.31A1.45,1.45,0,0,0,42,12.87ZM42,40h-.81V31.25a.82.82,0,0,1,.81-.82h.82v8.72A.82.82,0,0,1,42,40Zm-.31-.5H42a.32.32,0,0,0,.32-.32V30.93H42a.31.31,0,0,0-.31.32Zm-1.13.5H36.64V36.89a1.44,1.44,0,0,0-1.44-1.44H20.52a1.45,1.45,0,0,0-1.44,1.44V40H15.19V31.81a1.45,1.45,0,0,0-1.44-1.44H10.67V25.92h3.08a1.45,1.45,0,0,0,1.44-1.45v-11h3.89V29.55A1.45,1.45,0,0,0,20.52,31h7.84l.07.09.32.36a.32.32,0,0,0,.47,0l.33-.37.07-.09H35.2a1.44,1.44,0,0,0,1.44-1.45v-16h3.89V23.91A1.44,1.44,0,0,0,42,25.35h.82V29.8H42a1.45,1.45,0,0,0-1.44,1.45Zm-3.39-.5H40V31.25A2,2,0,0,1,42,29.3h.32V25.85H42A1.94,1.94,0,0,1,40,23.91V14H37.14V29.55A1.94,1.94,0,0,1,35.2,31.5H29.85l-.26.3a.85.85,0,0,1-1.21,0l-.25-.29H20.52a1.94,1.94,0,0,1-1.94-1.95V14H15.69V24.47a1.94,1.94,0,0,1-1.94,2H11.17v3.45h2.58a1.94,1.94,0,0,1,1.94,1.94v7.66h2.89V36.89A1.94,1.94,0,0,1,20.52,35H35.2a1.94,1.94,0,0,1,1.94,1.94ZM36,40H19.71V36.89a.81.81,0,0,1,.81-.81H35.2a.81.81,0,0,1,.81.81Zm-15.8-.5h15.3V36.89a.31.31,0,0,0-.31-.31H20.52a.31.31,0,0,0-.31.31Zm-5.65.5H11.49a.82.82,0,0,1-.82-.82V31h3.08a.81.81,0,0,1,.81.81ZM11.17,31.5v7.65a.32.32,0,0,0,.32.32h2.57V31.81a.31.31,0,0,0-.31-.31ZM29,30.77l-.19-.23c-1.38-1.65-4.58-5.82-4.58-8.89a4.77,4.77,0,0,1,9.54,0c0,3.07-3.2,7.24-4.58,8.89Zm0-13.39a4.28,4.28,0,0,0-4.27,4.27c0,2.83,3.05,6.85,4.27,8.34,1.22-1.49,4.27-5.51,4.27-8.34A4.28,4.28,0,0,0,29,17.38Zm6.21,13H30.14l.32-.4c1.46-1.9,3.92-5.5,3.92-8.32a5.4,5.4,0,0,0-10.79,0c0,2.82,2.47,6.42,3.94,8.32l.31.4H20.52a.82.82,0,0,1-.81-.82v-16H36V29.55A.82.82,0,0,1,35.2,30.37Zm-4-.5h4a.31.31,0,0,0,.31-.32V14H20.21V29.55a.31.31,0,0,0,.31.32h6.3c-1.52-2-3.73-5.44-3.73-8.22a5.9,5.9,0,0,1,11.79,0C34.88,24.43,32.68,27.85,31.16,29.87ZM13.75,25.29H10.67v-11a.82.82,0,0,1,.82-.81h3.07v11A.82.82,0,0,1,13.75,25.29Zm-2.58-.5h2.58a.31.31,0,0,0,.31-.32V14H11.49a.32.32,0,0,0-.32.31Zm31.62-.07H42a.81.81,0,0,1-.81-.81V13.5H42a.82.82,0,0,1,.82.81ZM41.66,14v9.91a.31.31,0,0,0,.31.31h.32V14.31A.31.31,0,0,0,42,14Z"/><path class="cls-1" d="M29,19.39a2.26,2.26,0,1,0,2.26,2.26A2.26,2.26,0,0,0,29,19.39Zm0,3.39a1.13,1.13,0,1,1,1.13-1.13A1.13,1.13,0,0,1,29,22.78Z"/><path class="cls-1" d="M29,24.16a2.51,2.51,0,1,1,2.51-2.51A2.52,2.52,0,0,1,29,24.16Zm0-4.52a2,2,0,1,0,2,2A2,2,0,0,0,29,19.64ZM29,23a1.38,1.38,0,1,1,1.38-1.38A1.38,1.38,0,0,1,29,23Zm0-2.26a.88.88,0,1,0,.88.88A.88.88,0,0,0,29,20.77Z"/><path class="cls-1" d="M26.73,1A25.73,25.73,0,1,1,1,26.73,25.73,25.73,0,0,1,26.73,1m0-1A26.73,26.73,0,1,0,53.46,26.73,26.76,26.76,0,0,0,26.73,0Z"/></g></g></svg>