<svg xmlns="http://www.w3.org/2000/svg" viewBox="0 0 226.18 196.02"><defs><style>.cls-1{fill:none;stroke:#2f599c;stroke-linecap:round;stroke-linejoin:round;stroke-width:4.57px;}</style></defs><title>Artboard 23</title><g id="Layer_5" data-name="Layer 5"><polygon class="cls-1" points="46.7 129.21 4.63 51.96 113.9 100.32 46.7 129.21"/><polygon class="cls-1" points="181.1 129.21 223.18 51.96 113.9 100.32 181.1 129.21"/><polygon class="cls-1" points="46.7 129.21 113.9 100.32 181.1 129.21 46.7 129.21"/><polygon class="cls-1" points="113.9 100.32 113.9 29.35 81.36 85.92 113.9 100.32"/><polygon class="cls-1" points="113.9 100.32 113.9 29.35 146.44 85.92 113.9 100.32"/><path class="cls-1" d="M2,149.92c8.06,0,8.06,6.28,16.12,6.28s8.06-6.28,16.12-6.28,8.06,6.28,16.12,6.28,8.06-6.28,16.13-6.28,8.06,6.28,16.12,6.28,8.06-6.28,16.12-6.28,8.06,6.28,16.12,6.28,8.07-6.28,16.13-6.28,8.06,6.28,16.12,6.28,8.07-6.28,16.13-6.28,8.06,6.28,16.13,6.28,8.06-6.28,16.13-6.28,8.06,6.28,16.13,6.28"/><path class="cls-1" d="M2,165.53c8.06,0,8.06,6.28,16.12,6.28s8.06-6.28,16.12-6.28,8.06,6.28,16.12,6.28,8.06-6.28,16.13-6.28,8.06,6.28,16.12,6.28,8.06-6.28,16.12-6.28,8.06,6.28,16.12,6.28,8.07-6.28,16.13-6.28,8.06,6.28,16.12,6.28,8.07-6.28,16.13-6.28,8.06,6.28,16.13,6.28,8.06-6.28,16.13-6.28,8.06,6.28,16.13,6.28"/></g></svg>