<svg xmlns="http://www.w3.org/2000/svg" xmlns:xlink="http://www.w3.org/1999/xlink" viewBox="0 0 47.16 47.14"><defs><style>.cls-1{fill:#fff;}.cls-2{fill:url(#radial-gradient);}.cls-3{fill:url(#radial-gradient-2);}.cls-4{fill:url(#radial-gradient-3);}</style><radialGradient id="radial-gradient" cx="2.31" cy="43.09" r="77.94" gradientUnits="userSpaceOnUse"><stop offset="0.1" stop-color="#f7d27a"/><stop offset="0.16" stop-color="#f4c576"/><stop offset="0.26" stop-color="#eaa46c"/><stop offset="0.41" stop-color="#dc6f5b"/><stop offset="0.45" stop-color="#d75e56"/><stop offset="0.68" stop-color="#bf328c"/><stop offset="1" stop-color="#5b62aa"/></radialGradient><radialGradient id="radial-gradient-2" cx="2.33" cy="43.09" r="77.89" xlink:href="#radial-gradient"/><radialGradient id="radial-gradient-3" cx="2.32" cy="43.09" r="77.89" xlink:href="#radial-gradient"/></defs><title>icon_instagram</title><g id="Layer_2" data-name="Layer 2"><g id="圖層_1" data-name="圖層 1"><path class="cls-1" d="M23.57,0A23.57,23.57,0,1,0,47.16,23.57,23.57,23.57,0,0,0,23.57,0"/><path class="cls-2" d="M23.57,18.66a4.91,4.91,0,1,0,4.92,4.91,4.91,4.91,0,0,0-4.92-4.91"/><path class="cls-3" d="M35,14.88a4.1,4.1,0,0,0-1.1-1.68,4.56,4.56,0,0,0-1.69-1.11,8.45,8.45,0,0,0-2.73-.51c-1.55-.06-2-.08-5.95-.08s-4.39,0-5.95.08a8.59,8.59,0,0,0-2.74.51A4.61,4.61,0,0,0,13.2,13.2a4.31,4.31,0,0,0-1.1,1.68,8,8,0,0,0-.5,2.75c-.09,1.54-.09,2-.09,5.94s0,4.39.09,5.94a7.87,7.87,0,0,0,.5,2.74,4.35,4.35,0,0,0,1.1,1.69A4.46,4.46,0,0,0,14.88,35a8.24,8.24,0,0,0,2.74.52c1.56.07,2,.08,5.95.08s4.4,0,5.95-.08A8.1,8.1,0,0,0,32.25,35a4.42,4.42,0,0,0,1.69-1.1A4.13,4.13,0,0,0,35,32.25a7.75,7.75,0,0,0,.52-2.74c.07-1.55.09-2,.09-5.94s0-4.4-.09-5.94A7.87,7.87,0,0,0,35,14.88M23.57,31.13a7.56,7.56,0,1,1,7.55-7.56,7.57,7.57,0,0,1-7.55,7.56m7.87-13.65a1.77,1.77,0,1,1,1.75-1.77,1.78,1.78,0,0,1-1.75,1.77"/><path class="cls-4" d="M23.57,0A23.57,23.57,0,1,0,47.16,23.57,23.57,23.57,0,0,0,23.57,0M38.2,29.64a11.16,11.16,0,0,1-.67,3.57,7.53,7.53,0,0,1-1.7,2.61,7.21,7.21,0,0,1-2.62,1.7,11,11,0,0,1-3.57.69c-1.56.07-2.06.08-6.07.08s-4.49,0-6.06-.08a11,11,0,0,1-3.57-.69,7.26,7.26,0,0,1-2.61-1.7,7,7,0,0,1-1.7-2.61A10.36,10.36,0,0,1,9,29.64c-.09-1.57-.1-2.08-.1-6.07s0-4.5.1-6.07a10.36,10.36,0,0,1,.68-3.57,7.12,7.12,0,0,1,1.7-2.62,7.33,7.33,0,0,1,2.61-1.68,10.69,10.69,0,0,1,3.57-.7c1.57-.07,2.06-.08,6.06-.08s4.51,0,6.07.08a10.69,10.69,0,0,1,3.57.7,7.28,7.28,0,0,1,2.62,1.68,7.66,7.66,0,0,1,1.7,2.62,11.16,11.16,0,0,1,.67,3.57c.07,1.57.09,2.07.09,6.07s0,4.5-.09,6.07"/></g></g></svg>