<svg xmlns="http://www.w3.org/2000/svg" xmlns:xlink="http://www.w3.org/1999/xlink" viewBox="0 0 223.82 302.92"><defs><style>.cls-1,.cls-17,.cls-18,.cls-21,.cls-22,.cls-23,.cls-24,.cls-9{fill:none;}.cls-2{fill:#0d2957;}.cls-3{fill:#2f599d;}.cls-4{fill:#ea6143;stroke:#153365;}.cls-13,.cls-16,.cls-17,.cls-18,.cls-21,.cls-22,.cls-23,.cls-4,.cls-5,.cls-9{stroke-miterlimit:10;}.cls-13,.cls-14,.cls-4,.cls-5,.cls-6,.cls-7,.cls-9{stroke-width:1.82px;}.cls-5,.cls-7{fill:#41bcd7;}.cls-13,.cls-14,.cls-16,.cls-17,.cls-18,.cls-19,.cls-21,.cls-22,.cls-23,.cls-24,.cls-5,.cls-6,.cls-7,.cls-9{stroke:#0d2957;}.cls-13,.cls-19,.cls-6{fill:#fff;}.cls-14,.cls-19,.cls-24,.cls-6,.cls-7{stroke-linejoin:round;}.cls-17,.cls-22,.cls-23,.cls-24,.cls-7{stroke-linecap:round;}.cls-8{fill:#f0bf70;}.cls-10{fill:#f7b52c;}.cls-11{fill:#ca5245;}.cls-12{fill:#48a1bb;}.cls-14{fill:#c8c9ca;}.cls-15{clip-path:url(#clip-path);}.cls-16{fill:#164377;}.cls-16,.cls-17{stroke-width:2.46px;}.cls-18{stroke-width:4.93px;}.cls-19{stroke-width:1.95px;}.cls-20{fill:#eeeeef;}.cls-21{stroke-width:1.47px;}.cls-22,.cls-24{stroke-width:2.63px;}.cls-23{stroke-width:2.18px;}</style><clipPath id="clip-path"><path class="cls-1" d="M220.54,109.47A107.33,107.33,0,1,1,113.21,2.15,107.33,107.33,0,0,1,220.54,109.47Z"/></clipPath></defs><title>icon_ vertical2</title><g id="Layer_2" data-name="Layer 2"><g id="圖層_1" data-name="圖層 1"><path class="cls-2" d="M191.43,293.39l.55-3.81a.8.8,0,0,0-.25-.72l-2.83-2.62a.82.82,0,0,1,.42-1.41l3.79-.65a.82.82,0,0,0,.61-.47l1.61-3.5a.82.82,0,0,1,1.47,0l1.8,3.42a.85.85,0,0,0,.62.43l3.83.45a.82.82,0,0,1,.49,1.39l-2.68,2.76a.81.81,0,0,0-.22.73l.75,3.78a.82.82,0,0,1-1.17.89l-3.45-1.7a.84.84,0,0,0-.77,0l-3.36,1.88A.82.82,0,0,1,191.43,293.39Z"/><path class="cls-2" d="M29.78,292.11l.55-3.82a.8.8,0,0,0-.25-.72L27.25,285a.81.81,0,0,1,.42-1.4l3.8-.66a.81.81,0,0,0,.6-.46l1.62-3.5a.81.81,0,0,1,1.46,0L37,282.3a.8.8,0,0,0,.63.43l3.83.45a.83.83,0,0,1,.49,1.39l-2.69,2.76a.82.82,0,0,0-.22.73l.75,3.78a.82.82,0,0,1-1.16.9L35.12,291a.82.82,0,0,0-.76,0L31,292.94A.82.82,0,0,1,29.78,292.11Z"/><path class="cls-3" d="M220.32,109.79A107.33,107.33,0,1,1,113,2.46,107.33,107.33,0,0,1,220.32,109.79Z"/><path class="cls-4" d="M160.53,132.51c3.64,20.31.79,45.31-8.43,74.18l-96.82-6.47,1.42-26.91,86.6-38Z"/><path class="cls-5" d="M160,138.07C158.07,113.64,155.63,96,155.63,96L136,95.5,48.53,151.76l-1.64,42.59,96.66-51.52Z"/><polygon class="cls-6" points="178.63 108.06 160.13 96.28 163.26 90.33 179.02 101.31 178.63 108.06"/><polygon class="cls-7" points="172.48 136.98 181.99 142.84 177.28 106.78 166.53 99.37 172.48 136.98"/><path class="cls-4" d="M172.48,137l9.51,5.85s2.34,44.61-25.59,63.08C156.4,205.91,178.63,197.9,172.48,137Z"/><path class="cls-2" d="M84.17,139.31l2.68-2.19a.66.66,0,0,1,1.07.53l.19,4.54a.73.73,0,0,1-.29.62l-2.7,1.95a.67.67,0,0,1-1-.56l-.17-4.3A.73.73,0,0,1,84.17,139.31Z"/><path class="cls-2" d="M94,132.5l2.69-2.19a.66.66,0,0,1,1.07.53l.19,4.54a.73.73,0,0,1-.29.62L95,138a.66.66,0,0,1-1-.56l-.18-4.3A.76.76,0,0,1,94,132.5Z"/><path class="cls-2" d="M114.24,121.61l2.69-2.18A.66.66,0,0,1,118,120l.19,4.53a.73.73,0,0,1-.29.62l-2.71,2a.66.66,0,0,1-1-.56l-.18-4.3A.76.76,0,0,1,114.24,121.61Z"/><path class="cls-8" d="M100.58,20.75l-1.83-2.16a.6.6,0,0,0-.52-.21l-2.81.28a.6.6,0,0,1-.57-.91l1.48-2.41a.57.57,0,0,0,0-.55L95.24,12.2a.6.6,0,0,1,.69-.83l2.75.67a.59.59,0,0,0,.54-.13L101.33,10a.6.6,0,0,1,1,.4l.21,2.82a.56.56,0,0,0,.29.47l2.44,1.43a.6.6,0,0,1-.07,1.07l-2.62,1.08a.59.59,0,0,0-.36.42l-.6,2.77A.6.6,0,0,1,100.58,20.75Z"/><path class="cls-8" d="M44.09,129.62,41.9,127a.72.72,0,0,0-.62-.25l-3.37.34a.72.72,0,0,1-.69-1.1L39,123.14a.72.72,0,0,0,0-.67l-1.36-3.1a.72.72,0,0,1,.83-1l3.29.81a.73.73,0,0,0,.65-.17L45,116.77a.72.72,0,0,1,1.2.48l.25,3.38a.72.72,0,0,0,.36.57l2.93,1.71a.72.72,0,0,1-.09,1.29l-3.14,1.28a.71.71,0,0,0-.43.52l-.72,3.31A.73.73,0,0,1,44.09,129.62Z"/><path class="cls-8" d="M189.47,63.7l-1.33-1.58a.46.46,0,0,0-.38-.15l-2.06.2a.43.43,0,0,1-.41-.66l1.08-1.76a.43.43,0,0,0,0-.41l-.83-1.89a.43.43,0,0,1,.5-.6l2,.49a.48.48,0,0,0,.4-.1L190,55.86a.44.44,0,0,1,.73.3l.15,2.06a.48.48,0,0,0,.22.35l1.79,1a.44.44,0,0,1-.06.78l-1.91.78a.44.44,0,0,0-.26.32l-.44,2A.44.44,0,0,1,189.47,63.7Z"/><path class="cls-8" d="M204.3,117.44l-2.18-2.59a.75.75,0,0,0-.63-.25l-3.37.34a.72.72,0,0,1-.68-1.09l1.78-2.88a.72.72,0,0,0,.05-.67l-1.37-3.1a.72.72,0,0,1,.83-1l3.3.8a.7.7,0,0,0,.65-.16l2.52-2.25a.72.72,0,0,1,1.2.48l.25,3.38a.73.73,0,0,0,.36.57l2.92,1.7a.72.72,0,0,1-.09,1.29l-3.13,1.28a.71.71,0,0,0-.43.52l-.72,3.31A.73.73,0,0,1,204.3,117.44Z"/><path class="cls-8" d="M130,26a6.22,6.22,0,0,1-2.43,3.71.55.55,0,0,0,0,1,6.2,6.2,0,0,1,2.43,3.7.49.49,0,0,0,.9,0,6.26,6.26,0,0,1,2.44-3.7.55.55,0,0,0,0-1A6.28,6.28,0,0,1,130.93,26,.5.5,0,0,0,130,26Z"/><path class="cls-8" d="M36.6,65.66a7.08,7.08,0,0,1-2.79,4.24.65.65,0,0,0,0,1.16A7.08,7.08,0,0,1,36.6,75.3a.57.57,0,0,0,1,0,7.08,7.08,0,0,1,2.79-4.24.65.65,0,0,0,0-1.16,7.08,7.08,0,0,1-2.79-4.24A.57.57,0,0,0,36.6,65.66Z"/><path class="cls-8" d="M22.42,88.36A6.22,6.22,0,0,1,20,92.06a.55.55,0,0,0,0,1,6.17,6.17,0,0,1,2.43,3.7.5.5,0,0,0,.9,0,6.18,6.18,0,0,1,2.44-3.7.56.56,0,0,0,0-1,6.24,6.24,0,0,1-2.44-3.7A.49.49,0,0,0,22.42,88.36Z"/><polyline class="cls-9" points="137.1 99.04 143.55 142.83 138.97 184.47"/><path class="cls-10" d="M162.32,32a11.07,11.07,0,0,0-8.87,4.43,7.4,7.4,0,1,1,3.24,14.06,7.48,7.48,0,0,1-3.24-.74A11.09,11.09,0,1,0,162.32,32Z"/><path class="cls-11" d="M90.81,173.06,114,160s-9.48,7.29-11.94,17.6c-6.12,25.61,6.63,35.45,6.63,35.45l-20-3Z"/><path class="cls-12" d="M108.67,145.94s5.22-4.19,4.32-10.66c-2-14.62-2.61-16,6.91-23.7l-14.11,7.23Z"/><path class="cls-13" d="M80,160.45a8.08,8.08,0,0,1-3.81-1.25A6.58,6.58,0,0,1,73,153.81l-.41-10.53a1,1,0,0,0-1.61-.8l-24,15.37.44-7.55L71.05,135a5.11,5.11,0,0,1,5.23-.1,4.81,4.81,0,0,1,2.5,4.27l.57,14.58a1.49,1.49,0,0,0,.66.48,1.62,1.62,0,0,0,1.21-.09l17.18-9.62c4.74-2.58,5.4-3.85,5.53-5.25l-2.46-19.09v-.28A10.11,10.11,0,0,1,106.1,112L135,92.94l20.42-.38.21,6.14L137.1,99l-27.34,18a4.16,4.16,0,0,0-1.88,3l2.46,19.09,0,.27c-.27,4.89-3.52,7.61-8.68,10.42l-17.46,9.76A8.36,8.36,0,0,1,80,160.45Z"/><path class="cls-14" d="M172,79.79l4.41,1.53S180,91.7,168.52,96.1c0,0,9.09,50.42.92,77.69-6.43,21.44-11.73,23.25-18.27,28-2.67,1.93-11.17,4.11-11.17,4.11s23-19.44,24.2-36.8.23-69.52-1.32-76.52Z"/><path class="cls-6" d="M158,84.46l14-4.67.39,2.74a8.1,8.1,0,0,1-5.79,9.08l-3.73,1s7.54,42.22,1.49,75.61C159.88,193,138,207.32,138,207.32s19.21-24.44,21.62-55.87c1.79-23.34-3-49.95-5.35-60A5.88,5.88,0,0,1,158,84.46Z"/><g class="cls-15"><path class="cls-16" d="M5.88,141.12l45.34,83.36L122,219.32c.2-14.33-11.89-26.12-27-26.34h-.36a31.72,31.72,0,0,0,.43-4.8c.27-18.66-15.47-34-35.14-34.29a37.21,37.21,0,0,0-15.17,3c-1.32-11.38-11.4-20.31-23.78-20.49a25,25,0,0,0-15.1,4.74"/><path class="cls-16" d="M220.67,135.82a33,33,0,0,0-5.34,9c-.06.14-.1.28-.16.42a43.41,43.41,0,0,0-65.09,40A29.57,29.57,0,0,0,113.66,220l81.86-7Z"/></g><line class="cls-17" x1="160.75" y1="155.37" x2="181.06" y2="163.37"/><line class="cls-17" x1="156.4" y1="162.71" x2="170.46" y2="168.54"/><line class="cls-17" x1="74.5" y1="174.97" x2="88.24" y2="168.44"/><line class="cls-17" x1="72.53" y1="184.13" x2="91.06" y2="174.84"/><line class="cls-17" x1="26.15" y1="152.47" x2="39.89" y2="145.94"/><line class="cls-17" x1="24.18" y1="161.63" x2="42.71" y2="152.34"/><line class="cls-17" x1="133.3" y1="186.39" x2="147.36" y2="192.21"/><line class="cls-17" x1="124.65" y1="191.31" x2="149.55" y2="200.95"/><path class="cls-18" d="M220.54,109.79A107.33,107.33,0,1,1,113.21,2.46,107.33,107.33,0,0,1,220.54,109.79Z"/><path class="cls-19" d="M93,32.69l-7.67,4.49s42.55,2.91,52.8,49.73a80,80,0,0,1,12.94,0S147.76,38.54,93,32.69Z"/><path class="cls-19" d="M73.43,44.88,81.2,40.1S128,47.36,130.48,90l-16.63,8.86S120.53,62.33,73.43,44.88Z"/><path class="cls-19" d="M70,47.21,59,53.93s38.25,27.92,27.27,62.15l21.92-14.52S118.71,70.23,70,47.21Z"/><path class="cls-19" d="M45.67,61.79l10.57-5.87s32.77,22,23.43,65.8l-21.91,14.1S78.67,86.89,45.67,61.79Z"/><path class="cls-20" d="M60.9,54.28S96.13,70.65,98,107.21l-10.09,6.67S98.53,85.45,60.9,54.28Z"/><path class="cls-20" d="M47.41,62s29.85,20,12.4,71.37l9.27-6S79.24,77.22,47.41,62Z"/><path class="cls-20" d="M75.54,44.65S118,59.11,115.1,97.44l7.77-4.35S120.41,50,75.54,44.65Z"/><path class="cls-20" d="M88.17,36.61s18.42-3.65,42.64,20c0,0,12.72,14.91,14.41,29.07l-6.33.25s-3.24-17.09-15.47-30.32C109.5,40.51,95.92,38.09,88.17,36.61Z"/><path class="cls-5" d="M71,40.13,57.53,28.6S46.67,25.41,37.29,41.49c-8,13.66-20.54,18.82-34,12.18,0,0,21.07,26.25,40.11,2.36C55.82,40.41,71,40.13,71,40.13Z"/><path class="cls-8" d="M45.84,179.82l-.53-1.22a.27.27,0,0,0-.2-.17l-1.3-.26a.28.28,0,0,1-.13-.49l1-.88a.27.27,0,0,0,.09-.24l-.15-1.32a.29.29,0,0,1,.43-.28l1.14.68a.27.27,0,0,0,.26,0l1.21-.55a.28.28,0,0,1,.4.31l-.3,1.3a.28.28,0,0,0,.07.26l.9,1a.28.28,0,0,1-.19.47l-1.32.12a.28.28,0,0,0-.22.14l-.66,1.16A.28.28,0,0,1,45.84,179.82Z"/><path class="cls-8" d="M59.15,189.64,58,187a.61.61,0,0,0-.44-.35l-2.78-.57a.6.6,0,0,1-.28-1l2.14-1.87a.59.59,0,0,0,.2-.53l-.32-2.82a.6.6,0,0,1,.91-.59l2.44,1.46a.59.59,0,0,0,.56,0l2.59-1.18a.6.6,0,0,1,.84.68L63.25,183a.61.61,0,0,0,.15.55l1.92,2.09a.6.6,0,0,1-.39,1l-2.83.25a.61.61,0,0,0-.48.31l-1.39,2.48A.6.6,0,0,1,59.15,189.64Z"/><path class="cls-2" d="M110.59,245.2H91.9a1.13,1.13,0,0,1,0-2.26h18.69a1.13,1.13,0,0,1,0,2.26Z"/><path class="cls-2" d="M101.41,259.11a1.13,1.13,0,0,1-1.13-1.13V230.13a1.13,1.13,0,0,1,2.26,0V258A1.14,1.14,0,0,1,101.41,259.11Z"/><path class="cls-2" d="M112.17,254.9c-7.57,0-11.42-9.22-11.58-9.61a1.13,1.13,0,1,1,2.1-.86c0,.08,3.43,8.21,9.48,8.21a1.13,1.13,0,0,1,0,2.26Z"/><path class="cls-2" d="M90.64,254.58a1.13,1.13,0,1,1,0-2.26c6.08,0,9.46-7.87,9.49-7.95a1.13,1.13,0,0,1,2.09.88C102.06,245.63,98.21,254.58,90.64,254.58Z"/><path class="cls-2" d="M97.28,241a1.13,1.13,0,0,1-1.13-1.12A5.36,5.36,0,0,0,92.66,235a1.13,1.13,0,0,1,.73-2.14,7.63,7.63,0,0,1,5,7A1.14,1.14,0,0,1,97.29,241Z"/><path class="cls-2" d="M105.54,241h0a1.12,1.12,0,0,1-1.12-1.14,7.62,7.62,0,0,1,5-7,1.13,1.13,0,1,1,.73,2.14h0a5.37,5.37,0,0,0-3.48,4.93A1.13,1.13,0,0,1,105.54,241Z"/><path class="cls-2" d="M50.22,240.29a4.47,4.47,0,0,1-3.42-1.5c-1.86-2.07-2-5.72-1.94-7.64H35.61a1.08,1.08,0,1,1,0-2.15H46a1.08,1.08,0,0,1,1.07,1.19c-.15,1.41-.21,5.46,1.33,7.16a2.26,2.26,0,0,0,1.81.78c1.68,0,1.9-1.07,1.9-1.12a1.08,1.08,0,1,1,2.13.39A3.83,3.83,0,0,1,50.22,240.29Z"/><path class="cls-2" d="M31.31,240.5a1.08,1.08,0,0,1-.31-2.11c5-1.44,5.72-5,5.75-5.16a1.08,1.08,0,0,1,2.12.4c0,.2-1,5-7.26,6.83A1.08,1.08,0,0,1,31.31,240.5Z"/><path class="cls-2" d="M50.9,257.19a4,4,0,0,1-3-1.33c-2.62-2.73-2.87-9.15-2.86-11.84h-13a1.08,1.08,0,0,1,0-2.16H46.15a1.07,1.07,0,0,1,.78.33,1.1,1.1,0,0,1,.3.79c-.11,2.41.09,9.16,2.23,11.39a1.91,1.91,0,0,0,1.44.66c1.92,0,2.08-2.61,2.09-2.72a1.08,1.08,0,1,1,2.15.11C55.05,254.07,54.05,257.19,50.9,257.19Z"/><path class="cls-2" d="M32.07,256.28h-.18c-.72,0-2.46-.47-3-3.38a1.08,1.08,0,0,1,2.12-.41c.09.48.38,1.6,1,1.64a1.33,1.33,0,0,0,1.17-.83c2-6.1,1.37-14.65,1.37-14.73a1.07,1.07,0,0,1,1-1.16,1.08,1.08,0,0,1,1.16,1c0,.37.67,9.06-1.47,15.57A3.48,3.48,0,0,1,32.07,256.28Z"/><path class="cls-2" d="M41.62,257A1.09,1.09,0,0,1,40.54,256V233.43a1.08,1.08,0,0,1,2.16,0V256A1.08,1.08,0,0,1,41.62,257Z"/><path class="cls-2" d="M51.79,244.11a1.81,1.81,0,1,1-1.8-1.94A1.87,1.87,0,0,1,51.79,244.11Z"/><path class="cls-2" d="M51.79,232.69a1.81,1.81,0,1,1-1.8-1.94A1.88,1.88,0,0,1,51.79,232.69Z"/><path class="cls-2" d="M51.79,249.52a1.3,1.3,0,1,1-1.3-1.39A1.35,1.35,0,0,1,51.79,249.52Z"/><path class="cls-2" d="M138.1,236.75H126a1.18,1.18,0,0,1,0-2.36H138.1a1.18,1.18,0,0,1,0,2.36Z"/><path class="cls-2" d="M139.13,246.67H125a1.18,1.18,0,0,1,0-2.36h14.18a1.18,1.18,0,0,1,0,2.36Z"/><path class="cls-2" d="M138.63,252.29H125.45a1.19,1.19,0,0,1,0-2.37h13.18a1.19,1.19,0,0,1,0,2.37Z"/><path class="cls-2" d="M141.21,257.68H122.87a1.18,1.18,0,0,1,0-2.36h18.34a1.18,1.18,0,0,1,0,2.36Z"/><path class="cls-2" d="M132,256.53a1.18,1.18,0,0,1-1.18-1.18V241.74a1.18,1.18,0,1,1,2.36,0v13.61A1.18,1.18,0,0,1,132,256.53Z"/><path class="cls-2" d="M134.18,242.11h-4.29a6.14,6.14,0,0,1-6.13-6.14v-.8a6.14,6.14,0,0,1,6.13-6.14h4.29a6.14,6.14,0,0,1,6.14,6.14v.8A6.14,6.14,0,0,1,134.18,242.11Zm-4.29-10.72a3.77,3.77,0,0,0-3.77,3.78v.8a3.78,3.78,0,0,0,3.77,3.78h4.29A3.78,3.78,0,0,0,138,236v-.8a3.78,3.78,0,0,0-3.78-3.78Z"/><path class="cls-2" d="M121,249.17a1.18,1.18,0,0,1-.21-2.34,4.16,4.16,0,0,0,3.51-4.36,1.18,1.18,0,0,1,2.36-.11,6.48,6.48,0,0,1-5.46,6.79A.71.71,0,0,1,121,249.17Z"/><path class="cls-2" d="M168.14,249.28h-14.9a1.16,1.16,0,0,1,0-2.32h14.9a1.16,1.16,0,1,1,0,2.32Z"/><path class="cls-2" d="M170.29,257.68H151.08a1.16,1.16,0,0,1,0-2.31h19.21a1.16,1.16,0,1,1,0,2.31Z"/><path class="cls-2" d="M160.69,257a1.15,1.15,0,0,1-1.15-1.16v-6.4a1.16,1.16,0,1,1,2.31,0v6.4A1.16,1.16,0,0,1,160.69,257Z"/><path class="cls-2" d="M163.43,231.71a2.56,2.56,0,1,1-2.56-2.71A2.64,2.64,0,0,1,163.43,231.71Z"/><path class="cls-2" d="M171.23,241.15a1.16,1.16,0,0,1-1.16-1.15c0-5.08-2.92-5.27-3.25-5.28H154.35a2.33,2.33,0,0,0-1.87.75c-1,1.17-.95,3.55-.84,4.36a1.16,1.16,0,0,1-2.29.33c-.06-.4-.51-4,1.38-6.2a4.59,4.59,0,0,1,3.62-1.55h12.47a5.2,5.2,0,0,1,3.52,1.55c1.36,1.34,2,3.37,2,6A1.16,1.16,0,0,1,171.23,241.15Z"/><path class="cls-2" d="M152.38,245.39a1.16,1.16,0,0,1,0-2.32,4.79,4.79,0,0,0,3.69-1.36,6.53,6.53,0,0,0,1.32-4.37,1.15,1.15,0,1,1,2.3-.21,8.72,8.72,0,0,1-1.91,6.14A7,7,0,0,1,152.38,245.39Z"/><path class="cls-2" d="M168.69,245.39a7,7,0,0,1-5.4-2.12,8.72,8.72,0,0,1-1.91-6.14,1.16,1.16,0,0,1,1.25-1,1.17,1.17,0,0,1,1.05,1.25h0a6.51,6.51,0,0,0,1.32,4.39,4.79,4.79,0,0,0,3.69,1.35,1.16,1.16,0,0,1,0,2.32Z"/><path class="cls-2" d="M187.58,241.23h-9.69a1.1,1.1,0,1,1,0-2.19h9.69a1.1,1.1,0,0,1,0,2.19Z"/><path class="cls-2" d="M184.71,238.38a4.65,4.65,0,1,1,4.47-4.64A4.56,4.56,0,0,1,184.71,238.38Zm0-7.1a2.46,2.46,0,1,0,2.28,2.46A2.37,2.37,0,0,0,184.71,231.28Z"/><path class="cls-2" d="M180.57,257.35a1.07,1.07,0,0,1-.93-.52,1.09,1.09,0,0,1,.35-1.5c2.86-1.77,3.88-4.55,3.51-5.87-.11-.38-.35-.83-1.28-.84a2.37,2.37,0,0,1-2.41-1.3c-.7-1.68,1.06-4,3.94-7.06l.37-.4a1.12,1.12,0,0,1,1.53-.19,1.09,1.09,0,0,1,.24,1.49c-.06.07-.26.3-.55.61-2.88,3-3.41,4.21-3.48,4.62l.4,0a3.31,3.31,0,0,1,3.35,2.45c.65,2.33-.85,6.07-4.47,8.31A1.07,1.07,0,0,1,180.57,257.35Z"/><path class="cls-2" d="M195.11,236.82a1.09,1.09,0,0,1-1.09-1.1v-5.6a1.09,1.09,0,0,1,1.09-1.09,1.1,1.1,0,0,1,1.1,1.09v5.6A1.11,1.11,0,0,1,195.11,236.82Z"/><path class="cls-2" d="M200.19,234h-5.08a1.1,1.1,0,0,1,0-2.2h5.08a1.1,1.1,0,1,1,0,2.2Z"/><path class="cls-2" d="M186.26,257.7a1.09,1.09,0,0,1-.79-1.85c3.86-4.07,3.82-8.6,3.79-12.6v-1.07c0-4.32,2.52-6.9,6.74-6.9a5.66,5.66,0,0,1,4.24,1.68c2.06,2.15,2,5.57,1.94,5.72a1.1,1.1,0,0,1-2.19-.09,6.49,6.49,0,0,0-1.34-4.12,3.48,3.48,0,0,0-2.65-1c-3,0-4.54,1.59-4.54,4.71v1c0,4.2.08,9.42-4.39,14.13A1.14,1.14,0,0,1,186.26,257.7Z"/><path class="cls-2" d="M198.31,242.12h-5.59a1.1,1.1,0,0,1,0-2.2h5.59a1.1,1.1,0,0,1,0,2.2Z"/><path class="cls-2" d="M199.13,246.66h-2.39a2.78,2.78,0,0,1-2.72-2.82V238a1.09,1.09,0,0,1,1.09-1.09,1.1,1.1,0,0,1,1.1,1.09v5.88a.58.58,0,0,0,.53.62h2.39a1.1,1.1,0,0,1,0,2.2Z"/><path class="cls-2" d="M191,258a1.07,1.07,0,0,1-.8-.35,1.1,1.1,0,0,1,.06-1.55c3.16-2.91,2.75-7.88,2.74-7.93a1.11,1.11,0,0,1,1-1.19,1.1,1.1,0,0,1,1.19,1c0,.24.5,6.09-3.44,9.73A1.09,1.09,0,0,1,191,258Z"/><path class="cls-2" d="M200.6,258a3.75,3.75,0,0,1-3.68-3.8v-6.69a1.1,1.1,0,1,1,2.2,0v6.69a1.49,1.49,0,1,0,3,0v-1.42a1.1,1.1,0,1,1,2.19,0v1.42A3.75,3.75,0,0,1,200.6,258Z"/><path class="cls-2" d="M72.16,246.32h0a3.39,3.39,0,0,1-3.39-3.39v-8.32a3.42,3.42,0,0,1,6.83,0v8.32A3.39,3.39,0,0,1,72.16,246.32Zm0-13.13a1.44,1.44,0,0,0-1.47,1.42v8.32a1.43,1.43,0,0,0,1.42,1.42h0a1.43,1.43,0,0,0,1.42-1.42v-8.32A1.43,1.43,0,0,0,72.16,233.19Z"/><path class="cls-2" d="M74.36,239.35H70.09a1,1,0,1,1,0-2h4.27a1,1,0,1,1,0,2Z"/><path class="cls-2" d="M65.38,238.1c-1.88,0-3.06-.56-3.51-1.64-.94-2.29,2.23-5.67,3.22-6.65a.94.94,0,1,1,1.33,1.34c-1.58,1.56-3.11,3.83-2.8,4.59.09.21.6.47,1.76.47a.95.95,0,0,1,0,1.89Z"/><path class="cls-2" d="M64.94,244.41a3,3,0,0,1-2.9-1.35c-1.18-2.39,2.83-6.67,4.09-7.93a.95.95,0,0,1,1.34,1.34c-2.31,2.3-4.08,5.05-3.73,5.75.06.14.6.43,2.29.21a.94.94,0,1,1,.24,1.87A9.36,9.36,0,0,1,64.94,244.41Z"/><path class="cls-2" d="M66.62,244.92a1,1,0,0,1-.94-.85l-.45-4.19a.95.95,0,1,1,1.88-.2l.45,4.19a.94.94,0,0,1-.84,1Z"/><path class="cls-2" d="M79.92,238c-1.88,0-3.06-.55-3.51-1.64-.94-2.28,2.23-5.67,3.22-6.65A.95.95,0,0,1,81,231.08c-1.57,1.56-3.11,3.83-2.8,4.59.09.21.6.46,1.76.46a.95.95,0,0,1,0,1.89Z"/><path class="cls-2" d="M79.48,244.33a3,3,0,0,1-2.9-1.34c-1.18-2.39,2.83-6.67,4.09-7.93A.95.95,0,0,1,82,236.4c-2.31,2.3-4.08,5-3.73,5.75.06.13.6.43,2.29.21a.93.93,0,0,1,1.06.81,1,1,0,0,1-.81,1.06A10,10,0,0,1,79.48,244.33Z"/><path class="cls-2" d="M81.16,244.84a.94.94,0,0,1-.94-.85l-.45-4.18a.95.95,0,0,1,1.88-.2l.45,4.18a1,1,0,0,1-.84,1.05Z"/><path class="cls-2" d="M81.42,249.36H62a1,1,0,0,1,0-2.09H81.42a1,1,0,0,1,0,2.09Z"/><path class="cls-2" d="M72,257.8a1,1,0,0,1-1-1V246a1,1,0,1,1,2,0v10.81A1,1,0,0,1,72,257.8Z"/><path class="cls-2" d="M73.71,230.91A1.6,1.6,0,1,1,72.13,229,1.78,1.78,0,0,1,73.71,230.91Z"/><path class="cls-2" d="M65.42,255.9a4.27,4.27,0,0,1-4-2.19,1.1,1.1,0,1,1,2-.94,2.27,2.27,0,0,0,2.44.91c2.73-.3,4.52-4.92,5-6.67a1.11,1.11,0,0,1,1.34-.78,1.09,1.09,0,0,1,.78,1.34c-.08.32-2.09,7.76-6.86,8.29A5.85,5.85,0,0,1,65.42,255.9Z"/><path class="cls-2" d="M78.38,255.9a6,6,0,0,1-.71,0c-4.77-.53-6.78-8-6.86-8.29a1.09,1.09,0,0,1,.78-1.34,1.11,1.11,0,0,1,1.34.78c.46,1.75,2.26,6.37,5,6.67a2.28,2.28,0,0,0,2.45-.93,1.11,1.11,0,0,1,1.47-.48,1.08,1.08,0,0,1,.5,1.44A4.27,4.27,0,0,1,78.38,255.9Z"/><line class="cls-21" x1="10.84" y1="264.72" x2="217.18" y2="264.72"/><line class="cls-22" x1="55.28" y1="282.93" x2="63.11" y2="282.93"/><line class="cls-23" x1="69.81" y1="287.12" x2="69.81" y2="293.29"/><path class="cls-23" d="M73.17,288.39c0-1.46,3.36-1.49,3.36,0v4.93"/><path class="cls-23" d="M69.81,288.39c0-1.46,3.36-1.49,3.36,0v4.93"/><line class="cls-22" x1="80.63" y1="286.98" x2="80.63" y2="293.29"/><path class="cls-2" d="M81.78,284.14A1.16,1.16,0,1,1,80.63,283,1.16,1.16,0,0,1,81.78,284.14Z"/><line class="cls-22" x1="85.51" y1="276.55" x2="85.51" y2="293.64"/><path class="cls-22" d="M90.41,286.77s-1,6.87,4,6.87"/><path class="cls-22" d="M94.88,286.77s.89,16.8-6.41,14.3"/><path class="cls-22" d="M64.52,290.42a2.66,2.66,0,1,1-2.66-2.67A2.66,2.66,0,0,1,64.52,290.42Z"/><path class="cls-22" d="M64.68,287.33s-.71,5.54,1.62,5.61"/><path class="cls-22" d="M63.29,276.36H59.45s-4.18-.12-4.18,4.12-.62,12.76-6,12.76"/><path class="cls-22" d="M115.9,285.1v6.82a1.22,1.22,0,0,0,1.22,1.22h.66"/><line class="cls-22" x1="114.5" y1="287.16" x2="117.78" y2="287.16"/><line class="cls-22" x1="131.08" y1="286.95" x2="131.08" y2="293.4"/><path class="cls-22" d="M131.08,288a2.43,2.43,0,0,1,3.6-.36"/><line class="cls-22" x1="138.28" y1="286.95" x2="138.28" y2="293.4"/><path class="cls-22" d="M138.28,288a2.43,2.43,0,0,1,3.6-.36"/><path class="cls-22" d="M126.15,290.39a2.66,2.66,0,1,1-2.66-2.67A2.66,2.66,0,0,1,126.15,290.39Z"/><path class="cls-22" d="M126.31,287.3s-.71,5.54,1.62,5.61"/><path class="cls-22" d="M112.84,276.31c-.81-.31-4.09.35-4.07,4.4,0,2.52,1.67,4.42,1.85,7.42.14,2.25-1.21,4.5-3,4.92a4,4,0,0,1-3.85-1.11"/><line class="cls-22" x1="169.88" y1="276.08" x2="169.88" y2="292.73"/><polyline class="cls-24" points="173.06 286.37 169.96 289.37 173.44 292.83"/><path class="cls-22" d="M166.31,276.44c-.8-.32-4.08.34-4.07,4.39,0,2.53,1.68,4.42,1.86,7.42.13,2.25-1.21,4.51-3,4.93a4,4,0,0,1-3.85-1.12"/><path class="cls-22" d="M145.23,287.05s-1,6.88,4,6.88"/><path class="cls-22" d="M149.69,287.05s.89,16.8-6.41,14.3"/><path class="cls-22" d="M177.94,287.05s-1,6.88,4,6.88"/><path class="cls-22" d="M182.4,287.05s.89,16.8-6.41,14.3"/></g></g></svg>