<svg xmlns="http://www.w3.org/2000/svg" xmlns:xlink="http://www.w3.org/1999/xlink" viewBox="0 0 419.42 171.72"><defs><style>.cls-1,.cls-17,.cls-18,.cls-9{fill:none;}.cls-2{fill:#2f599c;}.cls-3{fill:#e96143;stroke:#153365;}.cls-13,.cls-16,.cls-17,.cls-18,.cls-3,.cls-4,.cls-9{stroke-miterlimit:10;}.cls-13,.cls-14,.cls-3,.cls-4,.cls-5,.cls-6,.cls-9{stroke-width:1.4px;}.cls-4,.cls-6{fill:#41bbd6;}.cls-13,.cls-14,.cls-16,.cls-17,.cls-18,.cls-19,.cls-4,.cls-5,.cls-6,.cls-9{stroke:#0d2957;}.cls-13,.cls-19,.cls-5{fill:#fff;}.cls-14,.cls-19,.cls-5,.cls-6{stroke-linejoin:round;}.cls-17,.cls-6{stroke-linecap:round;}.cls-7{fill:#0d2957;}.cls-8{fill:#efbe70;}.cls-10{fill:#f6b42c;}.cls-11{fill:#c95245;}.cls-12{fill:#48a0ba;}.cls-14{fill:#c7c8c9;}.cls-15{clip-path:url(#clip-path);}.cls-16{fill:#164377;}.cls-16,.cls-17{stroke-width:1.9px;}.cls-18{stroke-width:3.79px;}.cls-19{stroke-width:1.5px;}.cls-20{fill:#ededee;}.cls-21{fill:#142952;}</style><clipPath id="clip-path"><circle class="cls-1" cx="87.14" cy="84.27" r="82.61" transform="translate(-7.73 159.72) rotate(-82.53)"/></clipPath></defs><title>icon_horizon</title><g id="Layer_2" data-name="Layer 2"><g id="圖層_1" data-name="圖層 1"><circle class="cls-2" cx="86.97" cy="84.51" r="82.61" transform="translate(-24.39 132.52) rotate(-67.5)"/><path class="cls-3" d="M123.57,102c2.79,15.63.61,34.88-6.49,57.1l-74.53-5,1.09-20.72,66.66-29.25Z"/><path class="cls-4" d="M123.16,106.28c-1.49-18.8-3.37-32.38-3.37-32.38l-15.1-.39-67.33,43.3L36.09,149.6l74.41-39.66Z"/><polygon class="cls-5" points="137.49 83.18 123.26 74.11 125.66 69.53 137.8 77.98 137.49 83.18"/><polygon class="cls-6" points="132.77 105.44 140.09 109.94 136.46 82.19 128.19 76.48 132.77 105.44"/><path class="cls-3" d="M132.77,105.44l7.32,4.51s1.79,34.33-19.7,48.54C120.39,158.49,137.49,152.33,132.77,105.44Z"/><path class="cls-7" d="M64.79,107.23l2.06-1.68a.51.51,0,0,1,.83.41l.14,3.49a.52.52,0,0,1-.22.47l-2.08,1.5a.51.51,0,0,1-.8-.42l-.13-3.31A.54.54,0,0,1,64.79,107.23Z"/><path class="cls-7" d="M72.38,102l2.07-1.68a.5.5,0,0,1,.82.4l.15,3.5a.53.53,0,0,1-.23.47l-2.08,1.5a.51.51,0,0,1-.8-.43l-.13-3.3A.57.57,0,0,1,72.38,102Z"/><path class="cls-7" d="M87.94,93.61,90,91.93a.51.51,0,0,1,.83.4l.14,3.5a.55.55,0,0,1-.22.47l-2.08,1.5a.51.51,0,0,1-.8-.43l-.13-3.31A.56.56,0,0,1,87.94,93.61Z"/><path class="cls-8" d="M77.42,16,76,14.31a.44.44,0,0,0-.4-.16l-2.16.21a.46.46,0,0,1-.44-.7l1.14-1.85a.47.47,0,0,0,0-.43l-.87-2a.46.46,0,0,1,.53-.64L76,9.27a.45.45,0,0,0,.42-.1L78,7.72a.45.45,0,0,1,.76.31l.17,2.17a.44.44,0,0,0,.22.36L81,11.66a.47.47,0,0,1,0,.83l-2,.82a.49.49,0,0,0-.28.33l-.46,2.13A.46.46,0,0,1,77.42,16Z"/><path class="cls-8" d="M33.94,99.77l-1.69-2a.52.52,0,0,0-.47-.19l-2.6.26a.55.55,0,0,1-.53-.84L30,94.79a.56.56,0,0,0,0-.52l-1-2.39a.55.55,0,0,1,.64-.76l2.53.62a.59.59,0,0,0,.51-.12l1.94-1.74a.55.55,0,0,1,.92.37l.2,2.6a.53.53,0,0,0,.27.44l2.26,1.32a.56.56,0,0,1-.07,1l-2.42,1a.54.54,0,0,0-.33.39l-.56,2.55A.55.55,0,0,1,33.94,99.77Z"/><path class="cls-8" d="M145.84,49l-1-1.21a.35.35,0,0,0-.3-.12l-1.58.16a.34.34,0,0,1-.32-.52l.84-1.35a.34.34,0,0,0,0-.31l-.64-1.46a.34.34,0,0,1,.39-.46l1.54.37a.34.34,0,0,0,.31-.07L146.27,43a.34.34,0,0,1,.56.23l.12,1.58a.34.34,0,0,0,.16.27l1.38.8a.34.34,0,0,1-.05.61l-1.47.6a.33.33,0,0,0-.2.24l-.34,1.55A.34.34,0,0,1,145.84,49Z"/><path class="cls-8" d="M157.26,90.4l-1.69-2a.56.56,0,0,0-.47-.2l-2.6.26a.55.55,0,0,1-.52-.84l1.37-2.22a.54.54,0,0,0,0-.51l-1-2.39a.56.56,0,0,1,.64-.76l2.54.62a.57.57,0,0,0,.5-.12L158,80.51a.55.55,0,0,1,.92.37l.2,2.6a.54.54,0,0,0,.27.44l2.25,1.32a.55.55,0,0,1-.07,1l-2.41,1a.56.56,0,0,0-.33.4l-.56,2.55A.55.55,0,0,1,157.26,90.4Z"/><path class="cls-8" d="M100.09,20a4.77,4.77,0,0,1-1.87,2.85.43.43,0,0,0,0,.78,4.77,4.77,0,0,1,1.87,2.84.38.38,0,0,0,.69,0,4.79,4.79,0,0,1,1.88-2.84.44.44,0,0,0,0-.78A4.78,4.78,0,0,1,100.78,20,.38.38,0,0,0,100.09,20Z"/><path class="cls-8" d="M28.17,50.54A5.47,5.47,0,0,1,26,53.81a.49.49,0,0,0,0,.88A5.47,5.47,0,0,1,28.17,58a.44.44,0,0,0,.8,0,5.43,5.43,0,0,1,2.15-3.27.49.49,0,0,0,0-.88A5.43,5.43,0,0,1,29,50.54.44.44,0,0,0,28.17,50.54Z"/><path class="cls-8" d="M17.26,68a4.77,4.77,0,0,1-1.87,2.85.43.43,0,0,0,0,.77,4.77,4.77,0,0,1,1.87,2.85.38.38,0,0,0,.69,0,4.74,4.74,0,0,1,1.88-2.85.43.43,0,0,0,0-.77A4.74,4.74,0,0,1,18,68,.38.38,0,0,0,17.26,68Z"/><polyline class="cls-9" points="105.53 76.23 110.5 109.94 106.97 141.99"/><path class="cls-10" d="M124.94,24.62A8.5,8.5,0,0,0,118.12,28a5.7,5.7,0,1,1,2.49,10.82,5.59,5.59,0,0,1-2.49-.57,8.53,8.53,0,1,0,6.82-13.66Z"/><path class="cls-11" d="M69.9,133.21l17.84-10s-7.3,5.6-9.2,13.54C73.84,156.43,83.65,164,83.65,164l-15.41-2.31Z"/><path class="cls-12" d="M83.65,112.33s4-3.22,3.32-8.2c-1.55-11.26-2-12.28,5.32-18.25L81.43,91.45Z"/><path class="cls-13" d="M61.59,123.5a6.1,6.1,0,0,1-2.93-1,5.06,5.06,0,0,1-2.5-4.15l-.32-8.1a.8.8,0,0,0-1.24-.62L36.09,121.5l.34-5.81,18.26-11.76a4,4,0,0,1,4-.07,3.7,3.7,0,0,1,1.92,3.28l.44,11.23a1.11,1.11,0,0,0,.51.37,1.2,1.2,0,0,0,.92-.07l13.23-7.4c3.65-2,4.16-3,4.25-4L78.1,92.53l0-.21a7.78,7.78,0,0,1,3.55-6.11l22.24-14.67,15.72-.29.16,4.72-14.26.26-21,13.89A3.22,3.22,0,0,0,83,92.45l1.89,14.69v.21c-.21,3.76-2.72,5.85-6.69,8L64.8,122.88A6.37,6.37,0,0,1,61.59,123.5Z"/><path class="cls-14" d="M132.41,61.42l3.39,1.17s2.76,8-6.09,11.38c0,0,7,38.81.71,59.8-4.94,16.51-9,17.9-14.06,21.54-2,1.49-8.6,3.16-8.6,3.16s17.7-15,18.63-28.33.17-53.5-1-58.9Z"/><path class="cls-5" d="M121.6,65l10.81-3.59.29,2.11a6.23,6.23,0,0,1-4.45,7l-2.88.72s5.81,32.5,1.15,58.21c-3.45,19.1-20.29,30.13-20.29,30.13s14.79-18.81,16.64-43c1.38-18-2.33-38.45-4.11-46.22A4.52,4.52,0,0,1,121.6,65Z"/><g class="cls-15"><path class="cls-16" d="M80.53,170.7c4.43.09,8.86-.17,13.29-.3.05-.52.09-1.05.09-1.58.16-11-9.14-20.11-20.78-20.28h-.28a25.19,25.19,0,0,0,.33-3.7c.2-14.36-11.91-26.18-27.05-26.39a28.45,28.45,0,0,0-11.68,2.29c-1-8.76-8.77-15.64-18.3-15.77a19.22,19.22,0,0,0-12.74,4.51l26.46,46.25,43.78,15C76,170.76,78.26,170.64,80.53,170.7Z"/><path class="cls-16" d="M165.75,111.43c-.05.11-.08.22-.12.32a34.06,34.06,0,0,0-4.29-2.09,33.42,33.42,0,0,0-45.82,32.91,22.75,22.75,0,0,0-27.72,28c2.92-.1,5.83-.23,8.75-.27l49.54-15,26.94-54A25.48,25.48,0,0,0,165.75,111.43Z"/></g><line class="cls-17" x1="123.74" y1="119.59" x2="139.37" y2="125.75"/><line class="cls-17" x1="120.39" y1="125.25" x2="131.21" y2="129.73"/><line class="cls-17" x1="57.34" y1="134.68" x2="67.92" y2="129.65"/><line class="cls-17" x1="55.83" y1="141.73" x2="70.1" y2="134.58"/><line class="cls-17" x1="20.13" y1="117.36" x2="30.7" y2="112.33"/><line class="cls-17" x1="18.61" y1="124.41" x2="32.88" y2="117.26"/><line class="cls-17" x1="102.6" y1="143.47" x2="113.42" y2="147.95"/><line class="cls-17" x1="95.95" y1="147.26" x2="115.11" y2="154.68"/><circle class="cls-18" cx="87.14" cy="84.51" r="82.61" transform="translate(-28.06 122.77) rotate(-62.5)"/><path class="cls-19" d="M71.58,25.16l-5.91,3.46s32.76,2.24,40.65,38.28a61.16,61.16,0,0,1,10,0S113.73,29.66,71.58,25.16Z"/><path class="cls-19" d="M56.52,34.55l6-3.69s36,5.59,37.94,38.41l-12.8,6.82S92.77,48,56.52,34.55Z"/><path class="cls-19" d="M53.87,36.34l-8.44,5.17S74.87,63,66.42,89.35L83.29,78.18S91.37,54.05,53.87,36.34Z"/><path class="cls-19" d="M35.16,47.56,43.29,43s25.22,16.89,18,50.65L44.46,104.54S60.55,66.88,35.16,47.56Z"/><path class="cls-20" d="M46.87,41.78S74,54.38,75.44,82.52l-7.77,5.13S75.84,65.77,46.87,41.78Z"/><path class="cls-20" d="M36.49,47.69s23,15.38,9.55,54.93L53.17,98S61,59.44,36.49,47.69Z"/><path class="cls-20" d="M58.14,34.37S90.79,45.5,88.59,75l6-3.36S92.68,38.52,58.14,34.37Z"/><path class="cls-20" d="M67.87,28.18S82,25.37,100.69,43.54c0,0,9.79,11.48,11.09,22.38l-4.87.19S104.42,53,95,42.77C84.29,31.18,73.83,29.32,67.87,28.18Z"/><path class="cls-4" d="M54.62,30.88,44.28,22s-8.36-2.45-15.58,9.93C22.58,42.45,12.89,46.42,2.52,41.31c0,0,16.22,20.21,30.87,1.82C43,31.11,54.62,30.88,54.62,30.88Z"/><path class="cls-8" d="M35.28,138.42l-.4-.95a.22.22,0,0,0-.16-.12l-1-.21a.21.21,0,0,1-.1-.37l.77-.68a.23.23,0,0,0,.07-.19l-.11-1a.22.22,0,0,1,.32-.22l.88.53a.22.22,0,0,0,.21,0l.93-.43a.22.22,0,0,1,.3.25l-.23,1a.24.24,0,0,0,.05.2l.7.75a.21.21,0,0,1-.14.36l-1,.1a.2.2,0,0,0-.17.11l-.5.89A.22.22,0,0,1,35.28,138.42Z"/><path class="cls-8" d="M45.53,146l-.86-2a.48.48,0,0,0-.34-.28l-2.14-.43a.47.47,0,0,1-.22-.81L43.62,141a.47.47,0,0,0,.16-.41l-.25-2.17a.46.46,0,0,1,.7-.45l1.88,1.12a.44.44,0,0,0,.43,0l2-.91a.46.46,0,0,1,.64.53l-.48,2.13a.43.43,0,0,0,.11.42l1.48,1.61a.47.47,0,0,1-.3.78l-2.18.19a.5.5,0,0,0-.37.24L46.36,146A.46.46,0,0,1,45.53,146Z"/><path class="cls-21" d="M402.79,131.27l.72-4.94a1.09,1.09,0,0,0-.33-.93L399.51,122a1.06,1.06,0,0,1,.54-1.82l4.92-.85a1,1,0,0,0,.78-.6l2.1-4.53a1.06,1.06,0,0,1,1.9,0l2.32,4.41a1.07,1.07,0,0,0,.82.56l4.95.59a1.06,1.06,0,0,1,.64,1.79L415,125.09a1,1,0,0,0-.28,1l1,4.89a1.06,1.06,0,0,1-1.51,1.16l-4.48-2.21a1.06,1.06,0,0,0-1,0l-4.36,2.44A1.06,1.06,0,0,1,402.79,131.27Z"/><path class="cls-21" d="M193.44,129.61l.72-4.94a1,1,0,0,0-.33-.93l-3.67-3.39a1.07,1.07,0,0,1,.54-1.83l4.92-.85a1,1,0,0,0,.79-.6l2.09-4.53a1.06,1.06,0,0,1,1.9-.05l2.32,4.42a1.07,1.07,0,0,0,.82.56l5,.58a1.07,1.07,0,0,1,.63,1.8l-3.48,3.57a1.07,1.07,0,0,0-.28,1l1,4.9a1.06,1.06,0,0,1-1.51,1.16l-4.48-2.21a1,1,0,0,0-1,0L195,130.68A1.06,1.06,0,0,1,193.44,129.61Z"/><path class="cls-21" d="M298.1,80.54H273.89a1.47,1.47,0,0,1,0-2.93H298.1a1.47,1.47,0,0,1,0,2.93Z"/><path class="cls-21" d="M286.2,98.55a1.47,1.47,0,0,1-1.46-1.47V61a1.47,1.47,0,1,1,2.93,0V97.08A1.47,1.47,0,0,1,286.2,98.55Z"/><path class="cls-21" d="M300.15,93.1c-9.81,0-14.79-11.94-15-12.45a1.46,1.46,0,1,1,2.71-1.11c.05.11,4.45,10.63,12.29,10.63a1.47,1.47,0,0,1,0,2.93Z"/><path class="cls-21" d="M272.26,92.69a1.47,1.47,0,0,1,0-2.93c7.88,0,12.25-10.2,12.29-10.3a1.48,1.48,0,0,1,1.92-.78,1.45,1.45,0,0,1,.78,1.92C287.05,81.09,282.06,92.69,272.26,92.69Z"/><path class="cls-21" d="M280.85,75.14a1.47,1.47,0,0,1-1.46-1.45,6.93,6.93,0,0,0-4.51-6.38,1.47,1.47,0,0,1,.94-2.78,9.86,9.86,0,0,1,6.5,9.13,1.46,1.46,0,0,1-1.45,1.48Z"/><path class="cls-21" d="M291.56,75.14h0a1.46,1.46,0,0,1-1.45-1.48,9.86,9.86,0,0,1,6.5-9.13,1.47,1.47,0,0,1,.94,2.78h0A6.93,6.93,0,0,0,293,73.69,1.47,1.47,0,0,1,291.56,75.14Z"/><path class="cls-21" d="M219.91,74.17a5.78,5.78,0,0,1-4.43-1.93c-2.4-2.68-2.6-7.41-2.51-9.89H201a1.4,1.4,0,0,1,0-2.8h13.46a1.37,1.37,0,0,1,1,.47,1.33,1.33,0,0,1,.35,1.08c-.19,1.83-.26,7.06,1.73,9.27a2.92,2.92,0,0,0,2.34,1c2.18,0,2.46-1.39,2.47-1.45A1.39,1.39,0,0,1,224,68.81a1.41,1.41,0,0,1,1.13,1.62C224.89,71.73,223.5,74.17,219.91,74.17Z"/><path class="cls-21" d="M195.42,74.46a1.4,1.4,0,0,1-.39-2.74c6.42-1.87,7.4-6.48,7.44-6.68a1.39,1.39,0,0,1,2.74.51c0,.26-1.26,6.48-9.4,8.85A1.37,1.37,0,0,1,195.42,74.46Z"/><path class="cls-21" d="M220.79,96.06a5.24,5.24,0,0,1-3.88-1.71c-3.38-3.54-3.71-11.86-3.69-15.35H196.44a1.4,1.4,0,1,1,0-2.79h18.2a1.41,1.41,0,0,1,1,.43,1.38,1.38,0,0,1,.39,1c-.14,3.12.12,11.85,2.89,14.75a2.47,2.47,0,0,0,1.86.85c2.49,0,2.7-3.38,2.71-3.52a1.39,1.39,0,0,1,2.78.14C226.17,92,224.88,96.06,220.79,96.06Z"/><path class="cls-21" d="M196.4,94.88h-.23c-.93-.05-3.19-.6-3.92-4.38A1.4,1.4,0,0,1,195,90c.12.62.49,2.07,1.35,2.13A1.76,1.76,0,0,0,197.86,91c2.6-7.9,1.77-19,1.77-19.07a1.39,1.39,0,1,1,2.78-.22c0,.47.88,11.73-1.9,20.17A4.5,4.5,0,0,1,196.4,94.88Z"/><path class="cls-21" d="M208.78,95.85a1.4,1.4,0,0,1-1.4-1.39V65.3a1.4,1.4,0,1,1,2.79,0V94.46A1.39,1.39,0,0,1,208.78,95.85Z"/><path class="cls-21" d="M221.94,79.12a2.34,2.34,0,1,1-2.33-2.5A2.42,2.42,0,0,1,221.94,79.12Z"/><path class="cls-21" d="M221.94,64.33a2.34,2.34,0,1,1-2.33-2.5A2.42,2.42,0,0,1,221.94,64.33Z"/><ellipse class="cls-21" cx="220.26" cy="86.14" rx="1.68" ry="1.81"/><path class="cls-21" d="M333.72,69.6H318a1.54,1.54,0,0,1,0-3.07h15.69a1.54,1.54,0,0,1,0,3.07Z"/><path class="cls-21" d="M335.05,82.45H316.7a1.53,1.53,0,1,1,0-3.06h18.35a1.53,1.53,0,0,1,0,3.06Z"/><path class="cls-21" d="M334.41,89.71H317.34a1.53,1.53,0,0,1,0-3.06h17.07a1.53,1.53,0,0,1,0,3.06Z"/><path class="cls-21" d="M337.75,96.7H314a1.53,1.53,0,1,1,0-3.06h23.74a1.53,1.53,0,0,1,0,3.06Z"/><path class="cls-21" d="M325.88,95.22a1.54,1.54,0,0,1-1.54-1.53V76.06a1.53,1.53,0,1,1,3.06,0V93.69A1.53,1.53,0,0,1,325.88,95.22Z"/><path class="cls-21" d="M328.65,76.54H323.1a8,8,0,0,1-8-8v-1a8,8,0,0,1,8-8h5.55a8,8,0,0,1,8,8v1A8,8,0,0,1,328.65,76.54ZM323.1,62.65a4.9,4.9,0,0,0-4.89,4.89v1a4.9,4.9,0,0,0,4.89,4.89h5.55a4.9,4.9,0,0,0,4.89-4.89v-1a4.9,4.9,0,0,0-4.89-4.89Z"/><path class="cls-21" d="M311.61,85.68a1.53,1.53,0,0,1-.27-3A5.39,5.39,0,0,0,315.89,77a1.53,1.53,0,0,1,3.06-.14,8.41,8.41,0,0,1-7.07,8.8A1.23,1.23,0,0,1,311.61,85.68Z"/><path class="cls-21" d="M372.63,85.81h-19.3a1.5,1.5,0,1,1,0-3h19.3a1.5,1.5,0,1,1,0,3Z"/><path class="cls-21" d="M375.42,96.7H350.54a1.5,1.5,0,1,1,0-3h24.88a1.5,1.5,0,1,1,0,3Z"/><path class="cls-21" d="M363,95.76a1.5,1.5,0,0,1-1.5-1.5V86a1.5,1.5,0,1,1,3,0v8.3A1.5,1.5,0,0,1,363,95.76Z"/><path class="cls-21" d="M366.53,63.06a3.32,3.32,0,1,1-3.32-3.51A3.42,3.42,0,0,1,366.53,63.06Z"/><path class="cls-21" d="M376.63,75.3a1.5,1.5,0,0,1-1.5-1.5c0-6.57-3.78-6.82-4.21-6.83H354.77a3,3,0,0,0-2.43,1c-1.32,1.53-1.23,4.6-1.08,5.66a1.49,1.49,0,0,1-3,.42c-.08-.52-.67-5.2,1.78-8a6,6,0,0,1,4.69-2h16.15a6.8,6.8,0,0,1,4.56,2c1.76,1.73,2.65,4.37,2.65,7.82A1.5,1.5,0,0,1,376.63,75.3Z"/><path class="cls-21" d="M352.22,80.78a1.5,1.5,0,0,1,0-3A6.15,6.15,0,0,0,357,76c2-2.13,1.71-5.62,1.71-5.66a1.5,1.5,0,0,1,3-.26c0,.19.39,4.81-2.48,8A9,9,0,0,1,352.22,80.78Z"/><path class="cls-21" d="M373.34,80.78a9.05,9.05,0,0,1-7-2.74c-2.86-3.14-2.49-7.76-2.47-8a1.5,1.5,0,0,1,3,.26h0s-.26,3.53,1.71,5.68a6.23,6.23,0,0,0,4.78,1.75,1.5,1.5,0,0,1,0,3Z"/><path class="cls-21" d="M397.8,75.39H385.25a1.42,1.42,0,0,1,0-2.84H397.8a1.42,1.42,0,1,1,0,2.84Z"/><path class="cls-21" d="M394.09,71.71a6,6,0,1,1,5.78-6A5.92,5.92,0,0,1,394.09,71.71Zm0-9.2a3.19,3.19,0,1,0,3,3.18A3.07,3.07,0,0,0,394.09,62.51Z"/><path class="cls-21" d="M388.72,96.28a1.41,1.41,0,0,1-1.2-.67,1.42,1.42,0,0,1,.45-2c3.71-2.29,5-5.88,4.55-7.59-.14-.5-.45-1.08-1.65-1.1-2,0-2.81-.93-3.12-1.67-.92-2.18,1.37-5.24,5.09-9.15l.49-.52a1.43,1.43,0,0,1,2-.24,1.39,1.39,0,0,1,.31,1.92c-.07.1-.33.39-.71.79-3.73,3.93-4.41,5.45-4.51,6a2,2,0,0,0,.52.05,4.33,4.33,0,0,1,4.35,3.18c.83,3-1.11,7.86-5.79,10.76A1.36,1.36,0,0,1,388.72,96.28Z"/><path class="cls-21" d="M407.56,69.68a1.42,1.42,0,0,1-1.42-1.42V61A1.42,1.42,0,1,1,409,61v7.25A1.43,1.43,0,0,1,407.56,69.68Z"/><path class="cls-21" d="M414.14,66.05h-6.58a1.42,1.42,0,0,1,0-2.84h6.58a1.42,1.42,0,1,1,0,2.84Z"/><path class="cls-21" d="M396.1,96.72a1.44,1.44,0,0,1-1-.39,1.41,1.41,0,0,1-.05-2c5-5.27,4.95-11.14,4.91-16.32V76.62c0-5.59,3.27-8.93,8.73-8.93a7.28,7.28,0,0,1,5.49,2.18c2.67,2.78,2.52,7.21,2.51,7.4a1.42,1.42,0,0,1-2.84-.12c0-.05.1-3.43-1.73-5.33a4.5,4.5,0,0,0-3.43-1.29c-3.91,0-5.89,2-5.89,6.09V78c0,5.43.1,12.2-5.69,18.29A1.44,1.44,0,0,1,396.1,96.72Z"/><path class="cls-21" d="M411.71,76.54h-7.25a1.42,1.42,0,0,1,0-2.84h7.25a1.42,1.42,0,0,1,0,2.84Z"/><path class="cls-21" d="M412.76,82.42h-3.09a3.59,3.59,0,0,1-3.53-3.64V71.16a1.42,1.42,0,1,1,2.84,0v7.62a.75.75,0,0,0,.69.8h3.09a1.42,1.42,0,0,1,0,2.84Z"/><path class="cls-21" d="M402.26,97.13a1.42,1.42,0,0,1-1-2.46c4.09-3.77,3.56-10.21,3.55-10.27a1.42,1.42,0,0,1,1.29-1.54,1.41,1.41,0,0,1,1.54,1.28c0,.32.65,7.9-4.45,12.62A1.44,1.44,0,0,1,402.26,97.13Z"/><path class="cls-21" d="M414.66,97.13a4.85,4.85,0,0,1-4.76-4.93V83.54a1.42,1.42,0,0,1,2.84,0V92.2a1.93,1.93,0,1,0,3.84,0V90.37a1.42,1.42,0,0,1,2.84,0V92.2A4.85,4.85,0,0,1,414.66,97.13Z"/><path class="cls-21" d="M248.33,82h-.07a4.4,4.4,0,0,1-4.39-4.39V66.82a4.43,4.43,0,0,1,8.85,0V77.6A4.4,4.4,0,0,1,248.33,82Zm0-17a1.86,1.86,0,0,0-1.91,1.83V77.6a1.84,1.84,0,0,0,1.84,1.83h.07a1.83,1.83,0,0,0,1.83-1.83V66.82A1.83,1.83,0,0,0,248.33,65Z"/><path class="cls-21" d="M251.18,73h-5.53a1.28,1.28,0,0,1,0-2.56h5.53a1.28,1.28,0,1,1,0,2.56Z"/><path class="cls-21" d="M239.54,71.34c-2.43,0-4-.72-4.54-2.13-1.22-3,2.88-7.34,4.17-8.61a1.22,1.22,0,0,1,1.72,1.74c-2,2-4,5-3.62,5.94.11.28.78.61,2.27.61a1.23,1.23,0,1,1,0,2.45Z"/><path class="cls-21" d="M239,79.51c-1.37,0-3-.31-3.75-1.74-1.53-3.1,3.67-8.65,5.3-10.27a1.22,1.22,0,0,1,1.73,1.73c-3,3-5.29,6.53-4.83,7.45.08.18.78.56,3,.27a1.22,1.22,0,0,1,1.38,1,1.24,1.24,0,0,1-1.06,1.38A12.91,12.91,0,0,1,239,79.51Z"/><path class="cls-21" d="M241.15,80.17a1.23,1.23,0,0,1-1.22-1.1l-.58-5.42a1.23,1.23,0,0,1,2.44-.26l.58,5.42a1.23,1.23,0,0,1-1.09,1.35Z"/><path class="cls-21" d="M258.37,71.24c-2.43,0-4-.71-4.54-2.12-1.22-3,2.89-7.34,4.17-8.61a1.22,1.22,0,1,1,1.72,1.74c-2,2-4,5-3.62,5.94.11.28.78.6,2.27.6a1.23,1.23,0,1,1,0,2.45Z"/><path class="cls-21" d="M257.8,79.42c-1.37,0-3-.31-3.75-1.75-1.52-3.1,3.67-8.64,5.3-10.27a1.23,1.23,0,0,1,1.73,1.74c-3,3-5.28,6.53-4.83,7.45.08.17.78.55,3,.26a1.23,1.23,0,0,1,.32,2.43A12.92,12.92,0,0,1,257.8,79.42Z"/><path class="cls-21" d="M260,80.07A1.22,1.22,0,0,1,258.76,79l-.58-5.43a1.23,1.23,0,0,1,2.44-.26l.58,5.43a1.24,1.24,0,0,1-1.09,1.35Z"/><path class="cls-21" d="M260.31,85.93H235.15a1.36,1.36,0,1,1,0-2.71h25.16a1.36,1.36,0,1,1,0,2.71Z"/><path class="cls-21" d="M248.17,96.86a1.31,1.31,0,0,1-1.31-1.31v-14a1.32,1.32,0,0,1,2.63,0v14A1.32,1.32,0,0,1,248.17,96.86Z"/><path class="cls-21" d="M250.33,62a2.08,2.08,0,1,1-2-2.48A2.29,2.29,0,0,1,250.33,62Z"/><path class="cls-21" d="M239.6,94.4a5.55,5.55,0,0,1-5.12-2.84A1.42,1.42,0,0,1,237,90.34c.07.12.85,1.45,3.16,1.18,3.54-.4,5.86-6.37,6.46-8.63a1.42,1.42,0,1,1,2.75.72c-.11.41-2.72,10-8.89,10.74C240.2,94.38,239.89,94.4,239.6,94.4Z"/><path class="cls-21" d="M256.38,94.4c-.29,0-.6,0-.92-.05-6.17-.7-8.78-10.33-8.89-10.74a1.42,1.42,0,1,1,2.75-.72c.6,2.26,2.94,8.24,6.46,8.63,2.32.26,3.09-1.06,3.17-1.21a1.43,1.43,0,0,1,1.9-.61,1.4,1.4,0,0,1,.65,1.86A5.55,5.55,0,0,1,256.38,94.4Z"/><path class="cls-21" d="M236.61,119.42H226.47a1.71,1.71,0,1,1,0-3.41h10.14a1.71,1.71,0,0,1,0,3.41Z"/><path class="cls-21" d="M245.29,132.55a1.41,1.41,0,0,1-1.41-1.41v-8a1.41,1.41,0,1,1,2.82,0v8A1.41,1.41,0,0,1,245.29,132.55Z"/><path class="cls-21" d="M254,132.6a1.42,1.42,0,0,1-1.41-1.42v-6.26a2,2,0,0,0-1.53,0,1.41,1.41,0,0,1-2.82-.13,2.65,2.65,0,0,1,1.39-2.3,4.53,4.53,0,0,1,2.22-.55c2.06,0,3.56,1.2,3.56,2.85v6.38A1.42,1.42,0,0,1,254,132.6Z"/><path class="cls-21" d="M249.64,132.6a1.42,1.42,0,0,1-1.41-1.42v-6.26a2.05,2.05,0,0,0-1.54,0,1.41,1.41,0,0,1-2.81-.13,2.63,2.63,0,0,1,1.39-2.3,4.52,4.52,0,0,1,2.21-.55c2.07,0,3.57,1.2,3.57,2.85v6.38A1.42,1.42,0,0,1,249.64,132.6Z"/><path class="cls-21" d="M259.29,132.85a1.71,1.71,0,0,1-1.7-1.71V123a1.71,1.71,0,0,1,3.41,0v8.17A1.72,1.72,0,0,1,259.29,132.85Z"/><path class="cls-21" d="M260.79,119.29a1.5,1.5,0,1,1-1.5-1.49A1.5,1.5,0,0,1,260.79,119.29Z"/><path class="cls-21" d="M265.61,133.3a1.7,1.7,0,0,1-1.7-1.7V109.46a1.71,1.71,0,0,1,3.41,0V131.6A1.7,1.7,0,0,1,265.61,133.3Z"/><path class="cls-21" d="M277.11,133.3a6.34,6.34,0,0,1-5-2.12c-2.63-3.06-2-8.16-1.87-8.73a1.7,1.7,0,1,1,3.37.5c-.16,1.13-.29,4.42,1.09,6a2.88,2.88,0,0,0,2.37.94,1.71,1.71,0,0,1,0,3.41Z"/><path class="cls-21" d="M271.26,143.25a7.24,7.24,0,0,1-2.37-.42A1.71,1.71,0,0,1,270,139.6a2.64,2.64,0,0,0,2.68-.24c3-2.24,3.64-11.36,3.36-16.57a1.71,1.71,0,1,1,3.41-.18c.08,1.56.65,15.42-4.72,19.47A5.69,5.69,0,0,1,271.26,143.25Z"/><path class="cls-21" d="M235,132.58a5.16,5.16,0,1,1,5.15-5.16A5.17,5.17,0,0,1,235,132.58Zm0-6.9a1.75,1.75,0,1,0,1.74,1.74A1.74,1.74,0,0,0,235,125.68Z"/><path class="cls-21" d="M240.74,132.39h-.05a3.33,3.33,0,0,1-2.49-1.2c-1.88-2.2-1.38-7-1.26-8a1.7,1.7,0,1,1,3.38.43c-.31,2.52,0,5,.5,5.36a1.69,1.69,0,0,1,1.64,1.75A1.72,1.72,0,0,1,240.74,132.39Z"/><path class="cls-21" d="M218.75,132.79a1.71,1.71,0,0,1,0-3.41c5.41,0,6-10.37,6-14.83a6.74,6.74,0,0,1,1.94-5.06,7.67,7.67,0,0,1,5.23-2h4.93a1.71,1.71,0,1,1,0,3.41h-5a4.31,4.31,0,0,0-2.82,1,3.46,3.46,0,0,0-.89,2.6C228.15,126.31,224.81,132.79,218.75,132.79Z"/><path class="cls-21" d="M307.4,132.65h-.84a3.29,3.29,0,0,1-3.29-3.29v-8.83a1.71,1.71,0,0,1,3.41,0v8.71h.72a1.71,1.71,0,1,1,0,3.41Z"/><path class="cls-21" d="M307.4,124.9h-4.24a1.71,1.71,0,0,1,0-3.41h4.24a1.71,1.71,0,1,1,0,3.41Z"/><path class="cls-21" d="M324.63,133a1.72,1.72,0,0,1-1.71-1.71v-8.35a1.71,1.71,0,1,1,3.41,0v8.35A1.71,1.71,0,0,1,324.63,133Z"/><path class="cls-21" d="M324.63,126a1.69,1.69,0,0,1-1-.34,1.71,1.71,0,0,1-.35-2.39,5.29,5.29,0,0,1,3.3-2,5,5,0,0,1,3.79,1.18,1.71,1.71,0,1,1-2.12,2.68,1.74,1.74,0,0,0-1.22-.48,1.94,1.94,0,0,0-1,.62A1.68,1.68,0,0,1,324.63,126Z"/><path class="cls-21" d="M334,133a1.72,1.72,0,0,1-1.71-1.71v-8.35a1.71,1.71,0,1,1,3.41,0v8.35A1.71,1.71,0,0,1,334,133Z"/><path class="cls-21" d="M334,126a1.65,1.65,0,0,1-1-.35,1.7,1.7,0,0,1-.34-2.36,5.33,5.33,0,0,1,3.3-2,5,5,0,0,1,3.79,1.18,1.71,1.71,0,1,1-2.12,2.68,1.41,1.41,0,0,0-2.25.16A1.71,1.71,0,0,1,334,126Z"/><path class="cls-21" d="M314.81,132.53a5.15,5.15,0,1,1,5.15-5.15A5.16,5.16,0,0,1,314.81,132.53Zm0-6.89a1.74,1.74,0,1,0,1.74,1.74A1.74,1.74,0,0,0,314.81,125.64Z"/><path class="cls-21" d="M320.56,132.35h-.05a3.29,3.29,0,0,1-2.48-1.2c-1.89-2.21-1.39-7-1.27-8a1.7,1.7,0,1,1,3.38.43c-.31,2.52,0,5,.5,5.36a1.68,1.68,0,0,1,1.64,1.74A1.71,1.71,0,0,1,320.56,132.35Z"/><path class="cls-21" d="M293,132.7a6.88,6.88,0,0,1-4.9-2.11,1.71,1.71,0,0,1,2.45-2.38,3.41,3.41,0,0,0,3.36,1c1.33-.31,2.71-2.35,2.57-4.62a14.81,14.81,0,0,0-1.18-4.55,14.37,14.37,0,0,1-1.22-5.16,7.27,7.27,0,0,1,3-6.38,5.43,5.43,0,0,1,4.61-.9,1.7,1.7,0,0,1-1.16,3.2,2.81,2.81,0,0,0-1.79.72,4.16,4.16,0,0,0-1.24,3.35,11.49,11.49,0,0,0,1,4,18.16,18.16,0,0,1,1.4,5.55c.22,3.76-2.11,7.41-5.2,8.14A7.46,7.46,0,0,1,293,132.7Z"/><path class="cls-21" d="M374.88,132.12a1.71,1.71,0,0,1-1.71-1.7V108.85a1.71,1.71,0,0,1,3.41,0v21.57A1.7,1.7,0,0,1,374.88,132.12Z"/><path class="cls-21" d="M379.49,132.25a1.71,1.71,0,0,1-1.2-.5l-4.51-4.48a1.69,1.69,0,0,1-.51-1.22,1.74,1.74,0,0,1,.52-1.21l4-3.89a1.7,1.7,0,1,1,2.37,2.45l-2.77,2.68,3.28,3.25a1.71,1.71,0,0,1-1.2,2.92Z"/><path class="cls-21" d="M362.2,132.85a6.84,6.84,0,0,1-4.9-2.11,1.7,1.7,0,0,1,2.45-2.37,3.41,3.41,0,0,0,3.37,1c1.32-.31,2.71-2.35,2.57-4.61a14.81,14.81,0,0,0-1.18-4.55,14.17,14.17,0,0,1-1.22-5.17,7.24,7.24,0,0,1,3-6.37,5.37,5.37,0,0,1,4.61-.9,1.7,1.7,0,0,1-1.16,3.2,2.85,2.85,0,0,0-1.79.72,4.2,4.2,0,0,0-1.24,3.34,11.51,11.51,0,0,0,1,4,18.1,18.1,0,0,1,1.39,5.54c.23,3.77-2.1,7.42-5.2,8.14A7.39,7.39,0,0,1,362.2,132.85Z"/><path class="cls-21" d="M348.1,133.67a6.35,6.35,0,0,1-5-2.13c-2.63-3-2-8.16-1.87-8.73a1.7,1.7,0,0,1,3.37.5h0c-.16,1.13-.29,4.42,1.09,6a2.92,2.92,0,0,0,2.37.94,1.71,1.71,0,0,1,0,3.41Z"/><path class="cls-21" d="M342.25,143.62a7.51,7.51,0,0,1-2.37-.42A1.71,1.71,0,0,1,341,140a2.64,2.64,0,0,0,2.68-.24c3-2.25,3.64-11.36,3.36-16.58a1.71,1.71,0,0,1,3.41-.18c.08,1.57.65,15.42-4.72,19.48A5.75,5.75,0,0,1,342.25,143.62Z"/><path class="cls-21" d="M390.46,133.67a6.31,6.31,0,0,1-4.95-2.13c-2.63-3-2-8.16-1.88-8.73a1.7,1.7,0,0,1,3.37.5h0c-.16,1.13-.28,4.42,1.09,6a2.92,2.92,0,0,0,2.37.94,1.71,1.71,0,1,1,0,3.41Z"/><path class="cls-21" d="M384.61,143.62a7.46,7.46,0,0,1-2.36-.42,1.71,1.71,0,0,1,1.1-3.23,2.63,2.63,0,0,0,2.68-.24c3-2.25,3.64-11.36,3.37-16.58a1.7,1.7,0,1,1,3.4-.18c.08,1.57.66,15.42-4.71,19.48A5.78,5.78,0,0,1,384.61,143.62Z"/></g></g></svg>