<svg id="文字" xmlns="http://www.w3.org/2000/svg" viewBox="0 0 1922.3 1313.8"><defs><style>.cls-1{opacity:0.25;}.cls-2{fill:#062748;}.cls-3{fill:#fd9e10;}.cls-4{fill:#fff;}.cls-5{fill:#f7575f;}</style></defs><title>工作區域 19line</title><g class="cls-1"><path class="cls-2" d="M1769.31,1001.13l-22.78,21a79.28,79.28,0,0,0-23.31,40.37l-4.08,18.15-12.21,21.14a13.16,13.16,0,0,0-13.81,16.63,13,13,0,0,0,1.9,4l-20,34.66-14.32,8.62a65.16,65.16,0,0,0-25.76,29l-10.62,23.49a1.79,1.79,0,0,0,2.55,2.27l22.09-13.3a64.67,64.67,0,0,0,6.32-4.39,63.3,63.3,0,0,0-.64,7.67l-.47,25.78a1.79,1.79,0,0,0,3.24,1.07l15-20.94a65.08,65.08,0,0,0,12.22-36.8l.3-16.71,20-34.65a13.14,13.14,0,0,0,13.81-16.63,13.11,13.11,0,0,0-1.9-4l12.22-21.14,13.66-12.61a79.43,79.43,0,0,0,23.31-40.37l6.81-30.23A2.16,2.16,0,0,0,1769.31,1001.13Z"/></g><path class="cls-3" d="M1763.36,1023.34l6.8-30.24a2.15,2.15,0,0,0-3.55-2.05l-22.78,21a78.18,78.18,0,0,0-15.41,19.69c7.77,6,16.44,10.84,25,15.7A78,78,0,0,0,1763.36,1023.34Z"/><path class="cls-4" d="M1728.42,1031.75a78,78,0,0,0-7.9,20.68l-6.81,30.23a2.16,2.16,0,0,0,3.56,2.06l22.78-21a78.23,78.23,0,0,0,13.37-16.26C1744.86,1042.59,1736.19,1037.77,1728.42,1031.75Z"/><path class="cls-4" d="M1682,1169.46l.44-24.33.24-.53a2,2,0,0,0-3.46-2l-.33.47L1658,1155.62a65.12,65.12,0,0,0-25.76,29l-10.62,23.49a1.78,1.78,0,0,0,2.55,2.26l22.09-13.29a65.89,65.89,0,0,0,6.32-4.39,65.39,65.39,0,0,0-.65,7.67l-.46,25.77a1.79,1.79,0,0,0,3.24,1.08l15-20.94A65.18,65.18,0,0,0,1682,1169.46Z"/><rect class="cls-4" x="1612.27" y="1115.43" width="163.17" height="11.48" transform="translate(-124.32 2026.93) rotate(-59.98)"/><path class="cls-4" d="M1716.07,1101.47a13.28,13.28,0,1,1-16.26-9.39A13.28,13.28,0,0,1,1716.07,1101.47Z"/><path class="cls-5" d="M1708.83,1103.41a5.78,5.78,0,1,1-7.08-4.09A5.79,5.79,0,0,1,1708.83,1103.41Z"/></svg>