<svg xmlns="http://www.w3.org/2000/svg" viewBox="0 0 130.74 115.36"><defs><style>.cls-1{fill:none;stroke:#2f599c;stroke-linecap:round;stroke-linejoin:round;stroke-width:5.19px;}.cls-2{fill:#2f599c;}</style></defs><title>icon_header</title><g id="Layer_2" data-name="Layer 2"><g id="圖層_1" data-name="圖層 1"><path class="cls-1" d="M89.18,112.76s21.65-12.55,24.24-35.06H2.6s10.73,34.84,33.24,34.84Z"/><path class="cls-1" d="M40.12,11.32,71.48,7.85s24,30.6,12.51,53.69L35.5,71.35S47,36.72,40.12,11.32Z"/><path class="cls-1" d="M51,10.12s16,34.19,0,58.1"/><path class="cls-1" d="M62.56,10.12s21.21,27,7,54"/><line class="cls-1" x1="10.85" y1="95.23" x2="107.01" y2="95.23"/><path class="cls-1" d="M113.42,77.7S114.58,63,128.14,63"/><path class="cls-2" d="M103.73,10l-2.38-1.25a.64.64,0,0,0-.54,0l-2.37,1.26a.58.58,0,0,1-.84-.6l.45-2.65a.6.6,0,0,0-.16-.51L96,4.42a.58.58,0,0,1,.32-1l2.66-.39a.56.56,0,0,0,.43-.31L100.54.32a.57.57,0,0,1,1,0l1.2,2.41a.56.56,0,0,0,.43.31l2.66.38a.57.57,0,0,1,.32,1l-1.92,1.89a.58.58,0,0,0-.16.5l.46,2.65A.57.57,0,0,1,103.73,10Z"/><path class="cls-2" d="M120,37.63l-4.08-2.13a1,1,0,0,0-.91,0l-4.07,2.15a1,1,0,0,1-1.42-1l.77-4.54a1,1,0,0,0-.28-.87L106.65,28a1,1,0,0,1,.54-1.67l4.55-.67a1,1,0,0,0,.74-.54l2-4.13a1,1,0,0,1,1.75,0l2,4.12a1,1,0,0,0,.74.53l4.56.65a1,1,0,0,1,.54,1.66l-3.29,3.22a1,1,0,0,0-.27.87l.79,4.53A1,1,0,0,1,120,37.63Z"/></g></g></svg>