<svg xmlns="http://www.w3.org/2000/svg" viewBox="0 0 18.08 17.3"><defs><style>.cls-1{fill:#2f599c;}</style></defs><title>Asset 1line</title><g id="Layer_2" data-name="Layer 2"><g id="圖層_1" data-name="圖層 1"><path class="cls-1" d="M13.6,17.16,9.52,15a1,1,0,0,0-.91,0L4.54,17.19a1,1,0,0,1-1.42-1l.77-4.53a1,1,0,0,0-.29-.87L.3,7.56A1,1,0,0,1,.83,5.89l4.56-.67a1,1,0,0,0,.73-.54l2-4.13A1,1,0,0,1,9.9.54l2,4.12a1,1,0,0,0,.73.54l4.56.65a1,1,0,0,1,.55,1.66L14.5,10.73a1,1,0,0,0-.28.87L15,16.13A1,1,0,0,1,13.6,17.16Z"/></g></g></svg>