<svg xmlns="http://www.w3.org/2000/svg" xmlns:xlink="http://www.w3.org/1999/xlink" viewBox="0 0 1082.98 1038.92"><defs><style>.cls-1,.cls-17,.cls-31,.cls-32,.cls-33{fill:none;}.cls-2{fill:#fdeddf;}.cls-3{fill:#f7c08f;}.cls-14,.cls-3,.cls-49{opacity:0.5;}.cls-4{clip-path:url(#clip-path);}.cls-38,.cls-5{fill:#6fb8d7;}.cls-6{fill:#fdf4e8;}.cls-7{fill:#fbdfc7;}.cls-8{fill:#f8c59b;}.cls-13,.cls-14,.cls-17,.cls-18,.cls-19,.cls-20,.cls-21,.cls-22,.cls-26,.cls-27,.cls-29,.cls-38,.cls-8{fill-rule:evenodd;}.cls-9{fill:#f6b784;}.cls-10{fill:#f8c599;}.cls-11{fill:#0f944a;}.cls-12{fill:#09803f;}.cls-13{fill:#b2602e;}.cls-14{fill:#854122;}.cls-15{fill:#86bc43;}.cls-16{fill:#72a132;}.cls-17,.cls-38{stroke:#d4ecf6;stroke-linejoin:round;stroke-width:3.5px;}.cls-17,.cls-31,.cls-32,.cls-33,.cls-38{stroke-linecap:round;}.cls-18,.cls-36{fill:#fff;}.cls-19{fill:#9a814d;}.cls-20{fill:#796432;}.cls-21{fill:#4f8645;}.cls-22{fill:#73ac68;}.cls-23{fill:url(#linear-gradient);}.cls-24{fill:#999a9d;}.cls-25,.cls-29{fill:#7c7b7c;}.cls-26{fill:#f29600;}.cls-27{fill:#fffffc;}.cls-28{fill:#e73828;}.cls-30{fill:url(#linear-gradient-2);}.cls-31,.cls-32,.cls-33{stroke:#f5b27f;stroke-miterlimit:10;stroke-width:2.3px;}.cls-32{stroke-dasharray:6.95 8.11;}.cls-33{stroke-dasharray:6.81 7.95;}.cls-34{fill:#e35926;}.cls-35{fill:#004059;}.cls-37{fill:#f1af35;}.cls-39{fill:#0f4559;}.cls-40{fill:#d75858;}.cls-41{fill:#f3f3f5;}.cls-42{fill:#40b8be;}.cls-43{fill:#f08c39;}.cls-44{fill:#f4d321;}.cls-45{fill:#595757;}.cls-46{fill:#dbdcdc;}.cls-47{fill:#f7b52c;}.cls-48{fill:#f5b27f;}.cls-49{fill:#3486a9;}</style><clipPath id="clip-path"><path class="cls-1" d="M248,970.65c-1.81-11.86-1.74-27.72-4-44.6-1.79-13.31-1.9-28.16-3.86-43.77-1.74-13.85-6-28.15-7.78-43.27-1.7-14.16-5.31-28.54-7-43.4-1.66-14.38.84-29.45-.78-44.11s-4.82-29-6.34-43.5c-1.56-14.78-7.6-29-9-43.24-1.5-15-1.84-29.87-3.14-43.91.55-.68.31-12.86-2.28-39.85-1-10.83-3.54-23.92-5.15-39.72-1.2-11.8-3.36-25-4.89-39.77-.7-7.63,4.28-23,2.31-42.11-1.25-12.24-7-25.83-8.61-41-1.37-13.11,1.43-27.52-.09-41.88-1.45-13.58-10.38-26.73-11.88-40.65s-1.77-28-3.25-41.56c-1.57-14.4-2-28.48-3.42-41.55-1.7-15.26-5-29.1-6.39-41.21C160,191.12,160.19,172,159.23,166c12.37,1.11,28.63,3.68,43.79-.33,13.1-3.47,26.66-8.7,40.57-12.21s28-6,41.61-6c14.3,0,28.78-1.64,43.41-1.87,14.36-.23,29,4,43.55,3.58,14.41-.45,28.7-6.55,43.22-7.22s28.77-3.62,43.22-4.49,29.31,3.68,43.7,2.59,28.91-3.33,43.23-4.64c14.56-1.33,28.82-4.38,43.06-5.92,14.6-1.58,29.55,1.09,43.69-.72,14.64-1.87,28.17-9.95,42.19-12.06,14.69-2.21,28.71-5.8,42.57-8.27,14.75-2.62,28.81-5.65,42.45-8.56,14.84-3.16,29.69-1,43-4.51-.2,4.55-3.24,19.1-2,42.86.64,12.65,2.9,27.48,3.94,44.09.86,13.63,1.61,28.46,2.74,44.13,1,14.06,4.23,28.67,5.46,43.94,1.15,14.3.71,29.19,2.06,44.2,1.29,14.47,1.77,29.3,3.24,44.12,1.45,14.6,6.14,29,7.76,43.66s5.23,29.19,7,43.69c1.54,13.21,4.12,27.05,6.07,41.6,1.8,13.45-3.36,28.4-1.27,42.67,2,13.61,9.74,26.68,11.93,40.75,2.14,13.74,6.54,27.27,8.81,41.18s-.32,28.55,2,42.32c2.38,14,7.46,27.38,9.85,41,2.49,14.12,2.46,28.42,4.91,41.86,2.61,14.32,9.41,27.38,11.9,40.58,2.76,14.65,2.17,29.13,4.68,41.93,3,15.4,4.28,27.74,6.77,39.67-11.77-1.11-22.74.8-36.4.29-12-.46-24.65-4.52-38.15-4.52-14.49,0-29.74.7-45.3,1.77-14.6,1-29.7,2.75-45,4.56-14.65,1.72-28.68,10.2-43.84,12.54-14.68,2.27-29.87,2.39-44.86,5.13-14.69,2.69-30.19,2-45,5s-28.33,11.39-43,14.67-29.48,6.33-44.07,9.78c-14.77,3.49-29.85,5.24-44.33,8.8-14.84,3.64-29.68,6.49-44,10.1-14.93,3.75-30.07,5.45-44.31,9-15.08,3.82-29.71,7.54-43.8,11-15.33,3.81-28.7,12.89-42.59,16.16C277.77,967.8,261.51,967.91,248,970.65Z"/></clipPath><linearGradient id="linear-gradient" x1="707.35" y1="350.32" x2="710.1" y2="339.8" gradientUnits="userSpaceOnUse"><stop offset="0" stop-color="#b9d9dc"/><stop offset="0.1" stop-color="#c1dcdf"/><stop offset="0.69" stop-color="#eaecf0"/><stop offset="1" stop-color="#faf2f7"/></linearGradient><linearGradient id="linear-gradient-2" x1="703.54" y1="375.11" x2="705.72" y2="366.76" xlink:href="#linear-gradient"/></defs><title>Asset 5line</title><g id="Layer_2" data-name="Layer 2"><g id="Layer_3" data-name="Layer 3"><path class="cls-2" d="M881.79,548.83c-4.9-3.93-10.46-7-12.73-9.23-3.32-3.32,4.17-6.1,10.14-8.34Q876.56,513,874,494.76c-7.51-6.59-29.84-6.33-24.34-13.06,13.94-7.27,16.72-10.5,19.77-21.05C858.35,375.2,850,291,846.87,217.07c-.53-2.28-13.83-10.13-19.4-15.88,8.24-3.75,18.87-11.41,18.38-15.36-1-47.15.38-89.14,5-123.19-137,51.53-545.81,96-736.34,64.46,8.82,28.92,18.09,99.33,27.52,188.24,4.46,6.4,10.38,4.64,13.47,9,4.08,5.71,9,9.78,7.34,12.23-1.35,2-13.33,10.24-16.46,20.89,5,49.88,10.08,104,15.13,158.83a11.51,11.51,0,0,0,.52,1.31c3.26,6.52,22,18.75,20.38,22.83s-9.78,5.71-9,11.42,16.31,14.68,17.13,18.75,1.63,13.87,0,16.31c-1.44,2.16-15.51,10-20,28.56,14.16,154,28,297.74,40.64,354.43,137.06-31.52,590.21-102.7,736.08-63.73C927.48,817.42,902.2,685.65,881.79,548.83Z"/><path class="cls-3" d="M829.31,137.58c6,.75,11.14,4.26,16.29,7.35.36-30.69,2-58.44,5.29-82.29a533.82,533.82,0,0,1-52.63,16.18c-43.74,21.4-117.57,42.81-272.53,53-59.4,3.9-110.71,4.66-155.21,3.58-97.92,4.44-190,2.63-256-8.28,5.69,18.65,11.56,54.59,17.55,101.61,56.5-4.78,128.08-12.15,205.24-20.73,17.52-7.88,35.79-15.77,40.21-15.77,6.36,0,14.71,7.42,21.94,8.76l5.94-.68c8-4.1,11.31-12.15,19.42-12.15s9.78,5.71,23.64,5.71c2.34,0,7,0,13.22-.1,114.44-13.44,230-27.8,319.33-39.06C797.08,146.15,820.33,136.46,829.31,137.58Z"/><g class="cls-4"><rect class="cls-5" x="134.97" y="46.76" width="796.95" height="947.57"/><path class="cls-6" d="M964.81,357.73c-29.91,21.36-76.91,10.68-111.1,25.64-31,13.88-56.6,39.51-76.9,65.15-13.89,17.09-12.82,11.75-32,13.89-13.88,2.13-25.63,8.54-36.32,17.09-9.61,8.54-19.22,19.23-24.56,29.91C673.2,526.5,686,528.64,685,545.73c-4.27,36.31-57.68-19.23-71.57,9.61-2.14,5.34,1.07,12.81,0,18.15-3.21,12.82-7.48,11.76-15,17.1s-7.47,4.27-12.82,11.75c-1.06,1.06,1.07,7.47,0,8.54-2.13,3.21-6.4,1.07-8.54,4.28-5.34,4.27-6.41-2.14-11.75,6.4-1.07,2.14-1.07,15-1.07,17.1,4.27,19.22,20.3,13.88,36.32,22.43,18.16,9.61,11.75,21.36-5.34,32-12.82,7.47-25.64,7.47-23.5,25.63,3.2,20.29,28.84,68.36-15,55.54-18.15-5.34-19.22-18.16-32-28.84-3.2-3.2-9.61-3.2-12.81-5.34-7.48-4.27-10.69-10.68-15-15-6.41-4.27-3.2-5.34-14.95-6.4-6.41,0-11.76,1.06-18.16,2.13-3.21,0-13.89-2.13-16,0-7.48,5.34-1.07,10.69-5.34,16-7,9.6-29,20.63-45.49,23.75-5.84-.52-11.68-.79-16.46-1.32-16-2.14-17.09,2.14-31,7.48-16,7.47-21.36-2.14-27.77-19.23-8.55-21.37-1.07-19.23,11.75-35.25,13.89-18.16-9.61-57.68-26.71-69.43-24.57-18.16-50.2-7.48-75.83-1.07-16,3.21-20.3-1.07-31-10.68-4.27-4.27-12.82-7.48-13.89-13.89-1.07-10.68,6.41-8.54,9.62-16,12.81-33.12-58.76-22.43-40.6-49.13,5.34-7.48,16,1.07,13.89-11.75-1.07-2.14-18.16-16-20.3-16-14.95-4.27-21.36,12.82-37.38,9.62-29.91-5.34-24.57-48.07-5.34-57.69,6.41-3.2,18.16-1.06,23.5-5.34,8.54-7.48,2.13-14.95,6.41-23.5,3.2-7.48,9.61-6.41,11.75-16,1.06-5.34-4.28-13.89-2.14-19.22,9.61-21.37,17.09,21.35,22.44,28.84,10.39,18.18,20.63,26.88,12.16,49.1-12.42,32.55,31,30,42.31,54.51,8.31,18-9,33.81-9.86,51-.45,9.25,14.22,23.36,23.63,22.82,18-1-6.28-27.05,9-32.94,10.07-3.88,21.26,9.71,28.88,5.2,4-2.35.26-10.82,3.71-13.8s11-1.62,15.54-1.21c10.3.92,26.23,3.49,31.08,14.29,4.12,9.18-8.05,15.28,4.84,23,5.34,3.2,16-5.34,14.95,6.41-1.07,8.54-14.95,6.41-13.89,20.3,0,2.13,9.62,18.15,11.76,21.36,3.2,5.34,1.06,14.95,12.81,12.82,6.41-1.07,21.37-24.57,23.5-32,1.07-4.27-2.13-11.75,0-15,3.21-6.41,11.76-1.07,15-10.69,3.2-12.82-19.23-24.56,1.07-34.18,19.22-8.55,20.29,16,28.83,19.23,8.55,2.13,21.37-10.68,32.05-6.41,12.82,5.34,10.68,21.36,27.77,21.36,11.75,0,29.91-11.75,34.19-23.5,4.27-13.88-6.41-20.29-15-27.77S482,542.52,488.4,529.7c5.35-11.75,19.23-7.47,31-8.54,19.21-2.14,21.36-6.4,11.78-23.45C515,468.93,563.49,449,514,440c-13.89-2.13-21.36-8.54-32-12.81-16-5.35-24.57,1.06-38.46,4.27-11.75,2.13-21.37-3.21-18.16,14.95-8.55,2.14-19.22,2.14-27.77,1.07-14.95-2.13-19.23-2.13-34.18,3.21-10.68,4.27-23.5,10.68-33.12,7.47-2.13,0,0-7.47-3.2-8.54s-9.61,1.07-12.82-1.07c-3.79-2.28-7.59-.78-9.09-3.94,3.47-33.12-28.95-.6-46.45-7.81-19.23-8.55,13.88-9.61,7.48-22.43-8.55-12.82-22.43,5.34-23.5-17.09-2.14-33.11,29.9-8.54,45.92-4.27,18.16,4.27,36.32,10.68,54.48,6.41-3.2-9.62-4.27-12.82,0-21.37,1.07-2.13,8.55,0,9.62-2.13,2.13-3.21,1.07-8.55,2.13-10.68,2.14-3.21,4.28-9.62,6.41-12.82,3.21-6.41,9.62-7.48,10.69-15,1.06-6.41,0-10.68-3.21-16-1.07-1.07-17.09-16-17.09-15-2.14-1.07-32.05,6.4-38.46,10.68-3.2,3.2-3.2,11.75-8.54,16-3.21,4.27-16,7.48-20.3,8.55-12.82,2.13-23.49,3.2-35.24,7.47-3.21,1.07-10.68,1.07-13.89,2.14-6.41,2.14-6.41,12.82-18.16,2.14-15-13.89,6.41-26.71,13.89-39.53,4.27-6.41,4.27-14.95,7.48-21.36,4.27-7.48,8.54-11.75,16-18.15,9.61-9.62,20.29-18.16,23.49-32.05,2.14-13.89-1.07-22.44-8.54-34.19-5.34-8.54-26.7-25.63-24.57-34.18,5.35-20.3,63-6.41,79.05-9.61,27.77-5.34,50.2-27.77,79-31,14.95-2.14,39.52-3.21,38.45,18.15-1.07,11.75-16,24.57-22.43,34.18-9.61,13.89-16,26.71,4.27,27.77,16,1.07,37.39-11.74,16,12.83-7.48,7.47-25.64,24.56-13.89,36.31,13.88,12.82,26.7-6.4,35.25-10.68,15.09-7.55,22.06,12.55,27.23,22.7,3.59,7,26.49,40.3,33.33,25.31,3.83-8.41-13-26.6-14.63-35.19-2.13-10.68,5.35-12.82,8.55-21.36,5.34-13.89,3.2-11.76-2.14-22.44-4.27-7.48-9.61-2.13-8.54-12.82,1.07-6.4,11.75-9.61,12.82-17.09,3.2-17.09-15-19.23-17.1-34.18-2.13-22.43,11.76-12.82,24.57-6.41,19.23,10.68,23.51,9.61,37.38-8.54,9.62-13.88,15-22.43,32-26.71,12.82-2.13,24.57-3.2,37.39-7.47,15-4.27,67.29-13.89,78,1.07,5.34,8.53-6.39,29.86-5.34,38.42,1.5,12.26,5.24,47,23.65,37.66,21-10.67,18.45-52,33-68.61,15-14.95,66.23-31,71.57-4.27,3.2,16-20.3,23.5-18.16,33.11,2.14,11.75,24.57,2.13,29.9,1.07,23.5-8.55,43.8-22.43,69.44-19.23,40.59,4.28,33.11,33.11,48.06,60.89,15,25.63,45.93,55.55,49.13,86.53C1012.87,297.91,984,343.84,964.81,357.73Z"/><path class="cls-7" d="M553.81,677.61c.19,2.83-3.47,5.82-7.24,13.16-4.21,8.21-2.53,28.41-16,26.42-9.12-1.35-14-11.77-19.92-17.67-7.7-7.73-15-9.95-26-10.9-.91-.08-1.83-.12-2.74-.12h-7.49c-6.53,1-14.85,1.58-18.49,1.19h-3.81c-9.29,0-17.1,2.53-23.26,7.53l-8.31,6.36v0c-5.79,16.21-11.68,22.61-28.19,25.15-9.71,1.5-28.36,8.26-30.24-7-1.73-14,14.53-26.38,22.94-35.36a114.08,114.08,0,0,0,20.59-30.91c4.65-10.06,8.58-20.74,20.44-23.91,13.31-3.54,27.78,5.65,36.41,15,3.57,3.87,30.89-1.63,36-3,8.3-2.21,23.68-15.63,31.91-10.8,8.9,5.24,11.44,27.15,13.29,36C551,673.15,553.65,675.33,553.81,677.61Z"/><path class="cls-7" d="M965.54,246.67q1,1.79,1.92,3.66c6,12.33,13.84,26.13,10.42,40.24-3.13,12.87-13.76,24.19-22.32,33.78-8.39,9.4-19.3,15.91-31.81,17.87-13.49,2.11-28.29-3.25-41.09,2.89-35.28,7.83-65.6,19.29-92.7,44.37-14.54,13.46-25.43,33.54-44,41.75-19.1,8.43-39.1,10.12-56.18,23.53-22.61,17.75-29.58,60.36-60.6,61.76-19,.85-36.57,8.27-44.07,27.37-4,10.27-8.58,20.78-14.68,30-10.1,15.32-15.32,14.6-23.21-1.43-8.73-17.69-12.63-18.94,8.6-29.34A354,354,0,0,1,572.32,511c-4.34-8-12.09-18.61-12.18-28.14-.06-7.47,4.94-14.33,6.15-21.68,4.36-26.68-12.88-41.05-35.89-47.65-21.7-6.22-40-18.14-63.47-17.76-16.81.27-33.67,5.14-49.37,11-10.29,3.81-27.28,17.57-39.05,11.87-21.06-10.2,10.45-47.28,16.91-57.29,13.84-21.47,6.46-55.76-13.77-70.61-22.5-16.51-37-16-62.25-7.61-8.86,2.94-19.58,4.53-26.56,11.09-4.58,4.31-12.92,23.5-21.8,20.26-12-4.4,17.45-30.3,20.44-33.8a67,67,0,0,0,16.42-43.8c0-9.89-5.92-19.79-5-29.71,1.29-14.88,12.13-11.48,24.41-13.4a125.92,125.92,0,0,0,34.45-10.93c4.89-2.33,13.18-11.23,18.89-9.5,10,3,2.67,19.36,2.77,26.18a148.5,148.5,0,0,0,4,31.41c5,21.12,5.31,45.64,24.56,59.87,12.73,9.41,27,3.22,41.15,5.22,12.2,1.74,20.46,10.06,29.36,17.88,11.5,10.13,26.74,24.41,43.42,19.83,29.06-8,28.69-38.11,21.25-60.76-4.82-14.67-.11-27.33-.13-42.2,0-11.54-7-25-1.22-35.81s19.11-15.24,28.08-22.75c10.06-8.43,17.09-20.48,28.82-26.92,13.84-7.59,34.43-8.73,49.94-10.61,15.14-1.83,21.13,3.17,23.34,18.56,3.53,24.53,8.34,60.1,39.32,63.3,16.93,1.75,32.3-6.42,42.08-20,6.91-9.61,7.39-24.07,16.11-32.35,12.62-12,21.62,1.15,32.24,8.39,9.61,6.56,22.72,9.45,34.22,6.18,17.36-4.93,33.22-14.8,50.75-19.47,21.87-5.83,35.28,13.53,44,30.42C944.74,209.07,954.88,227.64,965.54,246.67Z"/><path class="cls-8" d="M727.5,304.44c-11.92-9.83-19.42-13.35-32.65-.92-8.07,8.17-24.83,28.1-30.28,38.21-5.29,11.24-6.26,35.77-7.8,48.77-3.46,24.1-7.81,60.85,29.77,51.06,18.69-4.87,21.24-25,25.2-40.7C719.64,368.32,756.9,330.23,727.5,304.44Z"/><path class="cls-9" d="M599.29,197.1c.09.1-.26.53-1,1.24a9.13,9.13,0,0,1-3.91,2,8.73,8.73,0,0,1-3.13.14,10.27,10.27,0,0,1-1.7-.35,16.16,16.16,0,0,1-1.7-.57c-2.27-.86-4.52-2.11-7-2.84a13.23,13.23,0,0,0-7-.16,12.91,12.91,0,0,0-5.29,2.43c-1.37,1-2.45,2-3.26,2.59s-1.28.89-1.37.79.21-.57.85-1.34a30.76,30.76,0,0,1,2.9-3.11,13.11,13.11,0,0,1,5.75-3.12,17.67,17.67,0,0,1,3.85-.56,16.63,16.63,0,0,1,2.09.13,16.86,16.86,0,0,1,2.08.47,62.14,62.14,0,0,1,7.1,3.05,10.44,10.44,0,0,0,5.6,1.09,11.11,11.11,0,0,0,3.72-1.31C598.68,197.23,599.21,197,599.29,197.1Z"/><path class="cls-9" d="M603.59,204.94c.09.1-.23.48-.92,1.08a9.45,9.45,0,0,1-1.41.89,7.42,7.42,0,0,1-1,.38l-.55.19-.6.11a12.62,12.62,0,0,1-5.73-.4c-2.06-.55-4.16-1.45-6.35-2.21a17.69,17.69,0,0,0-6.16-1.16,14.12,14.12,0,0,0-5,1.19c-2.76,1.19-4.25,2.44-4.45,2.2s1-1.82,3.83-3.44a13.61,13.61,0,0,1,5.47-1.75,17.21,17.21,0,0,1,6.91,1.11c2.3.8,4.34,1.72,6.22,2.32a12.86,12.86,0,0,0,5,.77l.53,0,.49-.1c.31-.08.63-.11.9-.2.54-.22,1-.33,1.42-.52C603,205,603.51,204.83,603.59,204.94Z"/><path class="cls-9" d="M615.85,216.88c.07.09-.29.62-1.29,1.23a8.05,8.05,0,0,1-4.78.87,22.6,22.6,0,0,1-6.77-2c-2.4-1-4.91-2.42-7.56-3.64a23,23,0,0,0-3.89-1.46,7.61,7.61,0,0,0-1.83-.28,2.67,2.67,0,0,0-.79.07,4.07,4.07,0,0,0-.81.22,14.21,14.21,0,0,0-3,1.63c-.92.63-1.75,1.27-2.51,1.88-1.5,1.2-2.7,2.23-3.57,2.9s-1.41,1-1.5.89.27-.6,1-1.44a45.89,45.89,0,0,1,3.19-3.39,27.6,27.6,0,0,1,2.46-2.15,14.14,14.14,0,0,1,3.32-2,5.81,5.81,0,0,1,1.07-.33,4.65,4.65,0,0,1,1.2-.14A9.9,9.9,0,0,1,592,210a22.64,22.64,0,0,1,4.26,1.55c2.76,1.27,5.21,2.68,7.5,3.79a25.81,25.81,0,0,0,6.2,2.29,8.74,8.74,0,0,0,4.28-.2C615.23,217.08,615.76,216.76,615.85,216.88Z"/><path class="cls-10" d="M670.76,223.17c-4.78,7.77-11.66,0-35,5.53-12.28,2.91-12.41,4-22.57-1.35C622.48,230.19,640.87,216.29,670.76,223.17Z"/><path class="cls-11" d="M614.09,175.82c-6-5.27-8.88-14,.92-23.55C615.51,157.35,618.53,166.25,614.09,175.82Z"/><path class="cls-12" d="M614.79,152.48c-1.92,2.81-4,14.86-.7,23.34-.7-.7-1.36-1.37-2-2C607.65,168.49,606.4,160.77,614.79,152.48Z"/><path class="cls-13" d="M613.53,176.78c14.65,13.42,20.59,34,22.23,48.57.66.91,4.3.82,6.79-.9-1.38-8-10.84-38.77-27.82-48.56A3.25,3.25,0,0,0,613.53,176.78Z"/><path class="cls-14" d="M619.91,183.71a56.36,56.36,0,0,0-6.38-6.93,3.25,3.25,0,0,1,1.2-.89c17,9.79,26.44,40.6,27.82,48.56a7.74,7.74,0,0,1-1.86.94C637.71,202.52,624.15,186.82,619.91,183.71Z"/><path class="cls-12" d="M614.43,176.47c-4-.55-15.11.49-21.49-9.53C598.39,165.6,607.69,167.12,614.43,176.47Z"/><path class="cls-11" d="M608.75,168.14c-.54.29-1.18-.1-.69-.56a15.83,15.83,0,0,0-2.2-1.39c-.48.57-2,.54-1.51-.66a11.84,11.84,0,0,0-11.49,1.53c3-1.2,10.8-.82,21.75,9.76A21.28,21.28,0,0,0,608.75,168.14Z"/><path class="cls-12" d="M613.81,176.27c4.35,2.12,14.64,10.51,27.6,4.8C636.9,176.14,626.69,171.48,613.81,176.27Z"/><path class="cls-11" d="M625,171.79c.35.64,1.24.68,1.06-.1a18.66,18.66,0,0,1,3.1.08c.1.88,1.6,1.85,1.93.35a14.16,14.16,0,0,1,10.38,9.13c-2.2-3.18-10.16-8-28-4.75A25.41,25.41,0,0,1,625,171.79Z"/><path class="cls-11" d="M588.49,188.59a43.12,43.12,0,0,1,11.26-6.48c.27-1.57,1.52-1.66,1.75-.71,5.77-2.26,11.13-3.69,13.08-4.77C593.36,165.46,589.21,182.53,588.49,188.59Z"/><path class="cls-12" d="M601.5,181.4c-.23-1-1.48-.86-1.75.71a43.38,43.38,0,0,0-11.07,6.32c6.78-16,20.39-13,25.8-11.9a.94.94,0,0,0,.1.1C612.63,177.71,607.27,179.14,601.5,181.4Z"/><path class="cls-11" d="M637.78,160.26a43,43,0,0,0-11.39,6.23c-1.48-.59-2.21.43-1.52,1.12-4.94,3.74-9,7.57-10.89,8.68C615.5,152.36,632.23,157.72,637.78,160.26Z"/><path class="cls-12" d="M624.87,167.61c-.69-.69,0-1.71,1.52-1.12a43.16,43.16,0,0,1,11.16-6.15c-17.17-2.55-21.7,10.64-23.61,15.81,0,0,0,.1,0,.14C615.91,175.18,619.93,171.35,624.87,167.61Z"/><path class="cls-12" d="M614.39,176.21c2.51,2.37,3.43,5.66,3.57,9.1-1.79,0-2.24,1.78,0,2.25,0,.87-.12,1.74-.22,2.6-1.25-.08-1.46.91-.16,1.25-.61,4.2-1.68,7.94-1.6,9.76C612.93,198.29,598,186.14,614.39,176.21Z"/><path class="cls-11" d="M614.11,176.38l.28-.17c2.51,2.37,3.43,5.66,3.57,9.1-1.79,0-2.24,1.78,0,2.25,0,.87-.12,1.74-.22,2.6-1.25-.08-1.46.91-.16,1.25-.61,4.2-1.68,7.94-1.6,9.76l-.21-.19C610,191.53,612.42,180,614.11,176.38Z"/><path class="cls-15" d="M651.74,150.07c4.9-9.8,4.1-22.51-13.31-29.59C640.42,127.23,641.15,140.14,651.74,150.07Z"/><path class="cls-16" d="M638.83,120.64c3.89,2.59,12.72,16.91,12.91,29.43.53-1.26,1-2.46,1.49-3.62C656.19,137.4,653.81,126.9,638.83,120.64Z"/><path class="cls-13" d="M652.94,151c-11.79,24.67-8.79,54-3.36,73.44-.38,1.49-5.07,3.26-9.14,2.34-2.33-10.86-6.12-55.07,10.51-76.3A4.48,4.48,0,0,1,652.94,151Z"/><path class="cls-14" d="M648.38,163.12A78.31,78.31,0,0,1,652.94,151a4.48,4.48,0,0,0-2-.52c-16.63,21.23-12.84,65.44-10.51,76.3a10.69,10.69,0,0,0,2.87.24C635.33,196.31,644.57,169.28,648.38,163.12Z"/><path class="cls-16" d="M651.63,151.06c4.85-2.76,19.54-7.14,22.53-23.22C666.51,128.93,655.43,135.66,651.63,151.06Z"/><path class="cls-15" d="M654.59,137.51c.85.1,1.47-.73.6-1.06a20.06,20.06,0,0,1,2.1-2.91c.9.47,2.8-.33,1.58-1.62a16.29,16.29,0,0,1,15.45-4c-4.46,0-14.2,4.52-22.73,23.66A29.22,29.22,0,0,1,654.59,137.51Z"/><path class="cls-16" d="M652.32,150.5c-4.45,4.94-13.26,20.94-32.75,20.33C622.78,162.21,633.43,151,652.32,150.5Z"/><path class="cls-15" d="M635.79,150.51c-.1,1-1.22,1.51-1.4.42a24.7,24.7,0,0,0-3.91,1.71c.33,1.17-1.09,3.17-2.29,1.42-6.09,4.35-9,11.06-8.54,17,1.17-5.19,8.87-15.39,33.32-20.48A34.9,34.9,0,0,0,635.79,150.51Z"/><path class="cls-15" d="M691,153.18c-5.38-1.81-11.68-2.39-17.7-2.47-1.15-1.86-2.8-1.34-2.6,0-8.53.09-16.11,1-19.15.66C672.85,126.17,686.94,145.82,691,153.18Z"/><path class="cls-16" d="M670.68,150.7c-.2-1.33,1.45-1.85,2.6,0a59.78,59.78,0,0,1,17.38,2.37c-16.88-16.92-32.7-6.05-39.06-1.91l-.07.19C654.57,151.72,662.15,150.79,670.68,150.7Z"/><path class="cls-15" d="M613.49,142.4c5.66-.39,11.9.64,17.75,2.09,1.59-1.52,3-.59,2.52.65,8.22,2.23,15.33,5.05,18.36,5.47C637.85,120.85,619.26,136.3,613.49,142.4Z"/><path class="cls-16" d="M633.76,145.14c.52-1.24-.93-2.17-2.52-.65a59.62,59.62,0,0,0-17.41-2.1c20.6-12.11,33.16,2.41,38.27,8,0,.07,0,.14,0,.2C649.09,150.19,642,147.37,633.76,145.14Z"/><path class="cls-16" d="M651.56,150.72c-2,4.31-1.47,9,.12,13.45,2.29-.93,3.78,1.12,1.16,2.86.5,1.1,1,2.17,1.62,3.22,1.55-.75,2.34.4.85,1.5,2.94,5.05,6.23,9.28,7.07,11.64C664.78,178.15,677.55,155,651.56,150.72Z"/><path class="cls-15" d="M652,150.79l-.44-.07c-2,4.31-1.47,9,.12,13.45,2.29-.93,3.78,1.12,1.16,2.86.5,1.1,1,2.17,1.62,3.22,1.55-.75,2.34.4.85,1.5,2.94,5.05,6.23,9.28,7.07,11.64,0-.11.1-.23.16-.35C665.07,168,656,154.47,652,150.79Z"/><path class="cls-9" d="M665.66,268.4c.09.1-.26.53-1,1.24a9.13,9.13,0,0,1-3.91,2,8.52,8.52,0,0,1-3.13.13,10.23,10.23,0,0,1-1.7-.34,16.16,16.16,0,0,1-1.7-.57c-2.27-.86-4.52-2.11-7-2.84a13.34,13.34,0,0,0-7-.17,13,13,0,0,0-5.29,2.44c-1.37,1-2.45,2-3.26,2.59s-1.28.89-1.37.79.21-.56.84-1.34a32.34,32.34,0,0,1,2.91-3.11,13.11,13.11,0,0,1,5.75-3.12,17.58,17.58,0,0,1,3.84-.56,18.75,18.75,0,0,1,2.1.12,19,19,0,0,1,2.08.48,62.14,62.14,0,0,1,7.1,3.05,10.54,10.54,0,0,0,5.6,1.09,11.11,11.11,0,0,0,3.72-1.31C665.05,268.53,665.58,268.3,665.66,268.4Z"/><path class="cls-9" d="M670,276.24c.09.1-.23.48-.92,1.08a10,10,0,0,1-1.41.89,7.42,7.42,0,0,1-1,.38l-.55.2-.6.11a12.77,12.77,0,0,1-5.73-.41c-2.06-.55-4.16-1.45-6.35-2.2a17.72,17.72,0,0,0-6.16-1.17,14.12,14.12,0,0,0-5,1.19c-2.76,1.18-4.25,2.44-4.45,2.2s1-1.82,3.83-3.44a13.46,13.46,0,0,1,5.47-1.75,17.21,17.21,0,0,1,6.91,1.11c2.3.8,4.34,1.73,6.22,2.33a13,13,0,0,0,5,.76l.53,0,.49-.1c.31-.08.63-.1.9-.2.54-.22,1-.33,1.42-.52C669.4,276.3,669.88,276.13,670,276.24Z"/><path class="cls-9" d="M688.29,289.32c.07.09-.29.62-1.29,1.23a8.13,8.13,0,0,1-4.78.87,22.9,22.9,0,0,1-6.77-2c-2.4-1.05-4.91-2.42-7.56-3.65a23,23,0,0,0-3.89-1.46,8.75,8.75,0,0,0-1.83-.28,3.57,3.57,0,0,0-.79.07,4.1,4.1,0,0,0-.81.23,13.36,13.36,0,0,0-3,1.63c-.92.62-1.75,1.27-2.51,1.87-1.5,1.21-2.7,2.24-3.57,2.91s-1.41,1-1.5.88.26-.59,1-1.43a45.65,45.65,0,0,1,3.19-3.4,27.59,27.59,0,0,1,2.46-2.14,14.14,14.14,0,0,1,3.32-2,5.82,5.82,0,0,1,1.07-.34,4.65,4.65,0,0,1,1.2-.14,9.38,9.38,0,0,1,2.25.29,23.33,23.33,0,0,1,4.26,1.54c2.76,1.28,5.21,2.69,7.5,3.8a25.74,25.74,0,0,0,6.2,2.28,8.64,8.64,0,0,0,4.28-.19C687.67,289.52,688.2,289.2,688.29,289.32Z"/><path class="cls-17" d="M249.84,488.74a9.1,9.1,0,1,1-18.2,0m18.2,0a9.1,9.1,0,1,0,18.2,0m18.21,0a9.1,9.1,0,1,0,18.2,0m-18.2,0a9.11,9.11,0,0,1-18.21,0"/><path class="cls-17" d="M268.21,507.16a9.11,9.11,0,0,1-18.21,0m18.21,0a9.1,9.1,0,0,0,18.2,0m18.2,0a9.11,9.11,0,0,0,18.21,0m-18.21,0a9.1,9.1,0,0,1-18.2,0"/><path class="cls-18" d="M608.45,629.45c11.06,1,17.38,3.32,22.3,8.9,1.12-7.36,5.15-12.76,13.93-19.57-9.22,5.32-13.69,9.23-15.53,14.11C625,629.79,619.07,628.92,608.45,629.45Z"/><path class="cls-18" d="M659.59,608.14c8.62,1.58,13.41,3.91,16.86,8.66,1.43-5.7,5-9.64,12.41-14.33-7.64,3.49-11.45,6.23-13.26,9.92C672.54,609.64,668,608.52,659.59,608.14Z"/><path class="cls-18" d="M621.84,602.66c8.62,1.59,13.41,3.91,16.86,8.67,1.43-5.7,5-9.65,12.41-14.33-7.64,3.48-11.45,6.22-13.27,9.92C634.78,604.17,630.23,603,621.84,602.66Z"/><path class="cls-18" d="M697.92,623.32c6.05,1.11,9.41,2.74,11.82,6.07,1-4,3.51-6.76,8.7-10-5.36,2.44-8,4.36-9.3,6.95C707,624.38,703.81,623.59,697.92,623.32Z"/><path class="cls-17" d="M680.79,758.44a9.1,9.1,0,1,1-18.2,0m18.2,0a9.11,9.11,0,0,0,18.21,0m18.2,0a9.11,9.11,0,0,0,18.21,0m-18.21,0a9.1,9.1,0,1,1-18.2,0"/><path class="cls-17" d="M699.16,776.86a9.1,9.1,0,1,1-18.2,0m18.2,0a9.1,9.1,0,1,0,18.2,0m18.21,0a9.1,9.1,0,1,0,18.2,0m-18.2,0a9.11,9.11,0,1,1-18.21,0"/><polygon class="cls-19" points="746.26 647.45 751.71 656.46 792.85 656.46 801.31 647.45 746.26 647.45"/><path class="cls-18" d="M758.69,647.69h25.46v-43.4C762.28,620.18,758.69,647.69,758.69,647.69Z"/><path class="cls-20" d="M410.78,150.76h-4v14.15c1.41,1,2.75,1.1,4,0Z"/><path class="cls-21" d="M408.79,126.4c-7.83,0-14.19,6.66-14.19,14.87s6.36,14.87,14.19,14.87S423,149.48,423,141.27,416.62,126.4,408.79,126.4Z"/><path class="cls-20" d="M555.59,487.41H552V500a2.59,2.59,0,0,0,3.55,0Z"/><path class="cls-21" d="M553.81,459.41c-5.61,0-10.16,7.34-10.16,16.4s4.55,16.39,10.16,16.39S564,484.86,564,475.81,559.43,459.41,553.81,459.41Z"/><path class="cls-20" d="M565.8,599.82H562v7.63a4.42,4.42,0,0,0,3.81,0Z"/><path class="cls-21" d="M563.9,562.06a70.72,70.72,0,0,0-11.07,38.13,34.5,34.5,0,0,0,22.13,0C574.26,587.48,570,574.77,563.9,562.06Z"/><path class="cls-20" d="M545.56,633.63h-3.82v7.64a4.48,4.48,0,0,0,3.82,0Z"/><path class="cls-22" d="M543.65,595.87A70.75,70.75,0,0,0,532.59,634a34.47,34.47,0,0,0,22.12,0C554,621.3,549.78,608.58,543.65,595.87Z"/><path class="cls-20" d="M501.25,335.41h-3.82V343a4.44,4.44,0,0,0,3.82,0Z"/><path class="cls-22" d="M499.34,297.65a70.84,70.84,0,0,0-11.07,38.14,34.57,34.57,0,0,0,22.13,0C509.7,323.07,505.47,310.36,499.34,297.65Z"/><path class="cls-20" d="M754.86,271.53H751v7.64a4.48,4.48,0,0,0,3.82,0Z"/><path class="cls-22" d="M753,233.77a70.75,70.75,0,0,0-11.06,38.14,34.53,34.53,0,0,0,22.12,0C763.32,259.2,759.08,246.48,753,233.77Z"/><path class="cls-23" d="M698.8,341.33l.94-2.39c-1,1.22-13.37,19.38,9.59,1.5,7,1.74,11.65,5.09,11.47,5.2s0,3.16-.61,3.65a2,2,0,0,1-2.08.56c-1.13-.24-8.71-1-13.23-1.82a36.28,36.28,0,0,1-7-1.87Z"/><path class="cls-24" d="M699.93,342.84c-.52,2-1.45,3.48-2.08,3.32s-.71-1.92-.19-3.91a10.62,10.62,0,0,1,.46-1.38c.51-1.25,1.15-2.06,1.62-1.93C700.37,339.1,700.46,340.85,699.93,342.84Z"/><path class="cls-25" d="M699.88,339a4.12,4.12,0,0,0-1.23,1.85,10.62,10.62,0,0,0-.46,1.38c-.47,1.82-.44,3.42,0,3.81a5.85,5.85,0,0,0,1.69-3.22C700.41,341,700.37,339.4,699.88,339Z"/><polygon class="cls-26" points="714.72 354.75 684.1 348.05 733.13 327.84 744.06 330.31 714.72 354.75"/><polygon class="cls-26" points="762.48 363.86 746.76 360.37 770.23 357.63 775.85 358.89 762.48 363.86"/><path class="cls-27" d="M666.1,338.18l100.37,22.17c9.42,2.08-17.88,14-43.39,8.24l-62.1-14c-4.6-1-14.51-7.22-13.47-11.82h0C648.53,339.09,663,337.49,666.1,338.18Z"/><path class="cls-28" d="M734.16,368c-9.75-.31-83.4-19.13-84.08-19.74a27,27,0,0,0,10.9,6.36l62.1,14c21.6,4.88,44.47-2.92,45.27-6.69C757.14,365.93,743.28,368.25,734.16,368Z"/><path class="cls-29" d="M651.41,340a32.53,32.53,0,0,1,4.13-1.09l7.17,1.62-.43,1.92Z"/><path class="cls-30" d="M693.61,367.92l.94-2.4s2.57-.25,9.59,1.5,11.65,5.09,11.47,5.2,0,3.16-.61,3.65a2,2,0,0,1-2.07.56c-1.14-.24-8.71-1-13.24-1.81a36.37,36.37,0,0,1-7-1.88Z"/><path class="cls-24" d="M694.75,369.43c-.52,2-1.46,3.47-2.08,3.31s-.72-1.92-.2-3.91a11.15,11.15,0,0,1,.46-1.38c.51-1.25,1.15-2.06,1.62-1.93C695.18,365.68,695.27,367.43,694.75,369.43Z"/><path class="cls-25" d="M694.69,365.6a4.12,4.12,0,0,0-1.23,1.85,11.18,11.18,0,0,0-.45,1.38c-.48,1.82-.44,3.42,0,3.81a5.87,5.87,0,0,0,1.7-3.21C695.23,367.59,695.19,366,694.69,365.6Z"/><polygon class="cls-26" points="718.15 362.65 687.63 355.55 723.23 394.85 734.16 397.32 718.15 362.65"/><polygon class="cls-26" points="746.9 356.69 768.76 340.62 776.73 342.42 764.38 360.64 746.9 356.69"/><polygon class="cls-26" points="760.87 365.77 745.18 362.12 763.48 382.33 769.1 383.59 760.87 365.77"/><rect class="cls-25" x="673.31" y="343.18" width="1.97" height="1.97" transform="translate(190.2 926.21) rotate(-77.29)"/><rect class="cls-25" x="677.17" y="344.05" width="1.97" height="1.97" transform="translate(192.69 930.93) rotate(-77.32)"/><rect class="cls-25" x="681.03" y="344.92" width="1.97" height="1.97" transform="translate(194.23 934.86) rotate(-77.26)"/><rect class="cls-25" x="684.9" y="345.8" width="1.97" height="1.97" transform="translate(196.75 939.6) rotate(-77.3)"/><rect class="cls-25" x="688.76" y="346.67" width="1.97" height="1.96" transform="translate(199.06 944.17) rotate(-77.31)"/><rect class="cls-25" x="692.63" y="347.54" width="1.97" height="1.97" transform="translate(200.95 948.4) rotate(-77.28)"/><rect class="cls-25" x="696.49" y="348.41" width="1.97" height="1.97" transform="translate(203.47 953.14) rotate(-77.32)"/><rect class="cls-25" x="700.35" y="349.28" width="1.97" height="1.97" transform="translate(205.05 957.1) rotate(-77.26)"/><rect class="cls-25" x="704.22" y="350.15" width="1.97" height="1.97" transform="translate(207.21 961.55) rotate(-77.26)"/><rect class="cls-25" x="708.08" y="351.03" width="1.97" height="1.97" transform="translate(209.95 966.47) rotate(-77.32)"/><rect class="cls-25" x="711.94" y="351.9" width="1.97" height="1.97" transform="translate(212.11 970.92) rotate(-77.32)"/><rect class="cls-25" x="715.81" y="352.77" width="1.97" height="1.97" transform="translate(214.27 975.36) rotate(-77.31)"/><rect class="cls-25" x="719.67" y="353.64" width="1.97" height="1.97" transform="translate(216.15 979.59) rotate(-77.29)"/><rect class="cls-25" x="723.53" y="354.51" width="1.97" height="1.97" transform="translate(218.32 984.04) rotate(-77.29)"/><rect class="cls-25" x="727.4" y="355.38" width="1.97" height="1.97" transform="translate(220.46 988.47) rotate(-77.29)"/><path class="cls-31" d="M309.49,302a16.92,16.92,0,0,1,.88-3.33"/><path class="cls-32" d="M315.13,292.26c13.65-10.75,47.13-2.67,60.21.67,35.27,9,64.05,31.85,95.52,49,20.88,11.36,43,20.52,62.92,33.63,19.45,12.82,36.82,28.48,55.66,42.12,20.16,14.6,43.21,29.82,68.56,32.49"/><path class="cls-31" d="M662.05,450.46c1.14.06,2.29.09,3.44.1"/><path class="cls-31" d="M415.91,684.83c.94-.67,1.88-1.32,2.83-2"/><path class="cls-33" d="M425.54,678.76c17-9.42,35.53-13.84,53.52-21.87,18.64-8.31,34.24-20,42.84-39,10.67-23.51,13.35-49.77,25.6-72.76,19.26-36.16,55-68.85,54-111.93"/><path class="cls-31" d="M601.36,429.24c-.09-1.14-.2-2.28-.34-3.43"/><rect class="cls-34" x="246.97" y="290.07" width="11.23" height="18.12"/><rect class="cls-35" x="245.55" y="286.11" width="14.07" height="4.4"/><polygon class="cls-35" points="298.36 295.33 269.05 295.33 265.44 311.63 301.98 311.63 298.36 295.33"/><polygon class="cls-36" points="301.97 299.94 243.96 299.94 236.81 318.17 309.12 318.17 301.97 299.94"/><polygon class="cls-35" points="239.34 311.73 236.81 318.17 309.12 318.17 306.59 311.73 239.34 311.73"/><polygon class="cls-36" points="321.82 338.96 223.42 338.96 233.16 312.91 312.09 312.91 313.49 316.66 314.72 319.95 315.79 322.83 317.02 326.11 321.82 338.96"/><path class="cls-34" d="M293.84,329.38,287,333.62H243.89l-6.84-4.24h-19.4s.79,13.8,3.36,24c1.61,6.39,5.33,10.5,9.43,10.5h89.31c4.1,0,7.83-4.11,9.44-10.5,2.56-10.16,3.36-24,3.36-24Z"/><path class="cls-35" d="M331.41,341c.83-6.4,1.14-11.63,1.14-11.63H293.84L287,333.62H243.89l-6.84-4.24h-19.4s.3,5.23,1.13,11.63Z"/><polygon class="cls-35" points="314.72 319.95 293.45 319.95 293.97 316.66 313.49 316.66 314.72 319.95"/><rect class="cls-35" x="236.73" y="316.66" width="4.45" height="3.29"/><rect class="cls-35" x="252.68" y="316.66" width="4.45" height="3.29"/><rect class="cls-35" x="260.88" y="316.66" width="4.45" height="3.29"/><rect class="cls-35" x="269.08" y="316.66" width="4.45" height="3.29"/><rect class="cls-35" x="277.28" y="316.66" width="4.45" height="3.29"/><rect class="cls-35" x="285.48" y="316.66" width="4.45" height="3.29"/><rect class="cls-35" x="247.06" y="304.83" width="4.45" height="3.29"/><rect class="cls-35" x="263.01" y="304.83" width="4.45" height="3.29"/><rect class="cls-35" x="255.26" y="304.83" width="4.45" height="3.29"/><rect class="cls-35" x="271.21" y="304.83" width="4.45" height="3.29"/><rect class="cls-35" x="279.41" y="304.83" width="4.45" height="3.29"/><rect class="cls-35" x="287.61" y="304.83" width="4.45" height="3.29"/><rect class="cls-35" x="295.81" y="304.83" width="4.45" height="3.29"/><rect class="cls-35" x="241.34" y="323.09" width="4.45" height="3.29"/><rect class="cls-35" x="244.48" y="316.66" width="4.45" height="3.29"/><rect class="cls-35" x="241.34" y="323.09" width="4.45" height="3.29"/><rect class="cls-35" x="236.73" y="316.66" width="4.45" height="3.29"/><rect class="cls-35" x="236.73" y="316.66" width="4.45" height="3.29"/><rect class="cls-35" x="233.59" y="323.09" width="4.45" height="3.29"/><rect class="cls-35" x="249.54" y="323.09" width="4.45" height="3.29"/><rect class="cls-35" x="257.74" y="323.09" width="4.45" height="3.29"/><rect class="cls-35" x="265.94" y="323.09" width="4.45" height="3.29"/><rect class="cls-35" x="274.13" y="323.09" width="4.45" height="3.29"/><rect class="cls-35" x="282.33" y="323.09" width="4.45" height="3.29"/><polygon class="cls-35" points="317.02 326.11 291.32 326.11 291.65 322.83 315.71 322.83 317.02 326.11"/><path class="cls-36" d="M325.27,343.78v-.06a6.39,6.39,0,0,0-.11-1,7.88,7.88,0,0,0-.7-2.17h0a8.64,8.64,0,0,0-.57-1l0,0a8.09,8.09,0,0,0-4.52-3.21l0,0a8.05,8.05,0,0,0-4.21,0l-.05,0a8,8,0,0,0-4.35,3l-.05.06a8.17,8.17,0,0,0-1.5,3.92h0a7.69,7.69,0,0,0,0,.83,8,8,0,0,0,1.35,4.47.22.22,0,0,0,.05.08,8.09,8.09,0,0,0,3.3,2.8h0a8,8,0,0,0,3.39.74,7.69,7.69,0,0,0,2.41-.37l.08,0,.41-.14a8.1,8.1,0,0,0,3.29-2.35,6.41,6.41,0,0,0,.45-.58,8.1,8.1,0,0,0,1.45-4.63C325.28,344,325.28,343.9,325.27,343.78Zm-7.17,5H318a4.47,4.47,0,0,1-.82.07,4.78,4.78,0,0,1-1.9-.39h0a4.72,4.72,0,0,1-2.37-2.27.54.54,0,0,0-.05-.11,4.75,4.75,0,0,1-.42-2c0-.11,0-.21,0-.32v0a4.71,4.71,0,0,1,1.25-2.88l.06-.07a4.76,4.76,0,0,1,1.79-1.17l.06,0a4.73,4.73,0,0,1,3.15,0l.06,0a4.88,4.88,0,0,1,2,1.4l0,.06a4.7,4.7,0,0,1,1.07,3v.18A4.73,4.73,0,0,1,321,347l0,0A4.72,4.72,0,0,1,318.1,348.79Z"/><path class="cls-37" d="M319.34,336.33l-.58,3.32a4.73,4.73,0,0,0-3.15,0l-.58-3.32.05,0a8.05,8.05,0,0,1,4.21,0Z"/><path class="cls-37" d="M313.7,340.91a4.71,4.71,0,0,0-1.25,2.88l-3.32-.48v0a8.17,8.17,0,0,1,1.5-3.92l.05-.06Z"/><path class="cls-37" d="M315.28,348.47l-1.48,3h0a8.09,8.09,0,0,1-3.3-2.8.22.22,0,0,1-.05-.08l2.47-2.4A4.72,4.72,0,0,0,315.28,348.47Z"/><path class="cls-37" d="M323.38,349.34a8.1,8.1,0,0,1-3.29,2.35l-.41.14-.08,0-1.5-3.06A4.72,4.72,0,0,0,321,347Z"/><path class="cls-37" d="M321.93,344.26v-.13a4.7,4.7,0,0,0-1.07-3l3-1.59,0,0a8.64,8.64,0,0,1,.57,1h0a7.88,7.88,0,0,1,.7,2.17,6.39,6.39,0,0,1,.11,1v.06Z"/><path class="cls-36" d="M305.29,343.78v-.06a7.94,7.94,0,0,0-.11-1,7.58,7.58,0,0,0-.71-2.17h0a7.3,7.3,0,0,0-.56-1l0,0a8,8,0,0,0-4.51-3.21l-.05,0a8.05,8.05,0,0,0-4.21,0l-.05,0a8,8,0,0,0-4.35,3l-.05.06a8.07,8.07,0,0,0-1.5,3.92h0a7.69,7.69,0,0,0,0,.83,8.06,8.06,0,0,0,1.34,4.47l.06.08a8.12,8.12,0,0,0,3.29,2.8h0a8,8,0,0,0,3.38.74,7.71,7.71,0,0,0,2.42-.37l.08,0,.41-.14a8.1,8.1,0,0,0,3.29-2.35c.15-.18.3-.38.44-.58a8,8,0,0,0,1.46-4.63C305.3,344,305.3,343.9,305.29,343.78Zm-7.17,5H298a4.57,4.57,0,0,1-.83.07,4.73,4.73,0,0,1-1.89-.39h0a4.74,4.74,0,0,1-2.36-2.27l-.05-.11a4.75,4.75,0,0,1-.42-2c0-.11,0-.21,0-.32v0a4.71,4.71,0,0,1,1.25-2.88l.06-.07a4.68,4.68,0,0,1,1.79-1.17l.06,0a4.73,4.73,0,0,1,3.15,0l.06,0a4.88,4.88,0,0,1,2,1.4l0,.06a4.7,4.7,0,0,1,1.07,3v.18A4.73,4.73,0,0,1,301,347l0,0A4.75,4.75,0,0,1,298.12,348.79Z"/><path class="cls-37" d="M299.36,336.33l-.58,3.32a4.73,4.73,0,0,0-3.15,0l-.58-3.32.05,0a8.05,8.05,0,0,1,4.21,0Z"/><path class="cls-37" d="M293.72,340.91a4.71,4.71,0,0,0-1.25,2.88l-3.32-.48v0a8.07,8.07,0,0,1,1.5-3.92l.05-.06Z"/><path class="cls-37" d="M295.29,348.47l-1.47,3h0a8.12,8.12,0,0,1-3.29-2.8l-.06-.08,2.48-2.4A4.74,4.74,0,0,0,295.29,348.47Z"/><path class="cls-37" d="M303.4,349.34a8.1,8.1,0,0,1-3.29,2.35l-.41.14-.08,0-1.5-3.06A4.75,4.75,0,0,0,301,347Z"/><path class="cls-37" d="M302,344.26v-.13a4.7,4.7,0,0,0-1.07-3l3-1.59,0,0a7.3,7.3,0,0,1,.56,1h0a7.58,7.58,0,0,1,.71,2.17,7.94,7.94,0,0,1,.11,1v.06Z"/><path class="cls-36" d="M235.22,349.7a3.68,3.68,0,1,1-3.68-3.68A3.68,3.68,0,0,1,235.22,349.7Z"/><path class="cls-36" d="M249.88,349.7A3.68,3.68,0,1,1,246.2,346,3.68,3.68,0,0,1,249.88,349.7Z"/><path class="cls-36" d="M264.53,349.7a3.68,3.68,0,1,1-3.68-3.68A3.68,3.68,0,0,1,264.53,349.7Z"/><path class="cls-38" d="M265.36,368.39a9.11,9.11,0,1,1,18.21,0m-18.21,0a9.1,9.1,0,1,0-18.2,0m-18.2,0a9.11,9.11,0,1,0-18.21,0m91,0a9.1,9.1,0,1,0-18.2,0m36.41,0a9.11,9.11,0,1,0-18.21,0m36.41,0a9.1,9.1,0,1,0-18.2,0m-91,0a9.1,9.1,0,1,1,18.2,0"/><rect class="cls-39" x="626.66" y="504.59" width="1.34" height="30.14"/><path class="cls-36" d="M618.7,504H636a22.76,22.76,0,0,0-8.68-11.83A26.31,26.31,0,0,0,618.7,504Z"/><path class="cls-40" d="M647.64,504.56h0c-.09-.18-.19-.35-.29-.53a22.73,22.73,0,0,0-20-11.83A22.76,22.76,0,0,1,636,504H618.7a26.31,26.31,0,0,1,8.62-11.83,22.74,22.74,0,0,0-20,11.83l-.57,1,41.21,0Z"/><rect class="cls-41" x="638.88" y="512.1" width="9.15" height="16.01"/><rect class="cls-42" x="640.31" y="512.1" width="1.05" height="16.01"/><rect class="cls-42" x="642.17" y="512.1" width="1.04" height="16.01"/><rect class="cls-42" x="644.02" y="512.1" width="1.05" height="16.01"/><rect class="cls-42" x="645.88" y="512.1" width="1.04" height="16.01"/><rect class="cls-43" x="637.88" y="511.34" width="1.79" height="23.39"/><rect class="cls-43" x="647.35" y="511.34" width="1.8" height="23.39"/><rect class="cls-43" x="639.14" y="531.82" width="9.09" height="1.22"/><rect class="cls-43" x="638.82" y="526.21" width="9.47" height="2.48"/><rect class="cls-43" x="636.9" y="522.96" width="2.26" height="1.62"/><rect class="cls-43" x="647.65" y="522.96" width="2.26" height="1.62"/><path class="cls-44" d="M664.79,501.6S657.36,510,658.62,524s3.49,16.19,3.49,16.19l2.68-2.44,2.27,2.44s3.34-3.41,3.84-15.56C671.59,507.6,664.79,501.6,664.79,501.6Z"/><path class="cls-40" d="M662.76,504.55v35l1-.89V503C663.44,503.43,663.11,503.94,662.76,504.55Z"/><path class="cls-40" d="M665.69,502.6v36.1l1,1V504C666.3,503.42,666,503,665.69,502.6Z"/><path class="cls-5" d="M465.52,460.11c0-1.85-4-3.35-8.87-3.35s-8.88,1.5-8.88,3.35,4,3.35,8.88,3.35S465.52,462,465.52,460.11Z"/><polygon class="cls-45" points="459.36 460.33 458.63 414.45 455.13 414.45 454.4 460.33 459.36 460.33"/><path class="cls-46" d="M459.4,397c0,7.39-1.16,13.39-2.59,13.39s-2.59-6-2.59-13.39,1.16-13.41,2.59-13.41S459.4,389.6,459.4,397Z"/><path class="cls-46" d="M442.25,417.57c6.41-3.7,12.18-5.7,12.9-4.46s-3.91,5.24-10.31,8.94-12.19,5.7-12.91,4.46S435.84,421.27,442.25,417.57Z"/><path class="cls-46" d="M468.49,421.7c-6.41-3.7-11-7.7-10.31-8.94s6.49.76,12.89,4.46,11,7.7,10.32,8.94S474.89,425.4,468.49,421.7Z"/><path class="cls-46" d="M456.72,407.66c-2.46,0-4.14,2-4.45,4.44s1.71,4.33,4.45,4.45a4.39,4.39,0,0,0,4.45-4.45A4.45,4.45,0,0,0,456.72,407.66Zm0,6a1.59,1.59,0,1,1,1.58-1.59A1.59,1.59,0,0,1,456.72,413.69Z"/><path class="cls-5" d="M417.65,470.2c0-1.85-4-3.35-8.88-3.35s-8.87,1.5-8.87,3.35,4,3.35,8.87,3.35S417.65,472.05,417.65,470.2Z"/><polygon class="cls-45" points="411.49 470.42 410.76 424.54 407.25 424.54 406.53 470.42 411.49 470.42"/><path class="cls-46" d="M411.53,407.09c0,7.39-1.16,13.39-2.59,13.39s-2.59-6-2.59-13.39,1.16-13.41,2.59-13.41S411.53,399.68,411.53,407.09Z"/><path class="cls-46" d="M394.37,427.66c6.41-3.7,12.19-5.7,12.9-4.46s-3.9,5.24-10.31,8.94-12.18,5.7-12.9,4.46S388,431.36,394.37,427.66Z"/><path class="cls-46" d="M420.61,431.79c-6.41-3.7-11-7.7-10.31-8.94s6.49.76,12.9,4.46,11,7.7,10.31,8.94S427,435.49,420.61,431.79Z"/><path class="cls-46" d="M408.85,417.75c-2.46,0-4.15,2-4.45,4.44s1.7,4.33,4.45,4.45a4.38,4.38,0,0,0,4.44-4.45A4.44,4.44,0,0,0,408.85,417.75Zm0,6a1.59,1.59,0,1,1,1.58-1.59A1.59,1.59,0,0,1,408.85,423.78Z"/><polygon class="cls-47" points="426.26 640.92 434.97 658.57 454.46 661.41 440.36 675.15 443.69 694.56 426.26 685.4 408.83 694.56 412.16 675.15 398.06 661.41 417.54 658.57 426.26 640.92"/><path class="cls-48" d="M342.75,287.15c-2.81-3.19-3.87-9.22-3.73-13.34a39.32,39.32,0,0,0,15.11,14.07c-6.63,2.18-12.07,7-16.76,12C338,295.54,339.42,290.25,342.75,287.15Z"/><path class="cls-48" d="M402,301.73c-1-4.13.86-10,2.9-13.55a39.34,39.34,0,0,0,6.85,19.48c-6.88-1.15-13.93.56-20.44,2.88C393.88,307,397.59,302.93,402,301.73Z"/><path class="cls-48" d="M466.1,339.43c-1.26-4.07.24-10,2-13.71a39.15,39.15,0,0,0,8.05,19c-6.95-.72-13.87,1.44-20.22,4.16C458.35,345.14,461.8,340.89,466.1,339.43Z"/><path class="cls-48" d="M519.92,366.9c-1-4.14.86-10,2.91-13.55a39.16,39.16,0,0,0,6.84,19.47c-6.88-1.15-13.93.57-20.44,2.89C511.83,372.12,515.54,368.09,519.92,366.9Z"/><path class="cls-48" d="M569.17,401.51c-.25-4.25,2.62-9.65,5.28-12.81a39.15,39.15,0,0,0,3.25,20.38c-6.57-2.36-13.81-1.93-20.63-.82C560.27,405.19,564.64,401.9,569.17,401.51Z"/><path class="cls-48" d="M600.4,450c3.7-2.09,9.82-1.88,13.82-.89A39.28,39.28,0,0,0,597.34,461c-.76-6.94-4.33-13.25-8.33-18.89C593.18,443.67,598.05,446.14,600.4,450Z"/><path class="cls-48" d="M574.54,503.47c4.17-.84,9.92,1.25,13.42,3.43-6.89.38-13.89,2.17-19.73,6.08,1.42-6.84,0-13.94-2.08-20.54C569.64,495.18,573.51,499,574.54,503.47Z"/><path class="cls-48" d="M544.23,554.6c4-1.43,10-.18,13.78,1.47a39.27,39.27,0,0,0-18.65,8.85c.42-7-2-13.8-5-20C538.2,547.1,542.59,550.37,544.23,554.6Z"/><path class="cls-48" d="M525.73,609.73c4-1.43,10-.19,13.78,1.47A39.25,39.25,0,0,0,520.86,620c.42-7-2-13.79-5-20C519.7,602.22,524.09,605.49,525.73,609.73Z"/><path class="cls-48" d="M486.79,652.4c4.15.94,8.54,5.2,10.85,8.62a39.17,39.17,0,0,0-20.49-2.51c4.09-5.66,5.68-12.74,6.49-19.6C485.71,642.83,487.66,647.94,486.79,652.4Z"/><path class="cls-48" d="M640.34,446.57c1.5,4,.35,10-1.24,13.8A39.25,39.25,0,0,0,630,441.86c7,.31,13.76-2.24,19.94-5.33C647.75,440.41,644.55,444.85,640.34,446.57Z"/><path class="cls-6" d="M418.66,555c-13.84,0-3-28.44,4.26-31.69,19.63-8.77,15.45,31.45-4.17,31.69Z"/></g><path class="cls-49" d="M801,145.25c-.2-2.38-.38-4.7-.49-6.94-1.22-23.76,1.82-38.31,2-42.86-13.3,3.5-28.15,1.35-43,4.51-13.64,2.91-27.7,5.94-42.45,8.56-13.86,2.47-27.88,6.06-42.57,8.27-14,2.11-27.55,10.19-42.19,12.06-14.14,1.81-29.09-.86-43.69.72-14.24,1.54-28.5,4.59-43.06,5.92-14.32,1.31-28.7,3.55-43.23,4.64s-29.21-3.47-43.7-2.59-28.77,3.84-43.22,4.49-28.81,6.77-43.22,7.22c-14.57.46-29.19-3.81-43.55-3.58-14.63.23-29.11,1.87-43.41,1.87-13.66,0-27.6,2.43-41.61,6s-27.47,8.74-40.57,12.21c-15.16,4-31.42,1.44-43.79.33,1,6,.8,25.08,3.17,45.5.52,4.53,1.31,9.3,2.18,14.29C215,221.19,274.3,215,337.34,208c17.52-7.88,35.79-15.77,40.21-15.77,6.36,0,14.71,7.42,21.94,8.76l5.94-.68c8-4.1,11.31-12.15,19.42-12.15s9.78,5.71,23.64,5.71c2.34,0,7,0,13.22-.1,114.44-13.44,230-27.8,319.33-39.06C787,151.49,794.05,148.13,801,145.25Z"/><path class="cls-2" d="M88.1,957.87c74.93-7,233.17-30.56,240.22-32.76s14.93,17,19.27,13.7,1.54-17.74,7.63-20.59S843.85,815.77,1083,892.28c-16,58.77-43.48,109.79-85.28,91.32s-202.22-87-531.2,2.08c-253.36,68.64-288.61,57.6-316,39.71C108.08,997.63,78.63,964.69,88.1,957.87Z"/><path class="cls-3" d="M1056.72,957.31c-85.42-3.21-217.47-73.67-475.51-18.14-217.92,46.89-354.44,81.12-462.09,62.9a322,322,0,0,0,31.4,23.32c27.37,17.89,62.62,28.93,316-39.71,329-89.11,489.41-20.55,531.2-2.08C1022.05,994.36,1041.53,981.51,1056.72,957.31Z"/><path class="cls-2" d="M30,149c-5.34,2.67-13.83,4-20.66,8.43A158.56,158.56,0,0,0,0,191.7c0,10.48,149.11-3,328.16-22.86,17.52-7.88,35.8-15.77,40.22-15.77,6.36,0,14.7,7.42,21.94,8.75l5.93-.67c8-4.1,11.32-12.15,19.42-12.15s9.79,5.71,23.65,5.71c2.34,0,7,0,13.22-.1,114.44-13.44,230-27.8,319.33-39.06,16-8.54,39.28-18.23,48.26-17.11,6.87.86,12.61,5.32,18.52,8.65C896.65,99.72,933.2,95,934.42,95c6.24,0,22.32-.6,18.08-16s-68.27-101.38-109-73.54-84.6,71.24-327,87.15S166.19,72.22,107.66,72.37c-36.55.09-66.53,26.61-85.7,59C21.81,133.5,36.75,145.6,30,149Z"/><path class="cls-3" d="M537.17,106.59C764,85.86,849.47,32.2,893.52,11.65c-17.07-11.26-35.09-16.33-50-6.14-40.69,27.83-84.6,71.24-327,87.15S166.19,72.22,107.66,72.37c-17.48,0-33.46,6.14-47.47,16C146.59,93.69,304.77,127.84,537.17,106.59Z"/></g></g></svg>