<svg xmlns="http://www.w3.org/2000/svg" viewBox="0 0 1920 1783"><defs><style>.cls-1{fill:#1592c8;}.cls-2{fill:#54c2f0;}</style></defs><title>Artboard 23line</title><g id="Layer_3" data-name="Layer 3"><path class="cls-1" d="M0,1738.71V994.09s3.84-76.77,99.84-65.25,126.72,107.47,226.56,65.25,153.6,46.06,192,69.09,126.72,19.47,188.16-36.33,96-78.82,161.28-55.79,115.2,49.9,153.6,11.52,99.84-19.2,145.92,19.18,96,34.55,126.72-11.51,107.52-46.06,153.6-26.87,103.68,99.8,188.16,34.55,134.4-57.58,161.28-23,103.68,38.38,122.88-3.84v767.65Z"/><path class="cls-2" d="M1920,1779.26V1037.93c-19.2,42.23-96,38.39-122.88,3.84s-76.8-42.22-161.28,23-142.08-15.35-188.16-34.54-122.88-19.19-153.6,26.87-80.64,49.89-126.72,11.51-107.52-57.57-145.92-19.19-88.32,11.51-153.6-11.52-99.84,0-161.28,55.8-149.76,59.35-188.16,36.32-92.16-111.31-192-69.09-130.56-53.73-226.56-65.25S0,1061,0,1061v718.3Z"/><path class="cls-1" d="M1836.59,1102.23c0,4.46,4.9,8.09,10.94,8.09s10.93-3.63,10.93-8.09-4.9-8.1-10.93-8.1S1836.59,1097.75,1836.59,1102.23Z"/><ellipse class="cls-1" cx="1785.64" cy="1063.33" rx="10.94" ry="8.09"/><path class="cls-1" d="M1705.5,1141.44c0,4.47,4.9,8.1,10.94,8.1s10.93-3.63,10.93-8.1-4.89-8.09-10.93-8.09S1705.5,1137,1705.5,1141.44Z"/><path class="cls-1" d="M1599.28,1195.53c0,4.46,4.9,8.09,10.94,8.09s10.93-3.63,10.93-8.09-4.89-8.1-10.93-8.1S1599.28,1191.05,1599.28,1195.53Z"/><path class="cls-1" d="M1369.4,1219.7c0,4.47,4.9,8.09,10.94,8.09s10.94-3.62,10.94-8.09-4.9-8.1-10.94-8.1S1369.4,1215.23,1369.4,1219.7Z"/><path class="cls-1" d="M1263.82,1161.88c0,4.47,4.9,8.09,10.94,8.09s10.93-3.62,10.93-8.09-4.89-8.09-10.93-8.09S1263.82,1157.41,1263.82,1161.88Z"/><path class="cls-1" d="M1203.62,1203.62c0,4.47,4.89,8.09,10.93,8.09s10.94-3.62,10.94-8.09-4.89-8.09-10.94-8.09S1203.62,1199.15,1203.62,1203.62Z"/><path class="cls-1" d="M1141.37,1138.6c0,4.47,4.89,8.09,10.93,8.09s10.94-3.62,10.94-8.09-4.9-8.09-10.94-8.09S1141.37,1134.13,1141.37,1138.6Z"/><path class="cls-1" d="M1067.9,1167.28c0,4.47,4.9,8.09,10.94,8.09s10.94-3.62,10.94-8.09-4.9-8.09-10.94-8.09S1067.9,1162.81,1067.9,1167.28Z"/><path class="cls-1" d="M1083,1080.8c0,4.47,4.9,8.09,10.94,8.09s10.93-3.62,10.93-8.09-4.89-8.1-10.93-8.1S1083,1076.33,1083,1080.8Z"/><path class="cls-1" d="M973,1115.68c0,4.47,4.89,8.09,10.94,8.09s10.93-3.62,10.93-8.09-4.89-8.09-10.93-8.09S973,1111.21,973,1115.68Z"/><path class="cls-1" d="M911.24,1157.73c0,4.47,4.9,8.1,10.94,8.1s10.93-3.63,10.93-8.1-4.89-8.09-10.93-8.09S911.24,1153.26,911.24,1157.73Z"/><path class="cls-1" d="M870,1099.5c0,4.47,4.89,8.09,10.93,8.09s10.94-3.62,10.94-8.09-4.9-8.1-10.94-8.1S870,1095,870,1099.5Z"/><path class="cls-1" d="M803.92,1080.8c0,4.47,4.89,8.09,10.93,8.09s10.94-3.62,10.94-8.09-4.9-8.1-10.94-8.1S803.92,1076.33,803.92,1080.8Z"/><path class="cls-1" d="M756.56,1133.35c0,4.47,4.89,8.09,10.93,8.09s10.94-3.62,10.94-8.09-4.9-8.09-10.94-8.09S756.56,1128.88,756.56,1133.35Z"/><path class="cls-1" d="M957.73,1171.92c0,4.47,4.9,8.09,10.94,8.09s10.93-3.62,10.93-8.09-4.89-8.09-10.93-8.09S957.73,1167.45,957.73,1171.92Z"/><path class="cls-1" d="M688.8,1219.7c0,4.47,4.9,8.09,10.94,8.09s10.93-3.62,10.93-8.09-4.9-8.1-10.93-8.1S688.8,1215.23,688.8,1219.7Z"/><path class="cls-1" d="M630.92,1161.88c0,4.47,4.9,8.09,10.94,8.09s10.93-3.62,10.93-8.09-4.89-8.09-10.93-8.09S630.92,1157.41,630.92,1161.88Z"/><path class="cls-1" d="M65.07,1060.15c0,4.46,4.9,8.09,10.94,8.09S87,1064.61,87,1060.15s-4.9-8.1-10.94-8.1S65.07,1055.67,65.07,1060.15Z"/><path class="cls-1" d="M538,1130.51c0,4.47,4.89,8.09,10.93,8.09s10.94-3.62,10.94-8.09-4.89-8.09-10.94-8.09S538,1126,538,1130.51Z"/><path class="cls-1" d="M471.77,1099.5c0,4.47,4.9,8.09,10.94,8.09s10.93-3.62,10.93-8.09-4.89-8.1-10.93-8.1S471.77,1095,471.77,1099.5Z"/><path class="cls-1" d="M396.4,1203.62c0,4.47,4.9,8.09,10.94,8.09s10.93-3.62,10.93-8.09-4.9-8.09-10.93-8.09S396.4,1199.15,396.4,1203.62Z"/><path class="cls-1" d="M366.62,1146.69c0,4.47,4.9,8.1,10.93,8.1s10.94-3.63,10.94-8.1-4.9-8.09-10.94-8.09S366.62,1142.22,366.62,1146.69Z"/><path class="cls-1" d="M257.33,1107.59c0,4.47,4.89,8.09,10.94,8.09s10.93-3.62,10.93-8.09-4.89-8.09-10.93-8.09S257.33,1103.12,257.33,1107.59Z"/><path class="cls-1" d="M257.33,1178.62c0,4.47,4.89,8.09,10.94,8.09s10.93-3.62,10.93-8.09-4.89-8.09-10.93-8.09S257.33,1174.15,257.33,1178.62Z"/><path class="cls-1" d="M171.54,1115.68c0,4.47,4.89,8.09,10.94,8.09s10.93-3.62,10.93-8.09-4.89-8.09-10.93-8.09S171.54,1111.21,171.54,1115.68Z"/><path class="cls-1" d="M91.35,1194.8c0,4.48,4.89,8.1,10.93,8.1s10.94-3.62,10.94-8.1-4.9-8.09-10.94-8.09S91.35,1190.33,91.35,1194.8Z"/><path class="cls-1" d="M65.08,1133.35c0,4.47,4.89,8.09,10.93,8.09S87,1137.82,87,1133.35s-4.9-8.09-10.94-8.09S65.08,1128.88,65.08,1133.35Z"/><path class="cls-1" d="M171.54,1057.79c0,4.47,4.89,8.09,10.94,8.09s10.93-3.62,10.93-8.09-4.89-8.1-10.93-8.1S171.54,1053.32,171.54,1057.79Z"/><path class="cls-1" d="M1889.44,1136.44c0,3,3.24,5.36,7.24,5.36s7.25-2.4,7.25-5.36-3.24-5.35-7.25-5.35S1889.44,1133.49,1889.44,1136.44Z"/><path class="cls-1" d="M1770.94,1120.18c0,3,3.24,5.36,7.25,5.36s7.24-2.41,7.24-5.36-3.25-5.36-7.24-5.36S1770.94,1117.22,1770.94,1120.18Z"/><path class="cls-1" d="M1617.73,1110.32c0,3,3.24,5.36,7.25,5.36s7.24-2.4,7.24-5.36S1629,1105,1625,1105,1617.73,1107.36,1617.73,1110.32Z"/><path class="cls-1" d="M1567.54,1158.49c0,3,3.24,5.36,7.24,5.36s7.25-2.4,7.25-5.36-3.24-5.36-7.25-5.36S1567.54,1155.53,1567.54,1158.49Z"/><path class="cls-1" d="M1543.16,1125.54c0,3,3.24,5.36,7.23,5.36s7.25-2.4,7.25-5.36-3.24-5.36-7.25-5.36S1543.16,1122.58,1543.16,1125.54Z"/><path class="cls-1" d="M1459.83,1149.7c0,3,3.25,5.36,7.25,5.36s7.24-2.4,7.24-5.36-3.24-5.36-7.24-5.36S1459.83,1146.74,1459.83,1149.7Z"/><path class="cls-1" d="M1498.62,1110.32c0,3,3.25,5.36,7.25,5.36s7.24-2.4,7.24-5.36-3.24-5.37-7.24-5.37S1498.62,1107.36,1498.62,1110.32Z"/><path class="cls-1" d="M1677.44,1065.88c0,2.95,3.25,5.36,7.24,5.36s7.25-2.41,7.25-5.36-3.24-5.36-7.25-5.36S1677.44,1062.92,1677.44,1065.88Z"/><path class="cls-1" d="M1411.25,1186.71c0,3,3.24,5.37,7.24,5.37s7.24-2.4,7.24-5.37-3.24-5.36-7.24-5.36S1411.25,1183.75,1411.25,1186.71Z"/><path class="cls-1" d="M1404,1136.44c0,3,3.25,5.36,7.25,5.36s7.24-2.4,7.24-5.36-3.25-5.35-7.24-5.35S1404,1133.49,1404,1136.44Z"/><path class="cls-1" d="M1441.68,1083.51c0,3,3.24,5.37,7.25,5.37s7.24-2.41,7.24-5.37-3.24-5.35-7.24-5.35S1441.68,1080.56,1441.68,1083.51Z"/><path class="cls-1" d="M1395.3,1058c0,3,3.24,5.36,7.24,5.36s7.25-2.4,7.25-5.36-3.25-5.36-7.25-5.36S1395.3,1055,1395.3,1058Z"/><path class="cls-1" d="M1717.14,1094.13c0,3,3.25,5.37,7.25,5.37s7.24-2.41,7.24-5.37-3.24-5.36-7.24-5.36S1717.14,1091.17,1717.14,1094.13Z"/><path class="cls-1" d="M1653.94,1156.17c0,3,3.25,5.37,7.25,5.37s7.24-2.4,7.24-5.37-3.24-5.36-7.24-5.36S1653.94,1153.21,1653.94,1156.17Z"/><path class="cls-1" d="M1336.85,1060.15c0,3,3.25,5.36,7.25,5.36s7.24-2.4,7.24-5.36-3.24-5.37-7.24-5.37S1336.85,1057.18,1336.85,1060.15Z"/><path class="cls-1" d="M1384,1099.5c0,3,3.25,5.35,7.25,5.35s7.24-2.4,7.24-5.35-3.24-5.36-7.24-5.36S1384,1096.54,1384,1099.5Z"/><path class="cls-1" d="M1336.85,1150.81c0,3,3.25,5.36,7.25,5.36s7.24-2.4,7.24-5.36-3.24-5.36-7.24-5.36S1336.85,1147.85,1336.85,1150.81Z"/><path class="cls-1" d="M1315.87,1115.68c0,3,3.25,5.36,7.25,5.36s7.24-2.4,7.24-5.36-3.24-5.36-7.24-5.36S1315.87,1112.72,1315.87,1115.68Z"/><path class="cls-1" d="M1406.8,1224.63c0,3,3.25,5.36,7.25,5.36s7.24-2.4,7.24-5.36-3.24-5.37-7.24-5.37S1406.8,1221.66,1406.8,1224.63Z"/><path class="cls-1" d="M1323.12,1240.71c0,3,3.24,5.36,7.25,5.36s7.24-2.4,7.24-5.36-3.24-5.36-7.24-5.36S1323.12,1237.75,1323.12,1240.71Z"/><path class="cls-1" d="M1256.11,1200.89c0,2.95,3.24,5.36,7.24,5.36s7.24-2.41,7.24-5.36-3.25-5.36-7.24-5.36S1256.11,1197.93,1256.11,1200.89Z"/><path class="cls-1" d="M1207.31,1144.34c0,3,3.24,5.36,7.24,5.36s7.25-2.4,7.25-5.36-3.24-5.36-7.25-5.36S1207.31,1141.38,1207.31,1144.34Z"/><path class="cls-1" d="M1137.73,1181.35c0,3,3.24,5.36,7.24,5.36s7.25-2.4,7.25-5.36S1149,1176,1145,1176,1137.73,1178.39,1137.73,1181.35Z"/><path class="cls-1" d="M1137.73,1094.13c0,3,3.24,5.37,7.24,5.37s7.25-2.41,7.25-5.37-3.24-5.36-7.25-5.36S1137.73,1091.17,1137.73,1094.13Z"/><path class="cls-1" d="M1071.6,1125.54c0,3,3.24,5.36,7.24,5.36s7.24-2.4,7.24-5.36-3.24-5.36-7.24-5.36S1071.6,1122.58,1071.6,1125.54Z"/><path class="cls-1" d="M1028.4,1099.5c0,3,3.24,5.36,7.24,5.36s7.24-2.4,7.24-5.36-3.24-5.37-7.24-5.37S1028.4,1096.53,1028.4,1099.5Z"/><path class="cls-1" d="M997.66,1146.69c0,3,3.24,5.37,7.24,5.37s7.25-2.4,7.25-5.37-3.25-5.35-7.25-5.35S997.66,1143.74,997.66,1146.69Z"/><path class="cls-1" d="M920.57,1115.68c0,3,3.25,5.36,7.25,5.36s7.24-2.4,7.24-5.36-3.24-5.36-7.24-5.36S920.57,1112.72,920.57,1115.68Z"/><path class="cls-1" d="M857.07,1144.34c0,3,3.24,5.36,7.24,5.36s7.25-2.4,7.25-5.36-3.25-5.36-7.25-5.36S857.07,1141.38,857.07,1144.34Z"/><path class="cls-1" d="M805.74,1120.27c0,3,3.25,5.36,7.25,5.36s7.24-2.4,7.24-5.36-3.24-5.36-7.24-5.36S805.74,1117.31,805.74,1120.27Z"/><path class="cls-1" d="M787.43,1170.53c0,3,3.25,5.35,7.25,5.35s7.24-2.4,7.24-5.35-3.24-5.36-7.24-5.36S787.43,1167.57,787.43,1170.53Z"/><path class="cls-1" d="M708.28,1146.69c0,3,3.24,5.37,7.24,5.37s7.25-2.4,7.25-5.37-3.25-5.35-7.25-5.35S708.28,1143.74,708.28,1146.69Z"/><path class="cls-1" d="M740.38,1187.43c0,3,3.24,5.36,7.25,5.36s7.24-2.4,7.24-5.36-3.24-5.36-7.24-5.36S740.38,1184.47,740.38,1187.43Z"/><path class="cls-1" d="M749.31,1088.77c0,3,3.24,5.36,7.25,5.36s7.24-2.39,7.24-5.36-3.24-5.36-7.24-5.36S749.31,1085.81,749.31,1088.77Z"/><path class="cls-1" d="M664.47,1186.71c0,3,3.24,5.37,7.24,5.37s7.25-2.4,7.25-5.37-3.25-5.36-7.25-5.36S664.47,1183.75,664.47,1186.71Z"/><path class="cls-1" d="M601.72,1203.62c0,3,3.24,5.36,7.25,5.36s7.24-2.4,7.24-5.36-3.24-5.37-7.24-5.37S601.72,1200.65,601.72,1203.62Z"/><path class="cls-1" d="M623.47,1114.82c0,3,3.25,5.36,7.25,5.36s7.24-2.41,7.24-5.36-3.24-5.36-7.24-5.36S623.47,1111.85,623.47,1114.82Z"/><path class="cls-1" d="M583.58,1153.79c0,3,3.25,5.36,7.25,5.36s7.24-2.4,7.24-5.36-3.24-5.36-7.24-5.36S583.58,1150.83,583.58,1153.79Z"/><path class="cls-1" d="M1740.41,1171.91c0,3,3.24,5.37,7.24,5.37s7.24-2.4,7.24-5.37-3.24-5.35-7.24-5.35S1740.41,1169,1740.41,1171.91Z"/><path class="cls-1" d="M468.85,1144.34c0,3,3.24,5.36,7.24,5.36s7.24-2.4,7.24-5.36-3.24-5.36-7.24-5.36S468.85,1141.38,468.85,1144.34Z"/><path class="cls-1" d="M524.87,1175.37c0,3,3.24,5.37,7.24,5.37s7.25-2.41,7.25-5.37-3.25-5.35-7.25-5.35S524.87,1172.42,524.87,1175.37Z"/><path class="cls-1" d="M490.61,1219.7c0,3,3.24,5.36,7.24,5.36s7.24-2.4,7.24-5.36-3.24-5.36-7.24-5.36S490.61,1216.74,490.61,1219.7Z"/><path class="cls-1" d="M438.78,1170.53c0,3,3.24,5.35,7.24,5.35s7.25-2.4,7.25-5.35-3.25-5.36-7.25-5.36S438.78,1167.57,438.78,1170.53Z"/><path class="cls-1" d="M414.78,1125.63c0,3,3.25,5.36,7.25,5.36s7.24-2.4,7.24-5.36-3.24-5.36-7.24-5.36S414.78,1122.67,414.78,1125.63Z"/><path class="cls-1" d="M349.12,1180.74c0,3,3.25,5.36,7.25,5.36s7.24-2.4,7.24-5.36-3.24-5.37-7.24-5.37S349.12,1177.77,349.12,1180.74Z"/><path class="cls-1" d="M310.67,1138.6c0,3,3.24,5.36,7.24,5.36s7.25-2.4,7.25-5.36-3.25-5.36-7.25-5.36S310.67,1135.64,310.67,1138.6Z"/><path class="cls-1" d="M233.71,1231.83c0,3,3.25,5.36,7.25,5.36s7.24-2.4,7.24-5.36-3.24-5.37-7.24-5.37S233.71,1228.86,233.71,1231.83Z"/><path class="cls-1" d="M229.74,1146.69c0,3,3.24,5.37,7.24,5.37s7.25-2.4,7.25-5.37-3.25-5.35-7.25-5.35S229.74,1143.74,229.74,1146.69Z"/><path class="cls-1" d="M178.24,1182.07c0,3,3.25,5.36,7.25,5.36s7.24-2.4,7.24-5.36-3.24-5.36-7.24-5.36S178.24,1179.11,178.24,1182.07Z"/><path class="cls-1" d="M128.8,1107.59c0,3,3.24,5.36,7.24,5.36s7.25-2.4,7.25-5.36-3.24-5.36-7.25-5.36S128.8,1104.63,128.8,1107.59Z"/><path class="cls-1" d="M216.82,1075.44c0,3,3.24,5.36,7.24,5.36s7.25-2.4,7.25-5.36-3.25-5.36-7.25-5.36S216.82,1072.48,216.82,1075.44Z"/><path class="cls-1" d="M862.71,1057.78c0,3,3.25,5.37,7.25,5.37s7.24-2.4,7.24-5.37-3.24-5.35-7.24-5.35S862.71,1054.83,862.71,1057.78Z"/><path class="cls-1" d="M1265.37,1115.68c0,3,3.24,5.36,7.24,5.36s7.25-2.4,7.25-5.36-3.25-5.36-7.25-5.36S1265.37,1112.72,1265.37,1115.68Z"/><path class="cls-1" d="M142.72,1157.73c0,3,3.25,5.36,7.25,5.36s7.24-2.4,7.24-5.36-3.24-5.36-7.24-5.36S142.72,1154.77,142.72,1157.73Z"/><path class="cls-1" d="M33,1170.53c0,3,3.25,5.35,7.25,5.35s7.24-2.4,7.24-5.35-3.24-5.36-7.24-5.36S33,1167.57,33,1170.53Z"/><path class="cls-1" d="M22.17,1115.68c0,3,3.25,5.36,7.25,5.36s7.24-2.4,7.24-5.36-3.24-5.36-7.24-5.36S22.17,1112.72,22.17,1115.68Z"/><path class="cls-1" d="M131.65,1214.34c0,3,3.24,5.36,7.24,5.36s7.25-2.4,7.25-5.36-3.24-5.36-7.25-5.36S131.65,1211.38,131.65,1214.34Z"/><ellipse class="cls-1" cx="300.32" cy="1198.25" rx="7.24" ry="5.36"/><path class="cls-1" d="M210.92,1187.43c0,3,3.24,5.36,7.24,5.36s7.25-2.4,7.25-5.36-3.25-5.36-7.25-5.36S210.92,1184.47,210.92,1187.43Z"/><path class="cls-1" d="M1315.88,1200.89c0,2.95,3.24,5.36,7.24,5.36s7.25-2.41,7.25-5.36-3.25-5.36-7.25-5.36S1315.88,1197.93,1315.88,1200.89Z"/></g></svg>