<svg xmlns="http://www.w3.org/2000/svg" viewBox="0 0 1920 1783"><defs><style>.cls-1{fill:#c1ecff;}</style></defs><title>Artboard 23line</title><g id="Layer_3" data-name="Layer 3"><path class="cls-1" d="M1921.83,1782.24V160a117.95,117.95,0,0,0-151.65-28.15,156.86,156.86,0,0,0-298.24-.06,126.49,126.49,0,0,0-120.07,29.56,154,154,0,0,0-280.24,2.7,155.05,155.05,0,0,0-26.3-2.28A153.39,153.39,0,0,0,950,194.84a162.55,162.55,0,0,0-272.9,14,141,141,0,0,0-204-6.53c-17.87-87.18-95-152.76-187.49-152.76a191.32,191.32,0,0,0-167.94,99.57A135.25,135.25,0,0,0-1.51,173.93V1782.24Z"/></g></svg>