<svg xmlns="http://www.w3.org/2000/svg" viewBox="0 0 75 87"><defs><style>.cls-1{fill:#f6b42c;}.cls-2{fill:#142952;}.cls-3{fill:none;stroke:#f6b42c;stroke-linecap:round;stroke-miterlimit:10;stroke-width:3.89px;}</style></defs><title>Artboard 26</title><g id="Layer_3" data-name="Layer 3"><path class="cls-1" d="M58.85,86.5,44.17,78.83a3.52,3.52,0,0,0-3.28,0L26.25,86.58a3.52,3.52,0,0,1-5.12-3.69l2.76-16.34a3.53,3.53,0,0,0-1-3.11L11,51.91a3.52,3.52,0,0,1,1.94-6L29.3,43.47a3.52,3.52,0,0,0,2.64-1.93l7.29-14.88a3.52,3.52,0,0,1,6.31,0l7.38,14.84a3.5,3.5,0,0,0,2.65,1.91L72,45.74a3.52,3.52,0,0,1,2,6L62.11,63.33a3.53,3.53,0,0,0-1,3.12L64,82.78A3.52,3.52,0,0,1,58.85,86.5Z"/><path class="cls-2" d="M37.45,56.81a3.56,3.56,0,0,1-3.23,3.81c-1.77,0-3.22-1.71-3.22-3.81S32.45,53,34.22,53A3.56,3.56,0,0,1,37.45,56.81Z"/><path class="cls-2" d="M53.9,56.81a3.55,3.55,0,0,1-3.22,3.81,3.55,3.55,0,0,1-3.22-3.81c0-2.11,1.44-3.82,3.22-3.82S53.9,54.7,53.9,56.81Z"/><line class="cls-3" x1="25.36" y1="24.01" x2="13.53" y2="9.77"/><line class="cls-3" x1="19.44" y1="30.65" x2="1.85" y2="24.86"/><line class="cls-3" x1="33.46" y1="20.86" x2="30.9" y2="2.52"/></g></svg>