<svg id="圖層_1" data-name="圖層 1" xmlns="http://www.w3.org/2000/svg" viewBox="0 0 259 183"><defs><style>.cls-1{fill:#142952;}.cls-2{fill:#f6b42c;}.cls-3{fill:none;stroke:#142952;stroke-linecap:round;stroke-miterlimit:10;stroke-width:4px;}</style></defs><title>Artboard 22</title><path class="cls-1" d="M219.47,56.88H98.53a3.66,3.66,0,0,1,2.12,1.86l7.79,15.67a3.68,3.68,0,0,0,2.8,2l17.32,2.48a3.71,3.71,0,0,1,2.08,6.33l-12.5,12.24a3.74,3.74,0,0,0-1.06,3.3l3,17.23a3.72,3.72,0,0,1-2.81,4.26H219.47a14,14,0,0,0,14-14V70.87A14,14,0,0,0,219.47,56.88Z"/><path class="cls-2" d="M110.3,121.71,95.61,114a3.53,3.53,0,0,0-3.27,0L77.69,121.8a3.52,3.52,0,0,1-5.11-3.7l2.75-16.33a3.49,3.49,0,0,0-1-3.11L62.42,87.12a3.51,3.51,0,0,1,1.93-6l16.39-2.43a3.52,3.52,0,0,0,2.65-1.93l7.29-14.88a3.52,3.52,0,0,1,6.31,0l7.37,14.84A3.52,3.52,0,0,0,107,78.62L123.42,81a3.51,3.51,0,0,1,2,6l-11.83,11.6a3.51,3.51,0,0,0-1,3.12L115.39,118A3.52,3.52,0,0,1,110.3,121.71Z"/><path class="cls-3" d="M79.68,89.87s4.59,7.62,8.95,0"/><path class="cls-3" d="M98.53,89.37s4.59,7.62,8.94,0"/></svg>