<svg xmlns="http://www.w3.org/2000/svg" viewBox="0 0 75 87"><defs><style>.cls-1{fill:#f6b42c;}.cls-2{fill:none;stroke:#142952;stroke-linecap:round;stroke-miterlimit:10;stroke-width:4px;}</style></defs><title>Artboard 27</title><g id="Layer_3" data-name="Layer 3"><path class="cls-1" d="M58.85,86.5,44.17,78.83a3.52,3.52,0,0,0-3.28,0L26.25,86.58a3.52,3.52,0,0,1-5.12-3.69l2.76-16.34a3.52,3.52,0,0,0-1-3.11L11,51.91a3.52,3.52,0,0,1,1.94-6L29.3,43.47a3.52,3.52,0,0,0,2.64-1.93l7.3-14.88a3.51,3.51,0,0,1,6.3,0l7.38,14.84a3.51,3.51,0,0,0,2.65,1.91L72,45.74a3.52,3.52,0,0,1,2,6L62.11,63.33a3.53,3.53,0,0,0-1,3.12L64,82.77A3.52,3.52,0,0,1,58.85,86.5Z"/><path class="cls-2" d="M28.55,54.4s4.6,7.62,9,0"/><path class="cls-2" d="M47.4,53.91s4.59,7.62,9,0"/></g></svg>