<svg xmlns="http://www.w3.org/2000/svg" viewBox="0 0 78.91 121.24"><defs><style>.cls-1,.cls-2{fill:none;stroke:#f6b42c;}.cls-1{stroke-linecap:round;stroke-linejoin:round;stroke-width:2.23px;}.cls-2{stroke-miterlimit:10;stroke-width:4.59px;}.cls-3{fill:#f6b42c;}.cls-4{fill:#fff;}</style></defs><title>Asset 19</title><g id="Layer_2" data-name="Layer 2"><g id="圖層_1" data-name="圖層 1"><polyline class="cls-1" points="21.26 96.41 57.65 96.41 48.89 87.23"/><path class="cls-2" d="M58.18,72.85,41.41,64.09a4,4,0,0,0-3.74,0L21,73a4,4,0,0,1-5.84-4.22l3.14-18.65a4,4,0,0,0-1.16-3.55L3.52,33.36A4,4,0,0,1,5.73,26.5l18.71-2.77a4,4,0,0,0,3-2.2l8.32-17a4,4,0,0,1,7.21,0L51.4,21.46a4,4,0,0,0,3,2.19l18.73,2.67a4,4,0,0,1,2.24,6.85L61.89,46.41A4,4,0,0,0,60.75,50L64,68.6A4,4,0,0,1,58.18,72.85Z"/><path class="cls-3" d="M33.31,38.74c0,2.84-1.16,5.14-2.58,5.14s-2.59-2.3-2.59-5.14,1.16-5.14,2.59-5.14S33.31,35.9,33.31,38.74Z"/><path class="cls-3" d="M52.08,38.74c0,2.84-1.15,5.14-2.58,5.14s-2.59-2.3-2.59-5.14,1.16-5.14,2.59-5.14S52.08,35.9,52.08,38.74Z"/><path class="cls-4" d="M21.62,116.43a.72.72,0,0,1-.21.52.75.75,0,0,1-.53.22H17.52a.11.11,0,0,0-.12.1,3.91,3.91,0,0,1-1,1.85s0,.08,0,.1a10.79,10.79,0,0,0,2.45.56c.93.11,2,.18,3.35.21a.34.34,0,0,1,.31.19.35.35,0,0,1,.05.2.51.51,0,0,1,0,.17,1,1,0,0,1-.34.44.71.71,0,0,1-.45.16h0a32,32,0,0,1-3.63-.34,9.65,9.65,0,0,1-2.66-.8.22.22,0,0,0-.16,0,10.29,10.29,0,0,1-2.87,1.11l-.19,0a1,1,0,0,1-.34-.06,1.15,1.15,0,0,1-.43-.36.4.4,0,0,1-.05-.38.39.39,0,0,1,.29-.25,10.81,10.81,0,0,0,2.46-.78s0,0,0,0a.05.05,0,0,0,0,0,5.93,5.93,0,0,1-1.09-1.14.38.38,0,0,1-.09-.25.5.5,0,0,1,0-.12.44.44,0,0,1,.27-.29.62.62,0,0,1,.27,0,.71.71,0,0,1,.2,0,.93.93,0,0,1,.39.26,5.59,5.59,0,0,0,1,.92.13.13,0,0,0,.16,0,3.1,3.1,0,0,0,.8-1.31s0,0,0,0a.05.05,0,0,0-.05,0H13.2a.73.73,0,0,1-.53-.22.72.72,0,0,1-.21-.52v-3.58a.74.74,0,0,1,.21-.53.72.72,0,0,1,.53-.21h3.06s.08,0,.08-.1v-.73c0-.06,0-.1-.08-.1H11.87a.51.51,0,0,1-.54-.54.54.54,0,0,1,.15-.38.57.57,0,0,1,.39-.16h10a.53.53,0,0,1,.38.16.51.51,0,0,1,.16.38.53.53,0,0,1-.16.39.52.52,0,0,1-.38.15h-4.2a.09.09,0,0,0-.1.1V112c0,.07,0,.1.1.1h3.19a.72.72,0,0,1,.74.74Zm-8-3.34a.08.08,0,0,0-.09.09v.9c0,.07,0,.1.09.1h2.59s.08,0,.08-.1v-.9c0-.06,0-.09-.08-.09Zm-.09,3a.08.08,0,0,0,.09.09h2.55a.1.1,0,0,0,.11-.09c0-.12,0-.3,0-.54v-.36c0-.07,0-.1-.08-.1H13.67c-.06,0-.09,0-.09.1Zm6.77.09c.06,0,.1,0,.1-.09v-.9a.09.09,0,0,0-.1-.1H17.69c-.07,0-.1,0-.1.1v.37c0,.24,0,.41,0,.53s0,.09.09.09Zm.1-3c0-.06,0-.09-.1-.09H17.69c-.07,0-.1,0-.1.09v.9c0,.07,0,.1.1.1h2.66a.09.09,0,0,0,.1-.1Z"/><path class="cls-4" d="M33.85,110.47a.4.4,0,0,1,.32,0l.23.14a.43.43,0,0,1,.21.28.38.38,0,0,1,0,.34A8.39,8.39,0,0,1,33.08,113a11.61,11.61,0,0,1-2,1.42,16.3,16.3,0,0,1-2.2,1,19.79,19.79,0,0,1-2.37.73l-.16,0a.71.71,0,0,1-.31-.08.82.82,0,0,1-.34-.35.36.36,0,0,1-.06-.2.29.29,0,0,1,0-.16.4.4,0,0,1,.27-.24,15.58,15.58,0,0,0,3.93-1.35c.06,0,.06-.06,0-.1a10.4,10.4,0,0,0-1.85-1.21.25.25,0,0,0-.17,0,11,11,0,0,1-1,.49.82.82,0,0,1-.49,0,.89.89,0,0,1-.42-.28.36.36,0,0,1-.09-.34.34.34,0,0,1,.22-.27,10.79,10.79,0,0,0,3.74-2.27,1.18,1.18,0,0,1,.85-.39.8.8,0,0,1,.27,0,.37.37,0,0,1,.29.26.51.51,0,0,1,0,.13.38.38,0,0,1-.11.25,1.89,1.89,0,0,0-.2.2,0,0,0,0,0,0,0s0,0,0,0h2.89ZM35.6,115a.42.42,0,0,1,.35,0l.24.13a.47.47,0,0,1,.23.27.44.44,0,0,1,0,.16.75.75,0,0,1,0,.2,8.22,8.22,0,0,1-1.52,2.12,8.09,8.09,0,0,1-2.1,1.56,14.85,14.85,0,0,1-2.47,1,19.63,19.63,0,0,1-2.81.67H27.4a.65.65,0,0,1-.36-.1.87.87,0,0,1-.33-.38.45.45,0,0,1-.05-.19.53.53,0,0,1,.05-.2.37.37,0,0,1,.29-.21,15.12,15.12,0,0,0,4.66-1.32c.06,0,.06,0,0-.1a12.94,12.94,0,0,0-2.06-1.44.19.19,0,0,0-.18,0c-.44.21-.89.4-1.35.58a.74.74,0,0,1-.25.05.62.62,0,0,1-.23,0,.88.88,0,0,1-.4-.29.39.39,0,0,1-.07-.36.36.36,0,0,1,.24-.27,11.59,11.59,0,0,0,4.51-2.62,1.19,1.19,0,0,1,.84-.37l.28,0a.41.41,0,0,1,.3.28.49.49,0,0,1,0,.12.34.34,0,0,1-.11.25l-.34.34s0,0,0,0,0,0,0,0H35.6ZM33,111.55s0,0,0,0,0,0-.05,0H29.75a.41.41,0,0,0-.18,0,4.85,4.85,0,0,1-.5.34.09.09,0,0,0,0,.06s0,0,0,0A11.76,11.76,0,0,1,31,113.16a.11.11,0,0,0,.15,0A8.18,8.18,0,0,0,33,111.55Zm1.87,4.55s0,0,0,0a.05.05,0,0,0,0,0H31.62a.34.34,0,0,0-.17,0c-.25.18-.5.34-.75.49a.09.09,0,0,0,0,.06s0,0,0,0a13.4,13.4,0,0,1,2.06,1.41.12.12,0,0,0,.15,0A6.88,6.88,0,0,0,34.85,116.1Z"/><path class="cls-4" d="M42.46,112.19l.11,0a.4.4,0,0,1,.23.08.37.37,0,0,1,.17.29.54.54,0,0,1-.08.37.5.5,0,0,1-.31.24c-.35.12-1.1.35-2.25.7l-.19,0a.67.67,0,0,1-.28-.06.66.66,0,0,1-.33-.33.58.58,0,0,1,0-.19.43.43,0,0,1,0-.21.42.42,0,0,1,.31-.24C40.4,112.73,41.27,112.5,42.46,112.19Zm.12,7.27a1.58,1.58,0,0,1,.58-.12,1.12,1.12,0,0,1,.51.11.3.3,0,0,1,.18.26.27.27,0,0,1-.15.28,18.06,18.06,0,0,1-2.81,1.13,1.27,1.27,0,0,1-.28,0,1.24,1.24,0,0,1-.27,0,1.07,1.07,0,0,1-.49-.29.3.3,0,0,1-.1-.23.38.38,0,0,1,0-.1.29.29,0,0,1,.25-.22A15,15,0,0,0,42.58,119.46Zm.05-9a.44.44,0,0,1,.27.29.78.78,0,0,1,0,.14.44.44,0,0,1-.07.24.57.57,0,0,1-.33.26l-.16,0a.45.45,0,0,1-.25-.07c-.53-.23-1.11-.45-1.75-.66a.42.42,0,0,1-.24-.23.36.36,0,0,1,0-.32.66.66,0,0,1,.33-.27.59.59,0,0,1,.22,0,.57.57,0,0,1,.18,0A17.65,17.65,0,0,1,42.63,110.44Zm3.53.87a.07.07,0,0,0,0-.06.09.09,0,0,0-.07,0h-1a.22.22,0,0,0-.15.08,6.25,6.25,0,0,1-.61.65.65.65,0,0,1-.41.15.74.74,0,0,1-.43-.14.35.35,0,0,1-.18-.28.38.38,0,0,1,.13-.3A5.25,5.25,0,0,0,44.68,110a.75.75,0,0,1,.34-.32.66.66,0,0,1,.33-.09h.12a.37.37,0,0,1,.29.21.36.36,0,0,1,0,.36,1.4,1.4,0,0,0-.1.16.06.06,0,0,0,0,.06,0,0,0,0,0,0,0h4s0,0,0,0a.62.62,0,0,1,.33,0l.24.06a.29.29,0,0,1,.21.18.31.31,0,0,1,0,.28,7.89,7.89,0,0,1-.73,1.13.58.58,0,0,1-.36.23.71.71,0,0,1-.2,0,.93.93,0,0,1-.23,0,.32.32,0,0,1-.21-.23.35.35,0,0,1,0-.31c.08-.11.18-.25.28-.41a0,0,0,0,0,0,0,.05.05,0,0,0,0,0H47.49a.06.06,0,0,0-.06,0,.13.13,0,0,0,0,.06,2.29,2.29,0,0,0,.44.78,2.93,2.93,0,0,0,.93.65,6.53,6.53,0,0,0,1.64.49.33.33,0,0,1,.26.21.78.78,0,0,1,0,.14.49.49,0,0,1-.05.2,1.06,1.06,0,0,1-.36.34.77.77,0,0,1-.32.07h-.15l-.34-.09c-.05,0-.08,0-.08.08v4.26a.73.73,0,0,1-.22.52.7.7,0,0,1-.52.22h-6.9a.75.75,0,0,1-.74-.74v-3.69a.7.7,0,0,1,.22-.52.73.73,0,0,1,.52-.22h1.75s0,0,0,0a0,0,0,0,0,0,0l0-.1a.48.48,0,0,1-.07-.26.43.43,0,0,1,0-.19.4.4,0,0,1,.32-.29,4,4,0,0,0,1.6-.68A2.18,2.18,0,0,0,46.16,111.31Zm2,4.17c.07,0,.1,0,.1-.08v-.54c0-.06,0-.09-.1-.09H42.28a.08.08,0,0,0-.09.09v.54c0,.06,0,.08.09.08Zm0,1.46c.07,0,.1,0,.1-.1v-.54c0-.07,0-.1-.1-.1H42.28c-.06,0-.09,0-.09.1v.54c0,.07,0,.1.09.1Zm0,1.48c.07,0,.1,0,.1-.1v-.55c0-.07,0-.1-.1-.1H42.28c-.06,0-.09,0-.09.1v.55c0,.07,0,.1.09.1Zm-4-4.43s0,0,0,0h5a0,0,0,0,0,0,0h0a3.86,3.86,0,0,1-2.21-1.57.09.09,0,0,0,0,0,.05.05,0,0,0-.05,0A4.33,4.33,0,0,1,44.08,114Zm2.52,6a.28.28,0,0,1-.19-.28.26.26,0,0,1,.14-.23,1.16,1.16,0,0,1,.61-.18,1.32,1.32,0,0,1,.42.07c1,.34,1.85.68,2.62,1a.3.3,0,0,1,.19.29.28.28,0,0,1-.21.29h0a1.62,1.62,0,0,1-.61.12,1.85,1.85,0,0,1-.74-.17C48.16,120.64,47.42,120.33,46.6,120Z"/><path class="cls-4" d="M57.67,111.58a.45.45,0,0,1,.33.14.42.42,0,0,1,.14.33.44.44,0,0,1-.14.34.43.43,0,0,1-.33.15H53.83a.43.43,0,0,1-.34-.15.48.48,0,0,1-.14-.34.45.45,0,0,1,.14-.33.46.46,0,0,1,.34-.14Zm.78-.57-.17-.17v-.23a.56.56,0,0,1,.17-.4.57.57,0,0,1,.41-.17h4.29a.69.69,0,0,1,.51.21.73.73,0,0,1,.21.52l0,2.57c0,.28,0,.55,0,.82,0,1.08,0,2,.07,2.89a13.35,13.35,0,0,0,.22,2q.17.78.42.84s.07-.11.1-.36a9.11,9.11,0,0,0,.09-.94.18.18,0,0,1,.15-.17.16.16,0,0,1,.2.07,1.51,1.51,0,0,1,.33.88.76.76,0,0,1,0,.15,2.87,2.87,0,0,1-.5,1.47.7.7,0,0,1-.49.21,1.06,1.06,0,0,1-.38-.07,1.07,1.07,0,0,1-.46-.35,2.4,2.4,0,0,1-.35-.68,5.25,5.25,0,0,1-.24-1c-.07-.37-.12-.78-.17-1.22s-.07-.92-.1-1.43,0-1.05,0-1.61,0-1.16,0-1.78v-1.87c0-.06,0-.1-.09-.1H61a.09.09,0,0,0-.1.1v3a.09.09,0,0,0,.1.1h.78a.53.53,0,0,1,.4.17.54.54,0,0,1,.17.39.54.54,0,0,1-.17.4.52.52,0,0,1-.4.16H60.9c-.06,0-.09,0-.1.1A8.75,8.75,0,0,1,59,120.73a.63.63,0,0,1-.48.21h0a.86.86,0,0,1-.53-.21,1.31,1.31,0,0,0-.23-.2s0,0,0,0H55s-.06,0-.06,0a.5.5,0,0,1-.14.35.48.48,0,0,1-.34.14h0a.51.51,0,0,1-.51-.51v-3.06a.69.69,0,0,1,.22-.53.72.72,0,0,1,.52-.21H57a.72.72,0,0,1,.52.21.73.73,0,0,1,.22.53v2.72s0,0,0,0h0a7.55,7.55,0,0,0,1.88-4.7c0-.07,0-.1-.09-.1h-.88a.49.49,0,0,1-.38-.16.54.54,0,0,1-.17-.4.54.54,0,0,1,.17-.39.5.5,0,0,1,.38-.17h.93c.07,0,.1,0,.1-.1v-3a.09.09,0,0,0-.1-.1h-.76A.53.53,0,0,1,58.45,111Zm-1.21,2.32a.45.45,0,0,1,.33.14.44.44,0,0,1,.13.32.44.44,0,0,1-.13.33.49.49,0,0,1-.33.14H54.4a.45.45,0,0,1-.32-.14.45.45,0,0,1-.14-.33.45.45,0,0,1,.14-.32.41.41,0,0,1,.32-.14ZM54.4,116a.44.44,0,0,1-.32-.13.49.49,0,0,1-.14-.34.45.45,0,0,1,.14-.33.45.45,0,0,1,.32-.14h2.84a.49.49,0,0,1,.33.14.44.44,0,0,1,.13.33.48.48,0,0,1-.13.34.48.48,0,0,1-.33.13Zm2.81-6.08a.47.47,0,0,1,.33.8.44.44,0,0,1-.33.13H54.47a.46.46,0,0,1-.34-.79.46.46,0,0,1,.34-.14Zm-.61,9.7c.06,0,.09,0,.09-.1v-1.66c0-.07,0-.1-.09-.1H55s-.08,0-.08.1v1.66c0,.06,0,.1.08.1Z"/></g></g></svg>