<svg xmlns="http://www.w3.org/2000/svg" viewBox="0 0 225.18 194.02"><defs><style>.cls-1,.cls-2{fill:none;stroke:#fff;stroke-linecap:round;stroke-linejoin:round;}.cls-1{stroke-width:4.71px;}.cls-2{stroke-width:5.32px;}</style></defs><title>icon_ship</title><g id="Layer_4" data-name="Layer 4"><polygon class="cls-1" points="46.7 127.21 4.63 49.96 113.9 98.32 46.7 127.21"/><polygon class="cls-1" points="181.1 127.21 223.18 49.96 113.9 98.32 181.1 127.21"/><polygon class="cls-1" points="46.7 127.21 113.9 98.32 181.1 127.21 46.7 127.21"/><polygon class="cls-1" points="113.9 98.32 113.9 27.35 81.36 83.92 113.9 98.32"/><polygon class="cls-1" points="113.9 98.32 113.9 27.35 146.44 83.92 113.9 98.32"/><path class="cls-2" d="M2,147.92c8.06,0,8.06,6.28,16.12,6.28s8.06-6.28,16.12-6.28,8.06,6.28,16.12,6.28,8.06-6.28,16.12-6.28,8.07,6.28,16.13,6.28,8.06-6.28,16.12-6.28,8.06,6.28,16.12,6.28,8.07-6.28,16.13-6.28,8.06,6.28,16.12,6.28,8.07-6.28,16.13-6.28,8.06,6.28,16.13,6.28,8.06-6.28,16.13-6.28,8.06,6.28,16.13,6.28"/><path class="cls-2" d="M2,163.53c8.06,0,8.06,6.28,16.12,6.28s8.06-6.28,16.12-6.28,8.06,6.28,16.12,6.28,8.06-6.28,16.12-6.28,8.07,6.28,16.13,6.28,8.06-6.28,16.12-6.28,8.06,6.28,16.12,6.28,8.07-6.28,16.13-6.28,8.06,6.28,16.12,6.28,8.07-6.28,16.13-6.28,8.06,6.28,16.13,6.28,8.06-6.28,16.13-6.28,8.06,6.28,16.13,6.28"/></g></svg>