<svg xmlns="http://www.w3.org/2000/svg" viewBox="0 0 226.2 147.48"><defs><style>.cls-1,.cls-2{fill:none;stroke:#fff;stroke-linecap:round;stroke-linejoin:round;}.cls-1{stroke-width:4.71px;}.cls-2{stroke-width:5.32px;}</style></defs><title>icon_ship</title><g id="Layer_2" data-name="Layer 2"><g id="圖層_1" data-name="圖層 1"><polygon class="cls-1" points="47.37 102.21 5.29 24.96 114.57 73.32 47.37 102.21"/><polygon class="cls-1" points="181.77 102.21 223.85 24.96 114.57 73.32 181.77 102.21"/><polygon class="cls-1" points="47.37 102.21 114.57 73.32 181.77 102.21 47.37 102.21"/><polygon class="cls-1" points="114.57 73.32 114.57 2.35 82.03 58.92 114.57 73.32"/><polygon class="cls-1" points="114.57 73.32 114.57 2.35 147.11 58.92 114.57 73.32"/><path class="cls-2" d="M2.66,122.92c8.06,0,8.06,6.28,16.12,6.28s8.06-6.28,16.12-6.28S43,129.2,51,129.2s8.07-6.28,16.13-6.28,8.06,6.28,16.12,6.28,8.06-6.28,16.12-6.28,8.07,6.28,16.13,6.28,8.06-6.28,16.12-6.28,8.07,6.28,16.13,6.28,8.06-6.28,16.12-6.28S172,129.2,180,129.2s8.07-6.28,16.13-6.28,8.07,6.28,16.13,6.28"/><path class="cls-2" d="M2.66,138.54c8.06,0,8.06,6.28,16.12,6.28s8.06-6.28,16.12-6.28S43,144.82,51,144.82s8.07-6.28,16.13-6.28,8.06,6.28,16.12,6.28,8.06-6.28,16.12-6.28,8.07,6.28,16.13,6.28,8.06-6.28,16.12-6.28,8.07,6.28,16.13,6.28,8.06-6.28,16.12-6.28,8.07,6.28,16.13,6.28,8.07-6.28,16.13-6.28,8.07,6.28,16.13,6.28"/></g></g></svg>