<svg xmlns="http://www.w3.org/2000/svg" viewBox="0 0 156.98 156.98"><defs><style>.cls-1{fill:#231815;}</style></defs><title>Asset 2</title><g id="Layer_2" data-name="Layer 2"><g id="圖層_1" data-name="圖層 1"><path class="cls-1" d="M78.49,157A78.49,78.49,0,1,1,157,78.49,78.58,78.58,0,0,1,78.49,157Zm0-152.66a74.17,74.17,0,1,0,74.17,74.17A74.25,74.25,0,0,0,78.49,4.32Z"/><path class="cls-1" d="M54.24,57.47a8,8,0,0,0,2.36,5.68,1.73,1.73,0,0,0,1.23.51,1.75,1.75,0,0,0,1.24-3,4.53,4.53,0,0,1,0-6.43,8,8,0,0,0,0-11.36,1.75,1.75,0,0,0-2.47,2.47,4.54,4.54,0,0,1,0,6.43A8,8,0,0,0,54.24,57.47Z"/><path class="cls-1" d="M92.64,57.47A8,8,0,0,0,95,63.15a1.74,1.74,0,0,0,1.23.51,1.75,1.75,0,0,0,1.24-3,4.53,4.53,0,0,1,0-6.43,8,8,0,0,0,0-11.36,1.75,1.75,0,0,0-2.47,0,1.73,1.73,0,0,0,0,2.47,4.55,4.55,0,0,1,0,6.43A7.93,7.93,0,0,0,92.64,57.47Z"/><path class="cls-1" d="M72.7,50.7a10.15,10.15,0,0,0,3,7.22,1.73,1.73,0,0,0,1.23.51,1.75,1.75,0,0,0,1.24-3,6.72,6.72,0,0,1,0-9.51,10.21,10.21,0,0,0,0-14.44A1.75,1.75,0,0,0,75.69,34a6.71,6.71,0,0,1,0,9.5A10.16,10.16,0,0,0,72.7,50.7Z"/><path class="cls-1" d="M110.2,99l.09,0c12.94,0,22.69-9,22.69-20.94a1.74,1.74,0,0,0-1.74-1.75H115.45c0-1.15.08-2.31.08-3.49a1.75,1.75,0,0,0-1.75-1.75H66.66V69.39a1.75,1.75,0,0,0-3.5,0v1.74H40.47a1.74,1.74,0,0,0-1.74,1.75c0,16.94,5.14,30.34,14.58,38.4H30A1.74,1.74,0,0,0,28.26,113c0,2.65,12.5,7.26,12.63,7.31,7.18,2.58,19.3,5.66,36.24,5.66,32.43,0,47.55-11.1,48.17-11.57a1.74,1.74,0,0,0-1-3.14H101A37.13,37.13,0,0,0,110.2,99Zm19.21-19.18c-.83,8.77-7.93,15.08-17.67,15.65a58.32,58.32,0,0,0,3.48-15.65ZM77.13,122.5c-20.64,0-33.87-4.55-40.6-7.73h81C110.62,118,97.31,122.5,77.13,122.5ZM59.19,111.28c-10.59-6.6-16.57-19.55-16.95-36.66H63.16v3.5H59.68a1.74,1.74,0,0,0-1.75,1.74V93a1.75,1.75,0,0,0,1.75,1.75H70.15A1.74,1.74,0,0,0,71.89,93V79.86a1.73,1.73,0,0,0-1.74-1.74H66.66v-3.5H112c-.38,17.11-6.36,30.06-17,36.66ZM68.4,81.61v9.6h-7v-9.6Z"/></g></g></svg>