<svg xmlns="http://www.w3.org/2000/svg" viewBox="0 0 156.98 156.98"><defs><style>.cls-1{fill:#231815;}</style></defs><title>Asset 5</title><g id="Layer_2" data-name="Layer 2"><g id="圖層_1" data-name="圖層 1"><path class="cls-1" d="M78.49,157A78.49,78.49,0,1,1,157,78.49,78.58,78.58,0,0,1,78.49,157Zm0-152.66a74.17,74.17,0,1,0,74.17,74.17A74.25,74.25,0,0,0,78.49,4.32Z"/><g id="Desktop"><path class="cls-1" d="M99.87,128.92h-6.1a6.11,6.11,0,0,1-6.12-6.1v-9.16H69.34v9.16a6.11,6.11,0,0,1-6.11,6.1H57.12a3.06,3.06,0,0,0,0,6.11H99.87a3.06,3.06,0,0,0,0-6.11ZM122,37.33H35a5.55,5.55,0,0,0-5.34,5.72v58.78A5.55,5.55,0,0,0,35,107.56h87a5.55,5.55,0,0,0,5.34-5.73V43.05A5.55,5.55,0,0,0,122,37.33Zm-.76,64.11H35.75v-58h85.49Z"/></g></g></g></svg>